<?xml version="1.0" standalone="no"?>
<!DOCTYPE svg PUBLIC "-//W3C//DTD SVG 1.1//EN" "http://www.w3.org/Graphics/SVG/1.1/DTD/svg11.dtd" >
<svg xmlns="http://www.w3.org/2000/svg" xmlns:xlink="http://www.w3.org/1999/xlink" version="1.1">
<metadata>
Created by FontForge 20201107 at Mon Oct 27 08:02:36 2025
 By 
Copyright (c) 2025 by Khurasan. All rights reserved.
</metadata>
<defs>
<font id="SpicySale" horiz-adv-x="0" >
  <font-face 
    font-family="Spicy Sale"
    font-weight="400"
    font-stretch="normal"
    units-per-em="1000"
    panose-1="0 0 0 0 0 0 0 0 0 0"
    ascent="800"
    descent="-200"
    x-height="739"
    cap-height="753"
    bbox="-6 -136.515 1031.86 938.12"
    underline-thickness="0"
    underline-position="0"
    unicode-range="U+000D-2212"
  />
<missing-glyph horiz-adv-x="250" 
 />
    <glyph glyph-name=".notdef" horiz-adv-x="250" 
 />
    <glyph glyph-name=".null" 
 />
    <glyph glyph-name="nonmarkingreturn" unicode="&#xd;" horiz-adv-x="250" 
 />
    <glyph glyph-name="controlLF" 
 />
    <glyph glyph-name="controlLF" 
 />
    <glyph glyph-name="space" unicode=" " horiz-adv-x="250" 
 />
    <glyph glyph-name="exclam" unicode="!" horiz-adv-x="318" 
d="M231 252q-8 -9 -21 -14t-28.5 -6.5t-31 0t-26.5 5.5q-20 6 -34 22q-10 11 -16 24t-11 27q-29 80 -38 167.5t2 173.5q3 23 16.5 41.5t33 31t42.5 19.5t46 7q43 0 69.5 -10.5t41.5 -31t19 -50t2 -66.5q-2 -33 -6.5 -66.5t-9.5 -66.5q-5 -40 -12 -79.5t-18 -77.5
q-3 -14 -7 -26.5t-13 -23.5zM239 624q5 -2 9.5 1t7.5 7q2 2 1 7.5t-1 8.5q-2 11 -8 20.5t-14 17.5q-6 6 -16 12.5t-21.5 11.5t-23 7.5t-19.5 1.5q-5 -1 -10 -1.5t-8 -5.5t2.5 -8t11.5 -5q35 -10 62 -29q6 -5 10 -11.5t6 -13.5q2 -5 2 -9t2 -8t7 -4zM225 -22
q-31 -16 -69.5 -14.5t-67.5 20.5q-19 13 -31.5 32t-16.5 41t1 44t20 40q10 11 21.5 20t25.5 14q29 11 60.5 8t57.5 -19q7 -5 14 -9.5t13 -10.5q13 -14 18 -34t4 -39q-2 -38 -25 -71q-10 -14 -25 -22zM224 82q2 -8 9.5 -8t12.5 6q4 7 -0.5 17.5t-8.5 16.5q-15 26 -40 38
q-9 4 -20 5t-21 -2q-7 -2 -9 -8q-2 -9 8 -10t18 -3q19 -5 32.5 -19t18.5 -33z" />
    <glyph glyph-name="quotedbl" unicode="&#x22;" horiz-adv-x="431" 
d="M177 503q-9 -18 -28 -29t-40 -10q-17 1 -33.5 6t-26.5 17q-12 15 -20 41t-11.5 55t-2.5 56.5t7 45.5q8 24 31 36t49.5 13t51 -7.5t34.5 -23.5q8 -12 11 -32t2.5 -41.5t-3 -42.5t-5.5 -35q-2 -13 -6.5 -25.5t-9.5 -23.5zM391 502q-9 -18 -28 -29t-40 -10q-17 0 -33.5 5
t-26.5 18q-12 15 -20 41t-11.5 55t-2.5 56.5t7 45.5q8 24 31 35.5t49.5 13t51 -7t34.5 -23.5q8 -12 11 -32t2.5 -42t-3 -42.5t-5.5 -34.5q-2 -13 -6.5 -25.5t-9.5 -23.5zM153 643q1 -5 4.5 -6.5t7 -1t6.5 3.5t2 8q-2 27 -22 47t-49 18q-5 0 -9 -4t-1 -9q2 -2 7 -3t7 -1
q18 -5 31 -19.5t16 -32.5zM367 642q1 -5 4.5 -7t7 -1t6.5 4t2 8q-2 27 -22 47t-49 18q-5 -1 -9 -4.5t-1 -8.5q2 -2 7 -3t7 -2q18 -5 31 -19t16 -32z" />
    <glyph glyph-name="quotedbl" unicode="&#x201f;" horiz-adv-x="431" 
d="M177 503q-9 -18 -28 -29t-40 -10q-17 1 -33.5 6t-26.5 17q-12 15 -20 41t-11.5 55t-2.5 56.5t7 45.5q8 24 31 36t49.5 13t51 -7.5t34.5 -23.5q8 -12 11 -32t2.5 -41.5t-3 -42.5t-5.5 -35q-2 -13 -6.5 -25.5t-9.5 -23.5zM391 502q-9 -18 -28 -29t-40 -10q-17 0 -33.5 5
t-26.5 18q-12 15 -20 41t-11.5 55t-2.5 56.5t7 45.5q8 24 31 35.5t49.5 13t51 -7t34.5 -23.5q8 -12 11 -32t2.5 -42t-3 -42.5t-5.5 -34.5q-2 -13 -6.5 -25.5t-9.5 -23.5zM153 643q1 -5 4.5 -6.5t7 -1t6.5 3.5t2 8q-2 27 -22 47t-49 18q-5 0 -9 -4t-1 -9q2 -2 7 -3t7 -1
q18 -5 31 -19.5t16 -32.5zM367 642q1 -5 4.5 -7t7 -1t6.5 4t2 8q-2 27 -22 47t-49 18q-5 -1 -9 -4.5t-1 -8.5q2 -2 7 -3t7 -2q18 -5 31 -19t16 -32z" />
    <glyph glyph-name="quotedbl" unicode="&#x201e;" horiz-adv-x="431" 
d="M177 503q-9 -18 -28 -29t-40 -10q-17 1 -33.5 6t-26.5 17q-12 15 -20 41t-11.5 55t-2.5 56.5t7 45.5q8 24 31 36t49.5 13t51 -7.5t34.5 -23.5q8 -12 11 -32t2.5 -41.5t-3 -42.5t-5.5 -35q-2 -13 -6.5 -25.5t-9.5 -23.5zM391 502q-9 -18 -28 -29t-40 -10q-17 0 -33.5 5
t-26.5 18q-12 15 -20 41t-11.5 55t-2.5 56.5t7 45.5q8 24 31 35.5t49.5 13t51 -7t34.5 -23.5q8 -12 11 -32t2.5 -42t-3 -42.5t-5.5 -34.5q-2 -13 -6.5 -25.5t-9.5 -23.5zM153 643q1 -5 4.5 -6.5t7 -1t6.5 3.5t2 8q-2 27 -22 47t-49 18q-5 0 -9 -4t-1 -9q2 -2 7 -3t7 -1
q18 -5 31 -19.5t16 -32.5zM367 642q1 -5 4.5 -7t7 -1t6.5 4t2 8q-2 27 -22 47t-49 18q-5 -1 -9 -4.5t-1 -8.5q2 -2 7 -3t7 -2q18 -5 31 -19t16 -32z" />
    <glyph glyph-name="quotedbl" unicode="&#xbb;" horiz-adv-x="431" 
d="M177 503q-9 -18 -28 -29t-40 -10q-17 1 -33.5 6t-26.5 17q-12 15 -20 41t-11.5 55t-2.5 56.5t7 45.5q8 24 31 36t49.5 13t51 -7.5t34.5 -23.5q8 -12 11 -32t2.5 -41.5t-3 -42.5t-5.5 -35q-2 -13 -6.5 -25.5t-9.5 -23.5zM391 502q-9 -18 -28 -29t-40 -10q-17 0 -33.5 5
t-26.5 18q-12 15 -20 41t-11.5 55t-2.5 56.5t7 45.5q8 24 31 35.5t49.5 13t51 -7t34.5 -23.5q8 -12 11 -32t2.5 -42t-3 -42.5t-5.5 -34.5q-2 -13 -6.5 -25.5t-9.5 -23.5zM153 643q1 -5 4.5 -6.5t7 -1t6.5 3.5t2 8q-2 27 -22 47t-49 18q-5 0 -9 -4t-1 -9q2 -2 7 -3t7 -1
q18 -5 31 -19.5t16 -32.5zM367 642q1 -5 4.5 -7t7 -1t6.5 4t2 8q-2 27 -22 47t-49 18q-5 -1 -9 -4.5t-1 -8.5q2 -2 7 -3t7 -2q18 -5 31 -19t16 -32z" />
    <glyph glyph-name="quotedbl" unicode="&#xab;" horiz-adv-x="431" 
d="M177 503q-9 -18 -28 -29t-40 -10q-17 1 -33.5 6t-26.5 17q-12 15 -20 41t-11.5 55t-2.5 56.5t7 45.5q8 24 31 36t49.5 13t51 -7.5t34.5 -23.5q8 -12 11 -32t2.5 -41.5t-3 -42.5t-5.5 -35q-2 -13 -6.5 -25.5t-9.5 -23.5zM391 502q-9 -18 -28 -29t-40 -10q-17 0 -33.5 5
t-26.5 18q-12 15 -20 41t-11.5 55t-2.5 56.5t7 45.5q8 24 31 35.5t49.5 13t51 -7t34.5 -23.5q8 -12 11 -32t2.5 -42t-3 -42.5t-5.5 -34.5q-2 -13 -6.5 -25.5t-9.5 -23.5zM153 643q1 -5 4.5 -6.5t7 -1t6.5 3.5t2 8q-2 27 -22 47t-49 18q-5 0 -9 -4t-1 -9q2 -2 7 -3t7 -1
q18 -5 31 -19.5t16 -32.5zM367 642q1 -5 4.5 -7t7 -1t6.5 4t2 8q-2 27 -22 47t-49 18q-5 -1 -9 -4.5t-1 -8.5q2 -2 7 -3t7 -2q18 -5 31 -19t16 -32z" />
    <glyph glyph-name="numbersign" unicode="#" horiz-adv-x="823" 
d="M578 -6q-13 0 -25 3q-26 5 -47 20.5t-34 40.5q-10 20 -13 42.5t-5 44.5q0 2 -0.5 4t-0.5 4h-85q-3 -26 -9 -51q-4 -19 -11.5 -37.5t-21.5 -31.5q-33 -28 -77 -30q-6 0 -12 1l-12 2q-26 5 -47.5 20.5t-33.5 40.5q-11 20 -13.5 42.5t-4.5 44.5q-1 2 -1 6q-1 0 -1.5 0.5
t-2.5 0.5q-20 2 -40.5 7t-35.5 15q-32 21 -35 52q-1 4 0 8t2 9q9 38 64 58q12 5 25.5 7t27.5 4q1 9 1 18v19q1 9 1.5 18t0.5 18q-2 0 -2.5 0.5t-2.5 0.5q-20 2 -41 7t-35 14q-16 11 -24.5 25t-10.5 28q-1 4 0 8t2 9q4 19 20.5 33.5t42.5 24.5q11 4 23 6l24 4q1 11 1 21t1 21
q2 17 5 33.5t8 32.5q3 11 10 21t15 18q29 28 71 34.5t78 -11.5q26 -13 38 -36q12 -21 17.5 -45t7.5 -48q1 -9 1.5 -17.5t0.5 -17.5h14h61q0 7 0.5 14t1.5 14q1 17 4 33.5t8 33.5q8 23 25 39q29 29 71.5 35t77.5 -12q25 -12 39 -36q11 -21 16.5 -45.5t7.5 -48.5
q1 -6 1.5 -12.5t0.5 -12.5q5 -1 8.5 -1.5t8.5 -1.5q25 -4 44 -17q32 -20 40 -48.5t-10 -53.5q-12 -18 -38 -28q-12 -5 -26 -8.5t-28 -5.5q0 -35 -3 -71q5 0 15 -2q25 -4 44 -17q32 -20 40 -48.5t-10 -53.5q-13 -19 -38 -28q-27 -10 -59 -15q-2 -18 -4 -35.5t-7 -34.5
q-4 -19 -11.5 -37.5t-21.5 -31.5q-15 -14 -35.5 -21.5t-40.5 -8.5zM318 623q2 -6 9 -4q8 0 13 4.5t4 11.5q-2 17 -10.5 32.5t-20.5 27t-28 17.5t-33 5q-6 -1 -11.5 -4t-5.5 -8q1 -4 5 -6.5t8 -2.5q47 -8 63 -53q2 -5 3.5 -10t3.5 -10zM640 609q0 -6 5 -8t10 -1t9.5 5t3.5 10
q-3 37 -28 64t-63 24q-8 -1 -15 -6t-1 -11q2 -2 10.5 -3t11.5 -2q24 -7 39.5 -26.5t17.5 -45.5zM458 326q0 6 0.5 12t0.5 11q0 10 0.5 19.5t0.5 18.5h-80q0 -15 -0.5 -30t-1.5 -31h12h68z" />
    <glyph glyph-name="dollar" unicode="$" horiz-adv-x="510" 
d="M321 -15q-6 -7 -15.5 -11.5t-20 -6.5t-21.5 -1t-19 4q-17 6 -25 24q-5 11 -5.5 23t0.5 24q0 2 0.5 5t0.5 5h-17q-20 1 -41 0.5t-41 1.5q-18 2 -35.5 9t-30.5 18q-22 19 -25 48q-2 17 -2 34.5t6 34.5q6 18 21 28q13 11 28.5 16.5t32.5 7.5q25 3 50 5t50 0q30 -2 44.5 4
t15 14.5t-12 15.5t-34.5 7q-34 -1 -68 5t-62 23q-18 11 -32.5 27.5t-24.5 34.5q-22 43 -20 92q1 19 4 39.5t9.5 39.5t17 36.5t26.5 30.5q23 20 55.5 31.5t70.5 16.5q-1 8 -2 15t0 15q0 22 16 35q6 6 16 8.5t20.5 2.5t20.5 -2.5t17 -6.5q7 -6 10 -12q5 -10 3.5 -22.5
t-3.5 -23.5q0 -2 -1 -2q40 -1 74 -5.5t55 -12.5q31 -11 41 -35t10 -52q0 -15 -3.5 -30t-11 -28t-19.5 -22.5t-30 -12.5q-8 -2 -22.5 -2h-30h-29.5h-22q-26 -1 -37 -8t-9.5 -14.5t13.5 -14t33 -7.5q9 0 21.5 -1t26 -2.5t26 -4t20.5 -6.5q40 -17 60.5 -50t26 -72.5t-2 -80.5
t-23.5 -72q-11 -20 -28 -37t-37 -29q-28 -18 -65 -24q2 -12 0.5 -26t-3.5 -21q-3 -12 -11 -23zM392 600q3 -5 8.5 -5.5t10 2.5t7 7.5t0.5 10.5q-4 8 -10.5 13.5t-14.5 9.5q-21 11 -45.5 14t-48.5 1q-4 -1 -14.5 -2.5t-13.5 -3.5q-7 -3 -10 -8.5t2 -10.5q3 -2 8.5 -2.5
t11.5 -0.5t12 0.5t9 0.5q12 0 24 -0.5t24 -2.5q11 -2 22 -7.5t18 -15.5z" />
    <glyph glyph-name="percent" unicode="%" horiz-adv-x="1050" 
d="M426 -17q-9 -7 -20.5 -10t-22.5 -3q-18 0 -39 5t-39 15.5t-31.5 25t-17.5 32.5q-5 23 3 43q9 23 19 45.5t21 45.5q14 29 27.5 58t27.5 58q8 15 16 29.5t15 30.5q40 92 87 179t98 174q8 16 20.5 30t29.5 19q18 6 38.5 4t40 -9t37 -19t29.5 -27q8 -11 13.5 -24.5t4.5 -27.5
q-1 -11 -3.5 -21.5t-6.5 -21.5q-9 -24 -20.5 -46t-23.5 -45l-32 -58t-31 -59q-27 -52 -53 -104.5t-55 -103.5q-21 -39 -43 -78t-42 -79q-9 -17 -20.5 -32t-26.5 -26zM721 638q1 -8 6 -11t10.5 -2.5t10.5 5t6 12.5q1 14 -5 29t-14 27q-11 17 -29 27.5t-38 12.5q-11 1 -16 -8
t5 -14q28 -13 48 -38q7 -8 10.5 -18.5t5.5 -21.5zM255 332q-32 -6 -66 -4t-63 15q-32 14 -56.5 42t-37.5 61q-18 45 -14.5 89.5t22.5 81.5t52 64.5t73.5 39.5t86.5 5t92 -38q37 -25 52 -65.5t13 -85.5t-20 -88t-47 -72q-17 -17 -40 -28.5t-47 -16.5zM335 599q1 -6 6 -7
t10 0.5t8.5 5.5t1.5 10q-8 26 -24 45q-17 20 -42.5 30.5t-51.5 13.5q-10 2 -23 0.5t-16 -10.5q-2 -5 0.5 -8.5t7.5 -4.5q7 -1 14 -0.5t14 -0.5q20 -2 40 -11t34 -25q8 -8 13 -17.5t8 -20.5zM189 513q5 -12 17 -15.5t25 -1t22.5 11t9.5 21.5q0 15 -9.5 28t-23.5 13
q-14 1 -23.5 -4.5t-14.5 -13.5t-6 -18.5t3 -20.5zM877 16q-32 -6 -65.5 -3.5t-63.5 15.5q-32 14 -56.5 42t-37.5 60q-18 45 -14.5 89.5t23 81.5t52 64.5t73.5 39.5t87 5t92 -38q37 -24 52 -65t12.5 -85.5t-20 -87.5t-46.5 -72q-18 -17 -41 -29t-47 -17zM957 284q1 -6 6 -7
t10.5 0.5t8.5 5.5t2 10q-8 25 -24 44q-17 20 -43 31t-52 14q-10 1 -22.5 0t-15.5 -11q-4 -11 8 -13q7 -1 13.5 -0.5t13.5 0.5q21 -2 41 -11.5t34 -24.5q7 -8 12.5 -17.5t7.5 -20.5zM812 197q4 -11 16.5 -15t25 -1t22.5 11.5t10 21.5q0 15 -9.5 27.5t-24.5 13.5
q-14 0 -23.5 -5t-14.5 -13.5t-5.5 -19t3.5 -20.5z" />
    <glyph glyph-name="ampersand" unicode="&#x26;" horiz-adv-x="722" 
d="M488 17q-39 -24 -85 -35.5t-94 -12.5t-95 8.5t-88 28.5q-61 28 -89 77.5t-27 105.5t29.5 113t79.5 100q-32 36 -40 79.5t3 87.5t38.5 84t66.5 67q34 24 76.5 32.5t85.5 3t81 -25t63 -51.5q29 -37 31 -79.5t-14.5 -85.5t-47 -82t-66.5 -69q24 -23 48 -45t50 -43
q14 28 19 59t13 62q10 39 38.5 55t59.5 11.5t56.5 -28.5t30.5 -64q3 -24 -3.5 -59.5t-19 -71.5t-29.5 -67t-35 -47l7.5 -6t17 -14.5t17.5 -17t10 -14.5q4 -20 -3 -39t-21.5 -34t-35 -23.5t-41.5 -6.5q-24 3 -45 18t-42 29zM448 603q7 -2 13 3t6 12q0 18 -9.5 34.5
t-24.5 30.5t-33.5 24t-35.5 15q-5 1 -12.5 2t-16 1.5t-16.5 0t-12 -3.5q-3 -2 -6.5 -4t-4.5 -6q-1 -5 2 -7t8.5 -2.5t11.5 -0.5t11 -1q15 -2 29 -9t27 -15q16 -10 29.5 -24t20.5 -31q2 -4 3 -7.5t3 -7.5q0 -2 2.5 -3t4.5 -1zM258 577q-10 -9 -11.5 -20t3 -22.5t12.5 -23
t17 -21.5l19.5 13t19 15t14.5 17t6 20q0 13 -9 21.5t-21.5 11.5t-26 0t-23.5 -11zM661 359q0 -5 4 -7t8.5 -1t7.5 4t3 8q-6 49 -50 68q-8 3 -17.5 5t-17.5 -2q-4 -2 -6.5 -5.5t0.5 -7.5q3 -3 7.5 -3t9.5 -1q19 -2 34 -20t17 -38zM252 179q7 -8 20.5 -10.5t29 -2t30.5 3
t26 4.5q-26 20 -49.5 41t-46.5 44q-6 -8 -11 -18.5t-7 -22t-0.5 -22t8.5 -17.5z" />
    <glyph glyph-name="quotesingle" unicode="'" horiz-adv-x="217" 
d="M177 514q-9 -17 -28 -28t-40 -11q-17 1 -33.5 6t-26.5 17q-12 15 -20 41t-11.5 55.5t-2.5 57t7 45.5q8 24 31 35.5t49.5 12.5t51 -7.5t34.5 -23.5q8 -12 11 -32t2.5 -41.5t-3 -42.5t-5.5 -35q-2 -13 -6.5 -25t-9.5 -24zM153 654q1 -5 4.5 -6.5t7 -0.5t6.5 4t2 8
q-2 26 -22 46.5t-49 18.5q-5 -1 -9 -5t-1 -9q2 -2 7 -2.5t7 -1.5q18 -5 31 -19t16 -33z" />
    <glyph glyph-name="quotesingle" unicode="&#x203a;" horiz-adv-x="217" 
d="M177 514q-9 -17 -28 -28t-40 -11q-17 1 -33.5 6t-26.5 17q-12 15 -20 41t-11.5 55.5t-2.5 57t7 45.5q8 24 31 35.5t49.5 12.5t51 -7.5t34.5 -23.5q8 -12 11 -32t2.5 -41.5t-3 -42.5t-5.5 -35q-2 -13 -6.5 -25t-9.5 -24zM153 654q1 -5 4.5 -6.5t7 -0.5t6.5 4t2 8
q-2 26 -22 46.5t-49 18.5q-5 -1 -9 -5t-1 -9q2 -2 7 -2.5t7 -1.5q18 -5 31 -19t16 -33z" />
    <glyph glyph-name="quotesingle" unicode="&#x2039;" horiz-adv-x="217" 
d="M177 514q-9 -17 -28 -28t-40 -11q-17 1 -33.5 6t-26.5 17q-12 15 -20 41t-11.5 55.5t-2.5 57t7 45.5q8 24 31 35.5t49.5 12.5t51 -7.5t34.5 -23.5q8 -12 11 -32t2.5 -41.5t-3 -42.5t-5.5 -35q-2 -13 -6.5 -25t-9.5 -24zM153 654q1 -5 4.5 -6.5t7 -0.5t6.5 4t2 8
q-2 26 -22 46.5t-49 18.5q-5 -1 -9 -5t-1 -9q2 -2 7 -2.5t7 -1.5q18 -5 31 -19t16 -33z" />
    <glyph glyph-name="quotesingle" unicode="&#x201b;" horiz-adv-x="217" 
d="M177 514q-9 -17 -28 -28t-40 -11q-17 1 -33.5 6t-26.5 17q-12 15 -20 41t-11.5 55.5t-2.5 57t7 45.5q8 24 31 35.5t49.5 12.5t51 -7.5t34.5 -23.5q8 -12 11 -32t2.5 -41.5t-3 -42.5t-5.5 -35q-2 -13 -6.5 -25t-9.5 -24zM153 654q1 -5 4.5 -6.5t7 -0.5t6.5 4t2 8
q-2 26 -22 46.5t-49 18.5q-5 -1 -9 -5t-1 -9q2 -2 7 -2.5t7 -1.5q18 -5 31 -19t16 -33z" />
    <glyph glyph-name="quotesingle" unicode="&#x201a;" horiz-adv-x="217" 
d="M177 514q-9 -17 -28 -28t-40 -11q-17 1 -33.5 6t-26.5 17q-12 15 -20 41t-11.5 55.5t-2.5 57t7 45.5q8 24 31 35.5t49.5 12.5t51 -7.5t34.5 -23.5q8 -12 11 -32t2.5 -41.5t-3 -42.5t-5.5 -35q-2 -13 -6.5 -25t-9.5 -24zM153 654q1 -5 4.5 -6.5t7 -0.5t6.5 4t2 8
q-2 26 -22 46.5t-49 18.5q-5 -1 -9 -5t-1 -9q2 -2 7 -2.5t7 -1.5q18 -5 31 -19t16 -33z" />
    <glyph glyph-name="parenleft" unicode="(" horiz-adv-x="456" 
d="M410 92q25 -16 30.5 -44t-4.5 -55t-33 -47.5t-55 -21.5q-64 -2 -118.5 27t-96 76.5t-69.5 107t-38 119.5q-15 85 -5.5 174t42.5 165.5t89.5 133t135.5 77.5q43 12 77 -3.5t52 -45.5t17.5 -68.5t-25.5 -74.5q-14 -20 -37 -31t-44 -24q-38 -22 -61 -60t-32 -82t-4 -90
t23 -85q22 -47 65.5 -83t90.5 -65zM373 710q6 -9 18 -5.5t12 14.5q0 5 -5.5 12.5t-8.5 11.5q-14 16 -34.5 25.5t-41.5 11.5q-45 3 -83 -21q-2 -2 -8.5 -7.5t-8.5 -8.5q-2 -5 -0.5 -8.5t6.5 -4.5q5 -2 15.5 4t15.5 8q20 9 42.5 9.5t42.5 -7.5q24 -10 38 -34z" />
    <glyph glyph-name="parenright" unicode=")" horiz-adv-x="454" 
d="M430 259q-9 -60 -35 -120.5t-66.5 -109t-94 -78.5t-117.5 -30q-32 0 -55.5 20t-34.5 47t-6 55t30 45q45 30 88 66.5t64 85.5q17 39 20.5 85t-6 90t-33.5 81t-63 58q-22 12 -45.5 22.5t-37.5 30.5q-26 35 -27.5 73.5t15.5 69t50.5 46.5t77.5 6q79 -19 137 -74t93 -130.5
t47 -164t-1 -174.5zM278 626q3 -5 9 -5.5t11 2.5t7 8t-1 10q-22 34 -53.5 61t-69.5 43q-35 16 -78 16q-12 0 -15.5 -9t8.5 -11l26 -4t26 -7q39 -13 73.5 -40.5t56.5 -63.5z" />
    <glyph glyph-name="asterisk" unicode="*" horiz-adv-x="379" 
d="M319 513q12 -27 4.5 -51.5t-25 -38.5t-40.5 -13t-42 24q-8 9 -14 19.5t-12 21.5q-6 -13 -12.5 -25t-16.5 -21q-11 -11 -26 -16t-30 -3q-17 2 -33.5 11.5t-24.5 24.5q-9 20 -5 44t16 42q3 4 7 9.5t9 12.5q-11 5 -22 11t-19 14q-11 10 -16 23.5t-5 27t6 25.5t19 20
q14 9 33 9t35 -6l8 -4t9 -4q0 11 0.5 22.5t3.5 22.5q4 16 13 24q10 8 22 12t25 6q21 3 39 -10q19 -14 25 -36q3 -11 3.5 -22t0.5 -22q7 5 14.5 9t15.5 6q20 5 43.5 -3.5t33.5 -25.5q8 -14 6.5 -33.5t-11.5 -33.5t-24.5 -24t-29.5 -18q5 -9 10 -17.5t7 -13.5zM214 703
q5 -5 11 -4t8 7q2 5 -2.5 10t-8.5 8q-11 8 -25.5 9t-26.5 -4q-7 -3 -7.5 -9.5t7.5 -6.5q2 0 4.5 1t4.5 2q23 3 35 -13z" />
    <glyph glyph-name="plus" unicode="+" horiz-adv-x="523" 
d="M347 249q-4 -27 -19 -46.5t-35.5 -28.5t-44 -6.5t-44.5 18.5q-11 8 -20 19t-14 25q-7 22 -5.5 45.5t2.5 46.5q-2 0 -3 -0.5t-3 -0.5q-23 -6 -47.5 -5.5t-46.5 9.5q-29 13 -44 39q-6 10 -9.5 24t-3.5 28t4 27.5t12 22.5q19 21 47.5 30t56.5 11q5 0 13.5 -0.5t18.5 -1.5
q-5 44 3 89q5 25 25 46t46 26q38 8 72 -9q12 -6 21.5 -16.5t14.5 -23.5q2 -7 3 -20.5t1 -29t-1 -31.5t-2 -28q19 2 37 3.5t36 1.5t36 -6t30 -19q16 -16 24.5 -40.5t1.5 -47.5q-6 -23 -22 -44t-39 -26t-47 -5.5t-47 -0.5h-10v-1q4 -18 4 -37t-2 -37zM287 567q-1 -7 2.5 -10.5
t8.5 -3.5t9.5 3t6.5 10q2 14 -1 28t-12 25q-11 13 -28 19.5t-33 1.5q-5 -2 -10.5 -5.5t-3.5 -8.5t13.5 -6t16.5 -3q15 -5 24 -19.5t7 -30.5zM457 436q4 -9 14.5 -7t12.5 12q1 11 -9.5 22t-19.5 16q-13 8 -28 10.5t-31 2.5q-5 -1 -14 -3t-12 -7q-4 -8 7 -9.5t21 -2.5
q14 -2 28.5 -6.5t23.5 -15.5q3 -4 7 -12z" />
    <glyph glyph-name="comma" unicode="," horiz-adv-x="253" 
d="M182 -84q-12 -5 -26 -3t-21 13q-5 9 -4.5 20t-0.5 21q-1 5 -7 11q-34 1 -63.5 17t-40.5 48q-11 30 -5 56t22.5 46t40.5 31.5t50 13t50.5 -10t42.5 -37.5q14 -21 17.5 -45.5t0.5 -50t-11 -51t-17 -47.5q-5 -10 -11.5 -19t-16.5 -13zM188 101q5 -1 10 3t6 9q1 4 -0.5 7.5
t-3.5 6.5q-7 11 -17.5 19t-22.5 13q-26 10 -53 2q-6 -2 -9 -7t2 -9q2 -2 7.5 -1.5t7.5 0.5q16 0 31.5 -7.5t25.5 -20.5q2 -3 4 -6.5t5 -6.5q2 -2 7 -2z" />
    <glyph glyph-name="hyphen" unicode="-" horiz-adv-x="492" 
d="M351 271q-57 -2 -113 -1t-113 3q-16 1 -32 4t-30 11q-25 11 -36 34q-9 18 -12 39.5t0 43.5t12.5 41.5t24.5 31.5q13 12 32 15q81 11 163 11.5t161 -19.5q14 -4 27.5 -11.5t22.5 -18.5q8 -11 12.5 -24t6.5 -27q4 -22 1.5 -46t-15.5 -42q-9 -12 -22.5 -21t-27.5 -14
q-14 -6 -30 -7.5t-32 -2.5zM407 420q5 -6 12 -5.5t12 5.5q9 8 2.5 17.5t-15.5 16.5q-14 10 -31 13.5t-34 5.5q-10 1 -25 1t-20 -8t4 -12t18 -5q14 -2 27.5 -3.5t26.5 -6.5q15 -7 23 -19z" />
    <glyph glyph-name="period" unicode="." horiz-adv-x="247" 
d="M221 48q-14 -28 -43.5 -40.5t-61.5 -10.5t-59.5 18t-37.5 46q-11 30 -5 56.5t22.5 46t40.5 31.5t50 13t50.5 -10.5t42.5 -37.5q16 -23 14.5 -54.5t-13.5 -57.5zM188 120q5 -1 10 3t6 9q1 4 -0.5 7.5t-3.5 6.5q-7 11 -17.5 19t-22.5 13t-26 5.5t-27 -4.5q-6 -2 -9 -7t2 -8
q2 -2 7.5 -2h7.5q16 0 31.5 -7t25.5 -20q2 -3 4 -6.5t5 -6.5q2 -2 7 -2z" />
    <glyph glyph-name="slash" unicode="/" horiz-adv-x="538" 
d="M193 -27q-18 -14 -43.5 -15.5t-47.5 6.5q-20 7 -38.5 17.5t-32.5 25.5q-11 12 -16 28t-5 33q0 18 4 36.5t9 35.5q38 118 86 230.5t111 220.5l18 30t19 31q16 26 32.5 52t37.5 49q8 8 17.5 15.5t20.5 12.5q19 8 40.5 7t41.5 -8q17 -6 33 -15t28 -22q7 -8 11.5 -17.5
t6.5 -19.5q3 -14 1.5 -29.5t-6.5 -29.5q-6 -21 -16.5 -41t-21.5 -40q-59 -101 -112 -204.5t-93 -214.5q-11 -32 -23 -64.5t-27 -63.5q-7 -14 -15.5 -25.5t-19.5 -20.5zM459 661q-2 -11 10 -13t17 8q5 11 4 23.5t-5 23.5q-9 20 -29 33q-12 8 -27 12t-29 3q-14 0 -16 -10
t12 -11q14 0 26.5 -6t21.5 -15t13 -21.5t2 -26.5z" />
    <glyph glyph-name="zero" unicode="0" horiz-adv-x="614" 
d="M580 222q-15 -56 -45 -101t-68.5 -77t-84 -49t-92.5 -16t-93 21t-86 62q-39 40 -62 106t-29.5 140.5t5 149.5t42.5 134q34 65 93 102.5t125 45t130.5 -16.5t109.5 -82q23 -30 40 -78.5t25.5 -106.5t6.5 -119t-17 -115zM454 565q2 -6 7.5 -7t10.5 1t8 7t1 11
q-12 32 -38 57.5t-57 39.5q-21 9 -43.5 13t-45.5 0q-8 -2 -14 -6.5t-2 -11.5q2 -4 9 -5.5t12 -1.5q30 -1 60 -12t53 -31q24 -22 39 -54zM254 454q-8 -25 -9.5 -56.5t1.5 -62t11.5 -57t21 -42.5t28.5 -18t36 16q14 13 20 38t7 53.5t-2 56.5t-6 46q-6 30 -20.5 49t-31 24
t-32 -6t-24.5 -41z" />
    <glyph glyph-name="one" unicode="1" horiz-adv-x="448" 
d="M365 -13q-14 -6 -37 -10t-48 -4.5t-47.5 2.5t-36.5 10q-15 8 -26.5 21.5t-16.5 29.5q-6 19 -6.5 39t-0.5 40q0 40 2 79.5t4 79.5l4 72t6 72q-19 -3 -38.5 -2.5t-36.5 7.5q-15 6 -29.5 18t-25.5 27.5t-17.5 32t-4.5 31.5q2 14 8.5 28t14.5 25q10 14 20.5 26.5t22.5 23.5
q26 26 53.5 51t59.5 43q20 11 43.5 17.5t46.5 4.5q24 -1 49 -6t45 -19q13 -10 22 -23.5t14 -28.5q8 -24 9 -49t-1 -50l-4 -84t-3 -84v-104t4 -104q2 -27 5 -54t3 -54q-1 -15 -2.5 -31t-8.5 -30t-19.5 -25t-26.5 -18zM348 625q1 -7 6 -9t11 -1t10.5 5.5t4.5 11.5
q-3 37 -37 55q-37 19 -80 17q-10 0 -24 -0.5t-16 -9.5q-2 -8 6 -10t16 -3q20 -2 39 -5t36 -12q24 -13 28 -39z" />
    <glyph glyph-name="two" unicode="2" horiz-adv-x="611" 
d="M314 -16q-31 0 -72 0.5t-80.5 6t-71.5 18.5t-44 39q-10 21 -13.5 51t0 60t14 57t28.5 44q25 24 53.5 41t57.5 32.5t57.5 33t52.5 41.5q30 31 54 57t33 46t-0.5 34t-45.5 20q-32 6 -48 -11.5t-24.5 -43.5t-13.5 -53t-15 -41q-12 -16 -30 -27t-39 -16.5t-43.5 -5.5t-41.5 6
t-31 22.5t-19 37t-9.5 43t-3.5 40.5q-3 70 31.5 126t91.5 90.5t129 44.5t146 -11q58 -17 98.5 -53t61 -82.5t19.5 -99.5t-26 -103q-35 -69 -91 -127t-119 -108q41 5 83.5 6.5t80.5 -14.5q17 -8 27 -23t14 -33.5t2.5 -38.5t-7.5 -37q-9 -27 -37 -41t-64 -20t-75 -7t-70 -1z
M493 617q3 -6 9 -7t12 1.5t9.5 8t0.5 11.5q-10 20 -25 38t-35 31q-55 37 -122 39q-10 0 -24.5 -1t-18.5 -10q-2 -5 3 -8t11 -3q39 -1 78.5 -13t68.5 -39q11 -11 19.5 -22.5t13.5 -25.5z" />
    <glyph glyph-name="three" unicode="3" horiz-adv-x="582" 
d="M307 -18q-57 -2 -112.5 11t-106.5 36q-21 9 -38.5 25t-28.5 35q-10 17 -11 37.5t3 39.5q3 15 10.5 31.5t18 29.5t24.5 21t30 8q23 -2 44.5 -8.5t42.5 -14.5q27 -9 56.5 -14t58.5 1q15 4 27.5 13.5t17.5 21.5t2.5 24t-17.5 20q-11 5 -22.5 7t-22.5 2q-22 2 -44.5 1
t-42.5 7q-19 7 -30 21t-14.5 31t0 36.5t12.5 36.5q12 23 29.5 27t37 2t37.5 -2.5t32 14.5q6 7 6 14t-5.5 12.5t-15.5 7t-23 -1.5q-23 -6 -47 -10t-47 -6q-18 -1 -36.5 0t-35.5 9q-18 9 -29.5 26t-17 38t-5 43t5.5 40q2 9 7 17t11 15q23 26 57.5 41t69.5 21q26 4 53 6.5
t53 2.5q20 1 40.5 -1t39.5 -9q33 -12 62 -34.5t47 -51.5q20 -33 26 -73t-3 -77q-5 -22 -14 -43t-23 -38q28 -27 50 -59.5t33.5 -68.5t10.5 -73.5t-17 -73.5q-10 -21 -21 -41t-26 -37q-34 -39 -75 -62q-28 -16 -60 -23.5t-64 -9.5zM410 611q4 -9 14 -8t15 9q4 7 -0.5 17
t-9.5 16q-17 26 -48 42q-27 14 -57.5 18.5t-59.5 2.5q-2 0 -8 -2t-8 -3q-6 -2 -7.5 -7.5t4.5 -7.5q9 -4 20 -6q29 -3 58 -9.5t54 -22.5q11 -7 19.5 -17.5t13.5 -21.5z" />
    <glyph glyph-name="four" unicode="4" horiz-adv-x="656" 
d="M482 -28q-22 0 -43 1.5t-41 9.5q-17 7 -31.5 19.5t-20.5 29.5q-8 27 -10 55.5t0 56.5q0 6 0.5 18.5t1 27t2 29.5t3.5 27q-24 -4 -48.5 -7.5t-49.5 -7.5q-35 -6 -71.5 -6.5t-70.5 11.5q-26 9 -47 29.5t-32 45.5t-12.5 53t0.5 55q2 33 7 66t13 65l12 45q3 20 7.5 40
t12.5 39q5 14 13.5 26.5t19.5 20.5q16 11 34.5 15t37.5 6q23 1 46.5 0t44.5 -10q26 -11 38 -29.5t15 -41t-1 -47t-11 -46.5q-7 -23 -14.5 -54.5t-7.5 -60t13 -47t48 -14.5q11 1 22 5.5t16 14.5q3 4 6 23t5.5 41t4 41t1.5 24q-2 28 -2.5 56t4.5 55q4 17 10 34t18 30
q18 20 48 27t57 2q12 -2 23.5 -5.5t21.5 -10.5q17 -12 29 -30t17 -38q7 -26 6.5 -53t-1.5 -54q-2 -42 -3.5 -82t-3.5 -82q-2 -44 -3 -87.5t4 -87.5q3 -29 7 -57.5t3 -57.5q-1 -14 -2.5 -28.5t-6.5 -28.5q-14 -33 -45 -50q-21 -11 -45.5 -15.5t-48.5 -5.5zM559 637
q7 -8 18.5 -4t13.5 15q2 8 -6 19.5t-14 16.5q-10 9 -22.5 14t-26.5 7q-13 2 -26 1.5t-27 -2.5q-8 -2 -15 -6.5t-2 -11.5q3 -4 13.5 -4h15.5q12 -2 24 -3.5t23 -6.5q15 -7 23 -19q2 -2 4 -8t4 -8zM256 639q3 -7 9.5 -8t12.5 1.5t9.5 8t0.5 12.5q-7 17 -23 28t-33 15
q-35 7 -73 1q-8 -2 -12.5 -9t3.5 -12q3 -2 13 -2.5t13 -0.5q14 -1 28.5 -2.5t27.5 -7.5q16 -7 24 -24z" />
    <glyph glyph-name="five" unicode="5" horiz-adv-x="550" 
d="M421 39q-35 -25 -75 -36.5t-81.5 -13t-83.5 6t-79 20.5q-22 7 -40 21q-19 14 -28.5 38t-6.5 47q2 13 7.5 25t11.5 23q8 17 24.5 31t35.5 16q11 2 22 -1t22 -8q14 -5 28.5 -10.5t29.5 -10.5q28 -10 53 -4q35 10 49 33.5t9.5 45.5t-27.5 36t-62 4q-30 -8 -59 -20t-60 -14
q-10 0 -20 2t-19 7t-16 13t-12 17q-16 27 -20 60.5t-3 65.5q3 64 15 125q3 14 8 39t12 52t16 50t20 32q8 6 17.5 8.5t19.5 2.5q14 0 27 -0.5t27 -1.5q56 -3 111.5 2t111.5 1q14 -1 27.5 -5t24.5 -12q14 -10 18 -26q3 -11 4 -22t1 -23q3 -60 -41 -103q-16 -15 -38 -21.5
t-44 -5.5q-18 0 -30 1.5t-22.5 3t-22.5 3.5t-29 5q-7 0 -9 -2q-4 -4 -7 -12t-5 -18t-2.5 -19t-0.5 -15q0 -5 0.5 -10t2.5 -10q1 -2 2.5 -1t3.5 2q30 11 64 12.5t67 -7t62.5 -25.5t50.5 -43q32 -40 46.5 -85t8.5 -91.5t-34.5 -91t-82.5 -83.5zM402 644q8 -5 15.5 -1.5
t11.5 11.5q3 4 0 10t-6 10q-12 14 -29 22t-35 9q-27 1 -54 -1.5t-54 -5.5q-1 -1 -4.5 -1.5t-4.5 -0.5q-8 0 -11.5 -6t2.5 -10q2 -2 11 -3.5t12 -2.5q26 -2 51 1.5t50 -1.5q17 -3 31 -14q2 -2 7 -8.5t7 -7.5zM443 330q3 -5 8.5 -5.5t10 2.5t6 7.5t-1.5 9.5q-21 33 -54 55
q-24 17 -53 22.5t-57 0.5q-7 -1 -11 -6.5t1 -9.5q4 -2 8 -2h9q14 0 27.5 -2t26.5 -7q24 -9 45 -26t35 -39z" />
    <glyph glyph-name="six" unicode="6" horiz-adv-x="616" 
d="M537 69q-30 -37 -69 -61t-82.5 -36t-89 -11t-88.5 15q-13 4 -25.5 8t-24.5 10q-29 14 -55 35t-46 47q-21 30 -32.5 66t-11.5 72q0 41 4.5 81t14.5 79q5 18 10 32q6 24 14.5 47.5t16.5 46.5q8 22 17 43.5t20 42.5q15 31 33 60.5t40 55.5l20 22t23 19q20 14 46 13.5
t47 -9.5q24 -10 44.5 -28.5t29.5 -42.5q5 -14 4 -30.5t-8 -30.5q-8 -20 -21.5 -37.5t-27.5 -34.5q-33 -42 -55 -88q76 9 134.5 -3t98.5 -40t61.5 -68.5t24 -86.5t-14 -94.5t-52.5 -93.5zM332 629q2 -11 11.5 -9.5t14.5 10.5q2 5 -1 13t-5 13q-11 23 -34.5 38t-48.5 21
q-12 3 -16.5 -6t7.5 -13q16 -5 30.5 -13.5t25.5 -21.5q13 -14 16 -32zM514 310q3 -6 8.5 -7.5t10.5 0.5t8 6.5t0 10.5q-14 32 -37 53q-26 23 -61.5 34.5t-68.5 5.5q-8 -2 -12 -8.5t4 -9.5q4 -2 8 -2h8q30 0 59.5 -13.5t49.5 -35.5q7 -8 13 -16t10 -18zM294 170q42 -9 68 5.5
t32 35.5t-11.5 40t-63.5 19q-27 0 -48 -12.5t-28 -29.5t4 -33.5t47 -24.5z" />
    <glyph glyph-name="seven" unicode="7" horiz-adv-x="484" 
d="M238 -7q-14 -7 -33 -8.5t-39 1t-38 9t-29 16.5q-14 12 -18 26q-2 8 -2.5 17t0.5 17q5 30 14.5 58.5t17.5 57.5q-14 2 -29 6.5t-26 13.5q-12 10 -19 25.5t-8.5 33t1 35t8.5 32.5q10 23 33.5 34t49.5 13q10 1 20 1t20 3q6 9 10 18t9 19q12 26 23.5 51t24.5 51
q-23 -5 -45 -11.5t-45 -10.5q-57 -9 -90.5 19t-31.5 88q1 20 4.5 40.5t12.5 38.5q7 14 17.5 27t24.5 22q14 8 29.5 11t32.5 2q23 -1 46 -1.5t46 -2.5q22 -1 43.5 -2t44.5 -1q25 1 50.5 1t48.5 -10q19 -8 33.5 -25.5t20.5 -37.5q5 -17 4.5 -34t-5.5 -34q-11 -45 -32 -87.5
t-41 -85.5q-7 -14 -13 -28.5t-7 -30.5q14 -8 29 -14t23 -19q8 -12 9.5 -27t0.5 -30q-2 -24 -9 -48t-22 -43q-12 -14 -32 -22q-14 -5 -28 -6.5t-28 -1.5q-4 0 -5 -1q-14 -27 -19 -57t-15 -59q-5 -16 -16 -29t-26 -20zM390 627q1 -6 6.5 -8t10.5 -0.5t8.5 6t2.5 10.5
q-2 13 -8.5 25.5t-17.5 20.5q-12 10 -28.5 15.5t-32.5 6.5q-25 0 -50 -2.5t-50 -6.5q-3 -1 -8.5 -4t-7.5 -5q-4 -5 0.5 -10t11.5 -6q14 -2 28.5 0t28.5 3q20 0 40.5 -1.5t39.5 -8.5q10 -5 16.5 -14.5t9.5 -20.5z" />
    <glyph glyph-name="eight" unicode="8" horiz-adv-x="642" 
d="M598 248q12 -62 -6.5 -110t-57.5 -81.5t-93.5 -51.5t-115 -19t-121.5 15.5t-112 52.5q-35 25 -48.5 60t-9.5 74t23 78t48 71q-48 26 -69 73t-18 99.5t29 103t71 83.5q33 24 78 36.5t94 16t96.5 -1.5t86.5 -17q72 -23 109.5 -70t42.5 -101.5t-21 -108t-81 -88.5
q24 -24 46 -52.5t29 -61.5zM533 582q4 -8 13.5 -7t14.5 9q4 8 -2.5 20t-11.5 20q-20 32 -57 53.5t-75 24.5q-10 1 -19.5 1.5t-18.5 -2.5q-7 -3 -9.5 -8.5t2.5 -10.5q3 -3 13.5 -4.5t15.5 -2.5q16 -2 29 -6q33 -9 62 -32t43 -55zM375 542q-24 17 -47.5 17.5t-41.5 -9
t-29.5 -25.5t-11.5 -31.5t12.5 -27t42.5 -11.5q26 0 48.5 8t35.5 21t12 28.5t-21 29.5zM264 223q19 -18 46 -23t50 1t35.5 22.5t2.5 40.5q-8 19 -24.5 27t-36 8.5t-39 -6.5t-32 -17.5t-14.5 -24.5t12 -28z" />
    <glyph glyph-name="nine" unicode="9" horiz-adv-x="614" 
d="M388 -26q-20 -14 -46 -13.5t-47 9.5q-24 10 -44.5 29t-29.5 43q-5 14 -3.5 30t7.5 30q8 20 21.5 38t27.5 35q16 20 30 42t25 45q-76 -10 -134.5 2.5t-98.5 40.5t-61.5 68.5t-24 86.5t14 94.5t52.5 93.5q30 37 69 61.5t82.5 36t89 10.5t89.5 -14q12 -4 24.5 -8.5
t24.5 -9.5q29 -15 55.5 -35.5t45.5 -47.5q21 -29 32.5 -65.5t11.5 -72.5q0 -40 -4 -80.5t-15 -79.5q-2 -8 -4.5 -15.5t-5.5 -15.5q-6 -24 -14 -47.5t-17 -46.5q-8 -23 -17 -44t-20 -42q-15 -32 -32.5 -61.5t-40.5 -55.5l-20 -22t-23 -19zM497 574q3 -6 8.5 -7.5t10.5 1t8 8
t1 11.5q-19 47 -59.5 80.5t-90.5 42.5q-6 1 -15.5 2t-19.5 1t-18.5 -1.5t-12.5 -6.5q-3 -3 -2 -7t6 -6q8 -2 15.5 -2t15.5 -2q28 -5 55 -17t49 -31q32 -27 49 -66zM320 547q-42 9 -68 -5.5t-32 -35.5t11.5 -39.5t63.5 -18.5q27 0 48 12.5t28 29t-4 33t-47 24.5z" />
    <glyph glyph-name="colon" unicode=":" horiz-adv-x="263" 
d="M232 350q-14 -28 -43 -40.5t-61 -10.5t-60 18t-38 46q-11 30 -5 56.5t22.5 46t40.5 31.5t50 13t51 -10.5t43 -37.5q16 -23 14 -54.5t-14 -57.5zM199 421q5 0 10.5 4t6.5 9q0 4 -1.5 7l-3.5 7q-6 11 -17 19t-22 13q-26 9 -54 1q-6 -2 -9 -7t2 -8q2 -2 7.5 -2h7.5
q16 0 32 -7t26 -20q2 -3 4 -6.5t4 -6.5q1 -2 3.5 -2t3.5 -1zM226 62q-14 -28 -43.5 -40.5t-61.5 -10.5t-59.5 18t-37.5 46q-11 30 -5 56.5t22.5 46t40.5 31.5t50 13t50.5 -10.5t42.5 -37.5q16 -23 14.5 -54.5t-13.5 -57.5zM193 133q5 0 10 4t6 9q1 4 -0.5 7l-3.5 7
q-14 22 -40 32q-25 9 -53 1q-6 -2 -9 -7t2 -8q2 -2 7.5 -2h7.5q16 0 31.5 -7t25.5 -20q2 -3 4 -6.5t5 -6.5q1 -2 3 -2t4 -1z" />
    <glyph glyph-name="semicolon" unicode=";" horiz-adv-x="265" 
d="M232 350q-14 -28 -43 -40.5t-61 -10.5t-60 18t-38 46q-11 30 -5 56.5t22.5 46t40.5 31.5t50 13t51 -10.5t43 -37.5q16 -23 14 -54.5t-14 -57.5zM199 421q5 0 10.5 4t6.5 9q0 4 -1.5 7l-3.5 7q-6 11 -17 19t-22 13q-26 9 -54 1q-6 -2 -9 -7t2 -8q2 -2 7.5 -2h7.5
q16 0 32 -7t26 -20q2 -3 4 -6.5t4 -6.5q1 -2 3.5 -2t3.5 -1zM187 -52q-12 -5 -26 -2.5t-21 13.5q-5 9 -4.5 19.5t-0.5 21.5q-1 3 -3 5.5t-4 5.5q-34 0 -63.5 16t-40.5 48q-11 30 -5 56.5t22.5 46t40.5 31.5t50 13t50.5 -10.5t42.5 -37.5q14 -21 17.5 -45.5t0.5 -50
t-11 -50.5t-17 -47q-5 -10 -11.5 -19t-16.5 -14zM193 133q5 0 10 4t6 9q1 4 -0.5 7l-3.5 7q-14 22 -40 32q-25 9 -53 1q-6 -2 -9 -7t2 -8q2 -2 7.5 -2h7.5q16 0 31.5 -7t25.5 -20q2 -3 4 -6.5t5 -6.5q1 -2 3 -2t4 -1z" />
    <glyph glyph-name="less" unicode="&#x3c;" horiz-adv-x="414" 
d="M325 60q-19 -8 -40 -6.5t-40 8.5q-30 11 -56.5 28.5t-52.5 37.5q-23 17 -44 35t-40 39q-16 18 -26.5 40t-13.5 45q-4 22 -0.5 44t12.5 41q17 33 38 63t46 57q6 8 13 14t13 14q14 16 29.5 31t32.5 29q16 13 33 25t37 18q12 4 25.5 5.5t26.5 -3.5q21 -8 39 -22t29 -34
q20 -36 8 -80q-4 -11 -10 -21t-14 -19q-26 -30 -56 -55.5t-55 -55.5q-3 -5 -6 -9t-5 -9q-1 -2 1 -5t4 -5q10 -11 21.5 -19.5t22.5 -16.5q17 -13 34 -25t33 -26q12 -9 20 -23q8 -17 7 -34q0 -13 -6 -29.5t-15 -31.5t-21 -27.5t-24 -17.5zM347 504q-2 -9 5 -12.5t15 1.5
q6 4 7 12t-2 14q-3 10 -12 22t-20.5 23t-24 19t-23.5 10t-18 -5q-5 -5 -2.5 -9.5t9.5 -6.5t16 -8.5t18 -15t16.5 -17.5t10.5 -15q2 -2 3.5 -6t1.5 -6z" />
    <glyph glyph-name="equal" unicode="=" horiz-adv-x="408" 
d="M282 385q-45 -2 -89 -1t-89 3q-13 1 -25.5 3.5t-23.5 7.5q-19 9 -28 28q-8 13 -10 30.5t0.5 34.5t10 32t19.5 25q10 9 25 12q63 9 127.5 9.5t127.5 -15.5q24 -7 39 -24q7 -8 10 -18.5t5 -21.5q2 -17 0.5 -36t-11.5 -33q-8 -10 -18 -16.5t-21 -11.5q-12 -5 -24.5 -6
t-24.5 -2zM326 503q3 -5 8.5 -4.5t10.5 4.5q7 5 1.5 13t-12.5 13q-11 8 -24 11t-27 4q-8 1 -19.5 1.5t-15.5 -6.5q-4 -6 3 -9.5t14 -4.5q11 -2 21.5 -2.5t21.5 -4.5q9 -4 18 -15zM291 162q-45 -2 -88.5 -1t-88.5 3q-13 1 -25.5 3.5t-23.5 7.5q-20 10 -29 27q-7 14 -9.5 31
t0 34t10 32.5t19.5 25.5q13 10 26 11q63 9 127.5 9.5t126.5 -15.5q25 -5 39 -24q7 -8 10 -18.5t5 -21.5q3 -17 1.5 -35.5t-12.5 -32.5q-7 -10 -17.5 -16.5t-21.5 -11.5t-23.5 -6t-25.5 -2zM335 279q4 -5 9.5 -4.5t10.5 4.5q7 6 1.5 14t-12.5 13q-11 8 -24 10.5t-27 4.5
q-8 1 -19.5 1t-15.5 -7q-4 -6 3 -9t14 -4q11 -2 21.5 -3t20.5 -5q12 -5 18 -15z" />
    <glyph glyph-name="greater" unicode="&#x3e;" horiz-adv-x="413" 
d="M168 62q-19 -7 -40 -8.5t-39 6.5q-12 5 -24 17.5t-21 27.5t-15 31.5t-7 29.5q0 9 1.5 17.5t6.5 16.5q7 13 19 23q17 14 33.5 26t33.5 25q12 8 23.5 16.5t20.5 19.5q2 2 4.5 5t1.5 5q-2 5 -5 9t-6 9q-26 30 -56 55.5t-55 55.5q-8 9 -14 19t-10 21q-13 41 7 80
q11 20 29.5 34t39.5 22q12 5 25.5 3.5t26.5 -5.5q20 -6 37 -18t33 -25q17 -14 32.5 -29t29.5 -31q6 -8 13 -14t13 -14q25 -27 46 -57t37 -63q10 -19 13 -41t0 -44q-3 -23 -13.5 -45t-26.5 -40q-19 -21 -40 -39t-44 -35q-26 -20 -53 -37.5t-57 -28.5zM257 435q3 -5 8 -5.5
t9.5 2.5t6.5 8t-1 10q-18 26 -40.5 49t-48.5 41q-14 11 -28.5 21t-31.5 16q-7 2 -12.5 -2t-2.5 -10q2 -2 3.5 -2.5t3.5 -2.5q36 -28 73.5 -56.5t60.5 -68.5z" />
    <glyph glyph-name="question" unicode="?" horiz-adv-x="546" 
d="M307 194q-25 -4 -51 -1.5t-49 11.5q-24 10 -35 30q-8 14 -10 29.5t0 30.5q3 38 18 71q5 11 11 22.5t15 19.5q17 16 37 27l40 22q10 5 20 9.5t18 11.5q9 9 16.5 21.5t6.5 25.5q0 12 -3 24t-9 22t-15 16t-21 5t-24 -6.5t-19 -15.5q-14 -18 -19.5 -40t-15.5 -42
q-6 -13 -14.5 -24t-20.5 -18q-21 -11 -45 -11.5t-46.5 7t-41.5 22.5t-30 36q-8 13 -9.5 28.5t-0.5 29.5q4 50 29.5 89t64.5 66.5t85.5 43t92.5 18.5q41 3 82 -9q25 -7 49 -17t44 -26q19 -14 32 -34t23 -41q9 -21 15.5 -43t8.5 -45q1 -29 -5 -60q-11 -42 -33.5 -77.5
t-55.5 -61.5q-7 -5 -13 -10t-11 -10q-8 -8 -16 -15t-13 -17q-5 -8 -6 -18t-3 -20q-5 -31 -26 -52q-9 -10 -21.5 -16t-25.5 -8zM445 625q2 -5 7 -6t9.5 1t7.5 6.5t1 9.5q-9 24 -28.5 45t-44.5 36t-53.5 22t-53.5 4q-8 -1 -15 -6t-2 -10q3 -4 14 -5.5t16 -2.5q26 -4 51.5 -12
t46.5 -24q14 -11 25 -26t19 -32zM321 -24q-26 -14 -58.5 -12.5t-56.5 17.5q-16 10 -26 26t-13.5 34t0.5 36.5t17 33.5q8 9 18 16.5t21 11.5q24 9 50 7t48 -16l12 -8t11 -9q11 -12 14.5 -28t3.5 -32q-1 -16 -6.5 -31t-14.5 -28q-9 -12 -20 -18zM319 62q2 -6 8.5 -6t10.5 5
q3 5 -1 14t-7 14q-5 10 -13.5 18t-19.5 13q-8 3 -17 4t-17 -1q-2 -1 -4.5 -3t-2.5 -4q-2 -8 6 -8.5t15 -2.5q34 -10 42 -43z" />
    <glyph glyph-name="at" unicode="@" horiz-adv-x="861" 
d="M663 -54q-41 -21 -86 -34t-92 -18.5t-94 -3.5t-92 13q-92 21 -154.5 81t-95 141.5t-34 175.5t28.5 184q21 61 58 112.5t84.5 90.5t103.5 64.5t115 36t118.5 5t114.5 -28.5q66 -29 114 -81.5t73.5 -117t26 -135.5t-29.5 -135q-19 -42 -52.5 -76.5t-71.5 -51.5t-74.5 -11.5
t-60.5 43.5q-29 -31 -66.5 -51t-76.5 -25.5t-75.5 5.5t-63.5 43q-25 29 -37 70t-11 84t14 84t37 71q26 32 62.5 51.5t76.5 25.5t80.5 -2.5t73.5 -32.5q18 -13 28 -33.5t13.5 -44.5t3 -49t-2.5 -47q16 0 25.5 10t14 25t5 33t-0.5 35q-4 39 -25 67.5t-53 46.5t-71 25t-78 4
q-80 -8 -133 -44t-85 -108q-16 -35 -23.5 -76.5t-4.5 -83.5t16.5 -80t40.5 -66q18 -19 42 -30.5t50.5 -17.5t54 -6.5t53.5 4.5q23 4 45.5 11l45 14t45.5 11.5t46 3.5q36 -2 57.5 -24.5t27 -52t-6.5 -59t-44 -45.5zM747 584q5 -1 10 2.5t6 8.5t-4.5 15.5t-7.5 15.5
q-15 28 -38.5 50t-50.5 39q-30 17 -64.5 27.5t-69.5 9.5q-12 -1 -14 -9.5t10 -10.5q39 -6 78 -20t71 -37q18 -14 33.5 -31t25.5 -38q2 -5 3.5 -9.5t5.5 -9.5q0 -2 2.5 -2.5t3.5 -0.5zM480 367q-17 6 -29.5 1t-20.5 -15.5t-10.5 -23t0.5 -22t11.5 -13.5t22.5 3
q10 5 19.5 15.5t14.5 21t4 20t-12 13.5z" />
    <glyph glyph-name="A" unicode="A" horiz-adv-x="658" 
d="M588 -18q-27 -19 -62 -24t-67 1q-8 2 -17 4t-17 7t-14.5 11.5t-10.5 14.5q-8 17 -8.5 35.5t-0.5 35.5v61q-8 1 -16 1.5t-13 1.5q-22 2 -43.5 4.5t-43.5 3.5h-2q-1 -15 -2 -29.5t-2 -29.5q-2 -19 -5.5 -37.5t-14.5 -34.5q-6 -10 -14.5 -17.5t-18.5 -12.5q-17 -8 -36.5 -11
t-39.5 -3q-14 1 -28 1.5t-28 5.5q-14 4 -27.5 12.5t-21.5 20.5q-11 16 -15.5 35.5t-6.5 39.5q-3 40 -2 80t5 80q2 17 3.5 33t3.5 33q3 42 9.5 83.5t17.5 82.5q14 52 36 101.5t57 91.5q42 50 103 73q25 9 53.5 11.5t57 -0.5t55 -12.5t49.5 -24.5q21 -14 39.5 -33t33.5 -40
q24 -35 42.5 -75t27.5 -82q12 -53 23 -108t16.5 -110.5t3.5 -110.5t-16 -107q-5 -19 -16 -35.5t-27 -27.5zM513 488q13 -2 20.5 6.5t3.5 21.5q-6 21 -14 41t-20 38q-17 22 -36 42q-3 3 -11.5 9t-18 12.5t-18.5 11.5t-13 7q-3 1 -11 4t-17 6t-17 5.5t-12 2.5q-8 1 -14.5 0
t-14.5 -2q-4 -1 -17 -2t-17 -3q-8 -3 -9.5 -10.5t6.5 -11.5q3 -2 10 -2.5t15 -0.5t15.5 -0.5t10.5 -0.5t10 -2.5t15 -5t15 -5.5t10 -4q3 -2 10.5 -6t15.5 -9.5t14.5 -10.5t9.5 -8q13 -14 25 -28.5t22 -31.5q7 -13 11 -27t9 -28q1 -3 5 -5.5t7 -2.5zM328 324h23t31 -2
q-1 7 -1.5 13t-1.5 12q-4 31 -12 54t-17.5 29.5t-21 -6t-22.5 -52.5l-6 -24t-5 -24h33z" />
    <glyph glyph-name="B" unicode="B" horiz-adv-x="676" 
d="M238 -41q-32 -2 -64.5 0t-61.5 13l-12 6t-16.5 8.5t-15.5 9t-10 7.5q-20 23 -24.5 52t-7.5 57q-5 54 -4 107t5 107q-1 23 -1.5 45t0.5 45q0 46 2 91.5t9 91.5q3 20 8 40.5t16 40.5q6 11 15.5 21t20.5 18q23 16 51.5 25t57.5 14q37 7 75 9t76 0q29 -1 57 -3.5t55 -10.5
q24 -7 47.5 -16t43.5 -22q24 -16 41 -40q19 -24 31 -52t13 -57q1 -30 -13 -60t-39 -52q-12 -11 -26.5 -20t-30.5 -17q20 -8 36.5 -18.5t29.5 -24.5q29 -28 46 -64.5t19 -74.5q3 -35 -10 -70q-11 -38 -40.5 -71t-64.5 -60q-26 -20 -56.5 -33t-62.5 -24q-19 -6 -38.5 -9
t-39.5 -4q-29 -2 -58.5 -3t-58.5 -2zM536 626q8 -2 16 3t7 14q-1 4 -8 10.5t-10 9.5q-17 17 -41 25.5t-48 13.5q-18 4 -35.5 8.5t-36.5 5.5q-8 0 -23 -0.5t-31.5 -1.5t-31.5 -3t-21 -5t-6.5 -8.5t4.5 -8.5q8 -4 16 -3.5t16 0.5q17 -1 35 -1h36q5 0 19 -2t18 -3
q19 -6 37.5 -10.5t36.5 -11.5q9 -3 17 -8.5t16 -10.5q2 -2 8.5 -7.5t9.5 -5.5zM283 552q-3 -14 -5 -27t-3 -27q25 -1 49 3.5t47 11.5q5 2 16 6t14 8q2 5 1 13t-3 13q-10 16 -31 21q-6 1 -17 2.5t-22 2t-21 -0.5t-16 -4q-4 -2 -6 -10zM277 311q-5 -5 -7 -17t-2 -25.5v-26
v-19.5q15 0 30 1t29 3q17 2 34 6.5t31 13.5q5 3 12.5 10t8.5 12q2 7 -5 16q-7 10 -21 17t-31 11t-34 5t-30 -1q-11 -2 -15 -6z" />
    <glyph glyph-name="C" unicode="C" horiz-adv-x="603" 
d="M392 -14q-53 -2 -105 9t-100 32q-31 14 -57.5 36t-47.5 49q-23 29 -37 63.5t-22 69.5q-24 92 -12 189q6 42 19 82t33 77q19 34 46 61.5t58 50.5q33 24 73 39t82 17q53 3 104 -14q21 -7 40.5 -18t36.5 -25q4 -3 8 -5t8 -6q20 -21 40 -43q12 -14 22.5 -29.5t14.5 -33.5
q4 -20 0.5 -40.5t-12.5 -38.5q-22 -41 -61 -72q-15 -12 -33 -20t-38 -9q-16 -2 -31.5 3t-29.5 13q-11 7 -20 16t-21 14q-10 5 -21.5 5.5t-22.5 -1.5q-9 -2 -15.5 -9t-10.5 -16.5t-6 -20t-3 -19.5q-2 -18 0 -35.5t7 -34.5q4 -14 11 -26t18 -20q17 -14 38.5 -21.5t43.5 -9.5
q22 -3 43.5 -1t44.5 4q13 1 26.5 0.5t25.5 -5.5q10 -3 18 -11t13 -17q7 -14 9 -29t3 -29q2 -27 -3.5 -55t-19.5 -51q-10 -16 -25 -27.5t-32 -18.5q-24 -9 -49 -13.5t-51 -5.5zM487 594q8 -7 18.5 -4t13.5 13q2 9 -8.5 18t-16.5 15q-14 14 -31 25t-35 17q-38 12 -76 18
q-14 2 -29.5 2t-29.5 -5q-10 -3 -23.5 -7t-13.5 -15q0 -6 4 -8t9.5 -1.5t12.5 2.5t13 3q9 2 18 2t18 -1q22 -3 43.5 -7.5t41.5 -12.5q17 -7 30 -18t27 -22q5 -3 5 -6q1 -3 4 -4.5t5 -3.5z" />
    <glyph glyph-name="D" unicode="D" horiz-adv-x="642" 
d="M254 -52q-35 -1 -70 0.5t-69 9.5q-14 3 -29.5 8t-27.5 12t-18.5 17.5t-2.5 24.5q1 5 1.5 9.5t0.5 9.5q-11 83 -13.5 165.5t-1.5 165.5q1 65 3 129t10 128q2 23 7 46t16 43q8 14 21 24.5t28 16.5q27 11 56 15.5t58 5.5q66 2 132 -17.5t117 -60.5q31 -25 57.5 -54t45.5 -63
q37 -68 51.5 -143.5t4.5 -152.5q-6 -51 -23.5 -100t-45.5 -92q-12 -18 -25.5 -34.5t-30.5 -30.5q-55 -48 -124 -66q-61 -14 -128 -16zM499 528q8 -5 17.5 -0.5t9.5 14.5q0 4 -3 11.5t-7 15t-8 14.5t-6 10q-3 5 -7 9t-8 9q-10 13 -20 25t-23 22q-32 26 -67.5 47t-75.5 27
q-4 1 -18 1.5t-18 -0.5q-8 -1 -11 -7t3 -10q2 -2 8 -3.5t12.5 -3t12 -3t8.5 -2.5q23 -5 45 -16.5t41 -25.5q11 -9 22.5 -16t20.5 -17q20 -20 37.5 -41t28.5 -47q2 -4 2.5 -7.5t3.5 -5.5zM268 233q12 -3 26 0t27.5 9.5t24.5 16t17 19.5q8 13 13 26.5t9 27.5q7 24 10 49.5
t-6 48.5q-6 15 -16 28.5t-24 22.5q-14 10 -34 11t-31 -11q-8 -9 -11.5 -22t-5.5 -26q-7 -50 -5.5 -100t6.5 -100z" />
    <glyph glyph-name="E" unicode="E" horiz-adv-x="578" 
d="M393 -21q-37 -6 -74 -11t-75 -3q-28 1 -55.5 5.5t-52.5 16.5q-35 16 -57 46q-15 20 -23 43.5t-14 47.5q-18 63 -21.5 129.5t-1.5 132.5q2 42 3 83.5t7 83.5q6 40 12.5 80t22.5 78q8 17 18 32t24 25q30 21 65 27.5t72.5 5t75 -7t72.5 -7.5q25 -2 49.5 -3t48.5 -6
q17 -4 32.5 -9t28.5 -16q15 -13 19 -29q3 -13 3.5 -26t-1.5 -26q-2 -18 -5.5 -35.5t-11.5 -34.5q-11 -22 -32 -34q-20 -12 -44.5 -15.5t-48.5 -3.5q-20 1 -39 2.5t-39 4.5q-13 3 -25.5 3.5t-24.5 0.5q-2 0 -3 -3t-2 -5q-2 -8 -3.5 -14.5t-0.5 -14.5q35 -5 71 -3.5t70 -8.5
q12 -4 22.5 -11.5t16.5 -18.5q8 -16 8.5 -34t0.5 -35q0 -30 -11 -58q-6 -17 -21.5 -29t-33.5 -16q-29 -7 -58 -3.5t-58 6.5q-5 2 -7 0q-3 -5 -5 -14.5t-3.5 -19.5t-1.5 -19t2 -15q4 -16 22.5 -17.5t34.5 0.5q27 5 54.5 10.5t54.5 10.5q9 2 18 3t18 0q7 -1 13.5 -1.5
t12.5 -2.5q15 -6 25 -21q11 -19 16.5 -40.5t8.5 -43.5q3 -20 3 -39.5t-8 -37.5q-13 -31 -43 -49q-27 -16 -58 -23.5t-63 -12.5zM384 700l26 -4t27 0q8 2 16.5 2.5t14.5 5.5q5 5 4 11.5t-8 8.5q-4 2 -18 0.5t-19 -1.5q-32 2 -62 9q-11 2 -31 7t-41.5 9t-41 5.5t-29.5 -3.5
q-6 -2 -8 -8t3 -10t11 -4t12 -1q14 -2 28 -5.5t28 -7.5q22 -6 43.5 -9t44.5 -5z" />
    <glyph glyph-name="F" unicode="F" horiz-adv-x="543" 
d="M260 -32q-20 -5 -40.5 -6t-41.5 0q-18 1 -37 3t-36 8q-15 5 -28 15.5t-21 23.5q-15 23 -21 51t-8 56q-2 32 -2.5 65t-0.5 66q2 64 3 127.5t7 127.5v2l-2 56t1 56q1 20 2.5 40.5t6.5 40.5q3 10 8.5 20t13.5 17q12 10 27 14.5t30 8.5q24 6 48.5 8.5t49.5 3.5q53 2 104.5 1
t104.5 -3q14 -1 29.5 -2t29.5 -6q28 -8 42 -32q7 -11 9 -23t4 -25q2 -21 0.5 -42t-4.5 -42q-2 -17 -9 -33t-21 -27t-32.5 -15.5t-36.5 -4.5q-26 -1 -52 2.5t-52 6.5q-5 1 -13 1.5t-11 -2.5q-5 -6 -5.5 -19.5t1.5 -21.5l3 -12t6 -10q6 -3 20.5 -4t31 -1t31.5 0.5t22 0.5
q16 0 33 -3q9 -2 16.5 -9t11.5 -15q7 -16 8.5 -32.5t2.5 -33.5q2 -19 1 -38t-6 -38q-4 -11 -10 -21.5t-16 -17.5q-13 -11 -35 -14q-25 -2 -50 -0.5t-51 -0.5q-2 -8 -1.5 -16t1.5 -16q3 -30 6.5 -60t3.5 -61q0 -19 -3.5 -38.5t-14.5 -36.5q-9 -14 -25 -24.5t-33 -15.5z
M394 680q9 -7 17 -2q5 3 11.5 6t9.5 9q3 8 -2 13.5t-13 5.5q-53 1 -105 4.5t-105 -3.5q-4 0 -10.5 -2t-13.5 -4.5t-13 -5t-9 -5.5q-6 -5 -3.5 -11.5t10.5 -6.5q10 -1 19 2t18 2q8 -1 15 0t15 0q40 0 79.5 -1t79.5 -1z" />
    <glyph glyph-name="G" unicode="G" horiz-adv-x="679" 
d="M667 294q13 -92 -13.5 -159.5t-78 -109t-120 -57.5t-139.5 -6.5t-137 45t-113 97.5q-28 37 -41.5 83t-15.5 93q-3 62 6 124.5t32 119.5q20 50 54.5 93t78.5 75q18 14 37.5 24t39.5 18q38 16 80.5 19.5t84.5 -1.5q43 -6 80 -22q17 -8 33.5 -19.5t32.5 -22.5q6 -5 10 -10.5
t9 -10.5q1 -1 2.5 -4t2.5 -4q13 -14 22 -30.5t13 -34.5q7 -29 -1.5 -58.5t-28.5 -50.5q-23 -24 -56.5 -36t-66.5 -14q-16 -2 -31.5 -1t-29.5 9q-8 4 -13 10.5t-8 14.5q-2 3 -3.5 11t-3 16.5t-4 15.5t-5.5 10q-6 5 -13 6t-15 -1.5t-15 -7t-13 -9.5q-13 -11 -20 -26.5
t-12 -32.5q-7 -24 -10 -48.5t-5 -49.5q-1 -22 0.5 -44t6.5 -44q3 -12 8.5 -23.5t13.5 -20.5q20 -20 47 -26q27 -8 56 -9t55 7q7 2 13.5 5t9.5 9q-5 1 -9 1h-9q-29 -2 -59 -1t-54 16q-9 6 -16.5 14t-12.5 18q-9 19 -11 40.5t3 42t17.5 37.5t30.5 28q16 10 34.5 13.5t36.5 5.5
q35 4 71.5 2.5t71.5 -6.5q17 -2 32 -10.5t25 -22.5q15 -19 22 -43t11 -47zM534 590q5 -4 13 -3.5t13 5.5q6 8 3 15q-19 27 -45.5 48t-55.5 37q-3 1 -11 3.5t-17 5t-17 4.5t-11 3q-7 2 -20 1t-18 -6q-5 -4 -5 -9t5 -8q2 -1 12 -1t12 -1q11 -3 21 -7t21 -7q6 -2 17.5 -9
t23.5 -15t22 -16t15 -13q2 -2 9 -9.5t9 -10.5q2 -2 2 -3.5t2 -3.5z" />
    <glyph glyph-name="H" unicode="H" horiz-adv-x="772" 
d="M718 18q-12 -21 -34 -32t-47.5 -13.5t-52.5 1.5t-49 12q-19 8 -33 25t-22 37q-5 11 -8 22t-5 22q-5 32 -5.5 64t-2.5 64v19q-14 -1 -27 -0.5t-26 -0.5q-36 -2 -72 3q-4 0 -8 0.5t-9 0.5q0 -32 -2 -65t-5 -65q-3 -23 -8 -46.5t-16 -43.5q-12 -22 -33.5 -32.5t-47 -13.5
t-52.5 1.5t-49 12.5q-19 8 -33.5 25t-22.5 37q-4 11 -7 22t-5 22q-5 32 -5.5 64t-2.5 64q-3 64 -3.5 127.5t-0.5 127.5v48.5t2 65.5t7 63.5t15 43.5q17 24 51.5 39t72 17t71 -11.5t50.5 -46.5q11 -24 14 -48q5 -35 5 -71.5t1 -72.5q0 -15 0.5 -30t1.5 -31q4 1 7.5 1h5.5
q32 4 63.5 6.5t63.5 0.5v22q0 17 0.5 48.5t2.5 65.5t7 63.5t14 43.5q17 25 51.5 40t72 16.5t71 -12t50.5 -46.5q11 -24 14 -48q5 -35 5 -71.5t1 -72.5q2 -99 5 -197t-8 -197q-3 -23 -7.5 -46.5t-15.5 -43.5zM247 618q0 -6 4.5 -9t10 -3t10.5 3t7 9q1 4 0.5 7t-1.5 7
q-3 23 -19.5 43t-39.5 28q-6 2 -11.5 4t-11.5 4q-11 5 -23.5 5t-24.5 -1q-8 -2 -11.5 -9.5t4.5 -10.5q3 -2 15.5 -3t15.5 -2q16 -5 30.5 -13.5t25.5 -20.5q5 -5 12 -18t7 -20zM664 617q-6 -10 3.5 -14.5t20.5 0.5q4 2 7.5 6t3.5 9q0 9 -4.5 20t-11 21.5t-14.5 19t-16 12.5
q-16 8 -33 15t-35 6q-4 -1 -14.5 -1.5t-13.5 -2.5q-6 -3 -7.5 -9.5t4.5 -9.5q4 -2 17 -2.5t17 -1.5q11 -3 20.5 -8t19.5 -10q14 -7 22 -21.5t14 -28.5z" />
    <glyph glyph-name="I" unicode="I" horiz-adv-x="376" 
d="M318 19q-13 -22 -37.5 -32.5t-53.5 -13.5t-59 1.5t-54 12.5q-21 8 -38 25t-25 37q-5 11 -8.5 21.5t-5.5 22.5q-5 32 -6 64t-3 64q-3 64 -3.5 127.5t-0.5 127.5v48.5t2.5 65.5t8 63.5t16.5 43.5q13 16 34.5 28.5t48 19.5t55 8t55 -4.5t48 -18.5t33.5 -35q13 -24 16 -48
q6 -36 6 -72t1 -72q2 -99 5 -197.5t-9 -196.5q-3 -23 -8.5 -46.5t-17.5 -43.5zM259 588q0 -7 4 -11.5t9.5 -5t10.5 2t8 9.5q2 5 -0.5 18.5t-3.5 18.5q-5 23 -19.5 42t-35.5 30q-15 8 -33 11.5t-35 0.5q-6 -2 -12.5 -2.5t-11.5 -5.5q-7 -8 1 -14q2 -2 7.5 -2.5t11.5 -1.5
t11 -1h8q18 -2 36 -12t28 -26q7 -11 11.5 -24t4.5 -27z" />
    <glyph glyph-name="J" unicode="J" horiz-adv-x="632" 
d="M351 -28q-39 -3 -78.5 3t-77.5 17q-64 19 -112 65q-40 41 -61 99t-19 115q1 22 9.5 43.5t23.5 38.5q13 14 28 26t32 20q20 8 42.5 10t44.5 0q16 -2 31.5 -6.5t27.5 -15.5q11 -9 15.5 -22.5t7.5 -26.5q1 -8 3 -22t4 -28.5t6 -27.5t10 -17q6 -5 14.5 -7t16.5 -1
q19 1 35.5 13.5t26.5 29.5q12 20 14.5 45.5t0.5 49.5q0 6 -1.5 15.5t-4 20t-6 20t-7.5 13.5t-13 6t-19 3t-19.5 1h-15.5q-35 -1 -70.5 -5t-70.5 -1q-14 1 -27 5t-24 13q-17 13 -25 33.5t-11 41.5q-5 32 -3.5 63.5t4.5 63.5q2 20 11 40t26 32q11 8 24.5 13t27.5 8
q40 9 81 9.5t83 -1.5q25 -2 49.5 -3.5t49.5 -0.5q20 1 39.5 2t39.5 -1q11 -2 19.5 -9t16.5 -15q12 -13 20 -28.5t13 -32.5q11 -39 16.5 -79.5t9.5 -81.5q8 -81 6.5 -161.5t-16.5 -159.5q-6 -34 -18.5 -66.5t-32.5 -59.5q-17 -23 -40 -40.5t-49 -30.5q-25 -12 -52.5 -19
t-55.5 -9zM498 618q1 -8 10 -9t15 5q4 3 7.5 6.5t4.5 8.5q1 3 -1 12.5t-3 12.5q-4 14 -13 26.5t-22 18.5q-14 8 -29 10.5t-30 4.5q-27 3 -55 5.5t-55 -2.5q-13 -2 -25.5 0t-25.5 -2q-7 -2 -10.5 -8t1.5 -11q7 -5 14.5 -7t15.5 -4q4 -1 13.5 -1.5t20.5 -1t21 -1t14 -0.5
q15 -1 30 -2.5t30 -2.5q14 -1 27 -3.5t24 -10.5q10 -8 14.5 -20t6.5 -24z" />
    <glyph glyph-name="K" unicode="K" horiz-adv-x="674" 
d="M230 -30q-26 -4 -51.5 -4.5t-50.5 3.5q-13 2 -25 7t-22 13q-11 9 -18.5 21.5t-12.5 25.5q-8 24 -10.5 49t-4.5 50q-5 100 -9.5 198t-1.5 198q1 28 2 55.5t5 55.5q2 17 6 33t13 30q11 17 29 26t37 15q29 10 60.5 13t62.5 -2q19 -3 37 -12.5t28 -26.5q9 -13 11.5 -29
t1.5 -31q-2 -21 -3.5 -41.5t-5.5 -41.5q27 29 54 57t54 57q16 17 31.5 33t35.5 27q13 8 29 10t29 -5q18 -10 34.5 -21.5t33.5 -24.5q17 -14 32.5 -31.5t23.5 -39.5q5 -14 3.5 -30t-6.5 -30q-5 -15 -13.5 -28t-18.5 -25q-27 -32 -58.5 -58.5t-62.5 -55.5q-14 -12 -27 -24.5
t-24 -26.5q-2 -2 -4.5 -6.5t-1.5 -6.5q2 -8 17 -19t23 -16q38 -27 77.5 -53.5t72.5 -61.5q10 -11 17 -25t9 -28q2 -16 -3.5 -36.5t-15.5 -40.5t-23.5 -37t-26.5 -26q-17 -11 -40 -10.5t-42 9.5q-54 26 -101.5 61.5t-91.5 76.5q1 -28 2 -55.5t-5 -54.5q-3 -13 -11 -24.5
t-19 -18.5q-14 -8 -30 -11.5t-31 -5.5zM227 652q2 -11 11.5 -14.5t19.5 2.5q8 5 9.5 15.5t-4.5 18.5q-8 11 -18.5 20t-23.5 11q-19 5 -38.5 3.5t-39.5 -4.5q-3 0 -12.5 -1t-12.5 -3q-5 -2 -7.5 -7t1.5 -10q2 -2 5 -2.5t6 -1.5q20 -4 40 -3t39 -4q10 -3 19 -12l3.5 -3.5
t2.5 -4.5zM602 608q2 -10 11.5 -11t16.5 5q10 9 4.5 24.5t-12.5 27.5q-5 7 -17 15t-26 15t-28 12.5t-22 8.5q-9 2 -20 3t-19 -4q-5 -3 -7 -8.5t3 -9.5q5 -3 10.5 -3.5t10.5 -2.5q16 -7 28 -13q11 -7 23.5 -12.5t23.5 -12.5q5 -4 11.5 -16t8.5 -18z" />
    <glyph glyph-name="L" unicode="L" horiz-adv-x="516" 
d="M289 -30q-27 -1 -54.5 -1t-53.5 5q-25 4 -49 14.5t-42 27.5q-18 18 -27.5 43t-14.5 50q-17 72 -20.5 145.5t-4.5 148.5q-2 64 -1 127.5t8 126.5q2 15 6 29.5t13 25.5q8 11 19 19t23 13q22 9 49.5 14t55.5 3t52 -11.5t39 -27.5q11 -14 16 -32.5t7 -36.5q2 -15 2 -30
t-1 -30q-4 -91 -12 -180t-11 -180q19 0 37 3t36 7q22 5 43 11t43 4q10 -1 19.5 -4t17.5 -10q6 -5 10 -11.5t7 -13.5q8 -17 11.5 -36t5.5 -39q2 -22 2 -44t-7 -43q-5 -15 -13.5 -28.5t-21.5 -22.5q-16 -11 -34 -16t-36 -9q-29 -6 -59.5 -8t-59.5 -3zM241 626q2 -11 12.5 -11
t17.5 8q6 8 2 21t-9 21q-16 24 -40 37.5t-53 12.5q-12 0 -25 -2t-22 -10q-9 -4 -7.5 -11t10.5 -5q5 2 18 2.5t18 -1.5q17 -4 32.5 -10.5t26.5 -17.5q16 -14 19 -34z" />
    <glyph glyph-name="M" unicode="M" horiz-adv-x="832" 
d="M250 -21q-21 -6 -47.5 -7t-53 3.5t-49 15t-34.5 28.5q-12 17 -17.5 37t-10.5 41q-5 29 -7.5 59t-4.5 60q-2 43 -3 86l-2 86q-1 60 1.5 118.5t13.5 117.5q4 20 10.5 40.5t17.5 38.5q6 11 14 20.5t19 16.5q15 9 33 12t36 3q31 -1 62 -11t53 -33q5 -5 8 -10.5t7 -10.5
q18 -26 32 -54.5t26 -58.5t24.5 -59.5t28.5 -56.5q2 -4 4 -7t4 -7q18 29 32 60.5t26.5 63t27 62.5t34.5 59q4 6 7.5 11.5t8.5 10.5q14 14 32 23.5t38.5 14.5t41.5 6t40 -3q28 -7 46 -26q17 -17 26.5 -39t15.5 -45q8 -32 11.5 -64t5.5 -64q4 -75 2.5 -150.5t-6.5 -150.5
q-2 -34 -4.5 -67.5t-10.5 -66.5q-4 -16 -9 -31.5t-15 -28.5q-16 -23 -41 -32q-41 -17 -82 -16q-23 1 -45.5 4t-41.5 16q-5 4 -9 9.5t-8 10.5q-16 22 -19 50.5t-1 54.5q4 38 10.5 75.5t15.5 74.5q-16 -27 -33 -53t-39 -49q-9 -8 -19.5 -16t-21.5 -12q-15 -7 -30 -2
q-17 5 -30.5 17.5t-24.5 25.5q-17 20 -31.5 42t-27.5 45q14 -57 21 -110q5 -29 6 -59t-7 -59q-6 -20 -21.5 -37.5t-35.5 -22.5zM717 631q2 -6 7.5 -7.5t11 1t9 7.5t2.5 11q-8 25 -28 42q-12 11 -27 18t-31 11q-7 1 -16.5 2t-19.5 0t-18.5 -4t-12.5 -8q-6 -8 -1 -14.5
t15 -5.5q14 1 31 -2t32.5 -9.5t28 -17.5t17.5 -24zM265 601q6 -4 12 -2.5t10 5.5t5 10t-2 12q-18 29 -44 53q-8 7 -19.5 13.5t-25 10.5t-26.5 4t-23 -4q-8 -4 -11 -11t5 -9l4 -2t5 -1q11 -2 23 -4t23 -8q13 -7 24 -17.5t20 -22.5q3 -3 9.5 -14t10.5 -13z" />
    <glyph glyph-name="N" unicode="N" horiz-adv-x="773" 
d="M258 -4q-17 -11 -38 -12t-41 0q-17 0 -33.5 1.5t-32.5 5.5q-18 5 -34.5 14.5t-27.5 25.5q-10 15 -15.5 33t-8.5 36q-10 54 -9 107.5t4 107.5q2 57 6 114t12 114q5 32 10.5 64t17.5 62q8 20 21 37.5t31 27.5q21 12 45 19t48 9q17 2 35.5 1t34.5 -9q17 -9 31 -24t24 -32
q19 -33 32.5 -69t27.5 -72q14 -39 29.5 -78t35.5 -76q7 66 5.5 132t-3.5 132q0 11 0.5 22t4.5 22t13.5 18.5t19.5 11.5q76 31 155 22q18 -2 35.5 -10.5t30.5 -22.5q8 -8 12.5 -17t7.5 -19q7 -21 9 -43l4 -44q7 -100 -4 -200.5t-30 -199.5q-6 -30 -14.5 -60.5t-22.5 -58.5
q-8 -16 -18 -31.5t-23 -26.5q-14 -13 -31.5 -21t-34.5 -12q-24 -5 -49 -5t-48 10q-13 6 -24 16.5t-19 22.5q-11 15 -19.5 31.5t-17.5 33.5q-23 44 -47 85.5t-50 82.5q-8 13 -16 24t-18 22q-2 2 -2 1t1 -3q14 -108 21 -212q1 -16 1.5 -31.5t-2.5 -30.5q-3 -14 -11.5 -27
t-20.5 -21zM674 647q6 -6 13 -6.5t12.5 3t7.5 10t-2 13.5q-11 19 -32 30t-42 14q-9 1 -22.5 1t-27.5 -1.5t-26 -5.5t-18 -11q-7 -8 0.5 -12.5t17.5 -3.5q14 2 28 3.5t28 -0.5q26 -2 45 -16q5 -4 9 -8.5t9 -9.5zM280 637q16 -2 26 9t-1 22q-23 23 -58 29t-66 -2q-7 -2 -22 -8
t-20 -12q-5 -5 -1 -9t11 -2q2 1 8.5 1.5t8.5 0.5q24 4 49.5 1t45.5 -16q3 -2 9.5 -7.5t9.5 -6.5z" />
    <glyph glyph-name="O" unicode="O" horiz-adv-x="679" 
d="M633 160q-18 -48 -50.5 -83t-74.5 -57.5t-90.5 -32t-99 -5.5t-99.5 21t-92 48q-35 24 -58 59t-37 75.5t-19.5 83.5t-4.5 83q1 66 17 132.5t49.5 122t88 95t132.5 51.5q79 12 142.5 -7.5t110 -62t75.5 -103.5t40 -131t3.5 -144.5t-33.5 -144.5zM520 564q3 -6 9 -7.5
t12 0.5t9.5 7t1.5 11q-8 23 -23.5 42.5t-34.5 35.5q-21 17 -46.5 30.5t-52.5 17.5q-9 2 -18 2.5t-18 -1.5q-5 -1 -8.5 -3.5t-8.5 -4.5q-7 -3 -6 -9.5t9 -5.5q1 0 4.5 -1t5.5 -1q7 -1 13.5 -1.5t13.5 -2.5q34 -8 65 -27.5t53 -46.5q6 -8 11.5 -16.5t8.5 -18.5zM277 402
q-3 -33 6 -66.5t26 -56t40 -28.5t49 17q16 14 25 42t10.5 59.5t-5 60.5t-21.5 46q-19 21 -41 22t-41 -11t-32.5 -35t-15.5 -50z" />
    <glyph glyph-name="P" unicode="P" horiz-adv-x="637" 
d="M275 -19q-12 -8 -34 -11.5t-46.5 -3.5t-47.5 2t-36 5q-23 5 -42 19q-11 8 -17 20.5t-8 26.5q-8 43 -12.5 86t-7.5 88v51q-3 64 -3 127q1 51 4 101t13 100q7 32 19 64t34 55q24 26 59 40.5t70 17.5q21 2 42.5 -0.5t42.5 -4.5q24 -2 48.5 -5t47.5 -10q56 -17 105 -52
q34 -26 61.5 -60.5t42.5 -74.5q14 -37 19 -77t5 -81q-1 -30 -7 -60.5t-24 -55.5q-31 -44 -79 -67q-23 -12 -47.5 -22t-50.5 -15q-21 -4 -43 -4.5t-44 -1.5q-5 0 -13.5 -0.5t-16.5 0.5q3 -33 4 -66t-2 -66q-2 -19 -11.5 -36.5t-24.5 -28.5zM506 573q9 -12 21 -5q5 3 8 8.5
t0 10.5q-22 35 -55 64.5t-71 44.5q-19 8 -38.5 12.5t-39.5 5.5q-3 0 -6 -1l-6 -2q-8 -2 -10 -8t5 -8l3 -3q3 -2 14.5 -4t14.5 -3q57 -14 102 -50q17 -13 32 -28t26 -34zM285 406q17 -7 31 -7q7 0 17 4.5t20.5 10.5t19 13t13.5 13q7 9 12 19.5t6 22.5q2 19 -8.5 38.5
t-27.5 30.5t-37 9t-30 -20q-9 -15 -12 -32.5t-5 -34.5t-1.5 -33.5t2.5 -33.5z" />
    <glyph glyph-name="Q" unicode="Q" horiz-adv-x="680" 
d="M566 -99q-14 -10 -31.5 -15.5t-34.5 -0.5q-6 2 -11.5 3t-11.5 4q-17 8 -32.5 19.5t-29.5 24.5q-7 7 -18 19.5t-20 26.5q-64 -5 -129 11.5t-121 57.5q-35 24 -58 59t-37 75.5t-19.5 83.5t-4.5 83q1 66 17 132.5t49.5 122t88 95t132.5 51.5q79 12 142.5 -7.5t110 -62
t75.5 -103.5t40 -131t3.5 -144.5t-33.5 -144.5q-11 -29 -27.5 -53.5t-37.5 -44.5q9 -5 18 -10.5t17 -11.5q16 -10 23 -25q6 -15 2.5 -31t-13 -31.5t-23 -29t-26.5 -22.5zM532 555q3 -7 9.5 -8t12 2t9 8.5t0.5 11.5q-14 32 -38 59.5t-53 45.5q-49 29 -106 32q-4 0 -10 -0.5
t-13 -1.5t-12.5 -3t-8.5 -4q-2 -2 -5 -3.5t-4 -3.5q-2 -5 0.5 -8t7.5 -2q5 -2 9.5 -2t9.5 -1q17 -1 32.5 -3.5t31.5 -8.5q40 -14 75.5 -42.5t52.5 -67.5zM368 306q7 -11 13 -21t13 -21l4 4q16 14 25 42t10.5 59.5t-5 60.5t-21.5 46q-19 21 -41 22t-41 -11t-32.5 -35
t-15.5 -50q-3 -31 5 -65q7 3 13.5 5.5t14.5 3.5q7 1 13.5 -1t12.5 -5q10 -6 17.5 -15t14.5 -19z" />
    <glyph glyph-name="R" unicode="R" horiz-adv-x="651" 
d="M275 -19q-12 -8 -34 -11.5t-46.5 -3.5t-47.5 2t-36 5q-23 5 -42 19q-11 8 -17 20.5t-8 26.5q-8 43 -12.5 86t-7.5 88v51q-3 64 -3 127q1 51 4 101t13 100q7 32 19 64t34 55q24 26 59 40.5t70 17.5q21 2 42.5 -0.5t42.5 -4.5q24 -2 48.5 -5t47.5 -10q56 -17 105 -52
q34 -26 61.5 -60.5t42.5 -74.5q14 -37 19 -77t5 -81q-1 -30 -7 -60.5t-24 -55.5q-31 -44 -79 -67q-5 -3 -10.5 -5.5t-10.5 -5.5q18 -14 38 -24.5t40 -18.5q12 -5 24 -8.5t21 -11.5q6 -5 9 -12t4 -15q1 -15 -4 -36t-14 -41.5t-20.5 -37.5t-24.5 -26q-11 -7 -26.5 -8t-32 1.5
t-32.5 8t-27 12.5q-82 49 -137 129q-2 3 -4.5 6.5t-4.5 7.5q2 -23 1.5 -45t-2.5 -45q-2 -19 -11.5 -36.5t-24.5 -28.5zM511 555q6 -2 11 -1t9 4t5 8t-2 10q-12 23 -28.5 43t-35.5 37q-23 21 -51.5 37t-59.5 21q-15 2 -31 2.5t-30 -4.5q-5 -2 -6 -7.5t4 -7.5q8 -3 17.5 -3.5
t18.5 -2.5q8 -1 14.5 -4t13.5 -5q15 -5 28.5 -12t26.5 -15q25 -16 46.5 -36.5t37.5 -46.5q2 -2 5.5 -8.5t6.5 -8.5zM285 406q17 -7 31 -7q7 0 17 4.5t20.5 10.5t19 13t13.5 13q7 9 12 19.5t6 22.5q2 19 -8.5 38.5t-27.5 30.5t-37 9t-30 -20q-9 -15 -12 -32.5t-5 -34.5
t-1.5 -33.5t2.5 -33.5z" />
    <glyph glyph-name="S" unicode="S" horiz-adv-x="606" 
d="M381 -11q-37 -4 -73.5 -3.5t-73.5 1.5q-26 0 -50.5 -0.5t-50.5 2.5q-22 2 -43 10.5t-38 22.5q-27 24 -30 58q-3 21 -3 43t8 42q3 10 10 18.5t15 16.5q32 24 76 29q30 4 61 6t61 0q37 -2 54.5 5.5t18 17.5t-14.5 19t-42 9q-42 -2 -83.5 5t-76.5 29q-22 14 -40 33.5
t-29 41.5q-14 26 -20 55t-5 58q1 48 16.5 97.5t53.5 82.5q38 32 98 47.5t123.5 18.5t120.5 -3t90 -18q37 -14 49.5 -43t12.5 -63q0 -18 -4 -36.5t-13 -34.5t-24 -28t-37 -16q-10 -2 -27.5 -2.5t-36.5 0t-36.5 0.5h-27.5q-32 -2 -45.5 -10t-11.5 -17.5t17 -17.5t40 -9
q11 0 27 -1.5t32.5 -3.5t31.5 -5t25 -7q49 -20 74 -61t32 -89.5t-2.5 -98.5t-29.5 -89q-13 -25 -34 -45.5t-46 -35.5q-22 -14 -47.5 -21.5t-51.5 -9.5zM470 660q4 -6 11 -7t12.5 2t8.5 9t0 13q-5 10 -13 17t-17 12q-26 14 -56 17t-59 1q-5 0 -18 -2.5t-17 -4.5
q-8 -4 -12 -11t3 -12q3 -2 9.5 -3t14 -1t15 0.5t11.5 0.5q14 0 29 -0.5t29 -3.5t27.5 -9.5t21.5 -17.5z" />
    <glyph glyph-name="T" unicode="T" horiz-adv-x="572" 
d="M347 -25q-45 -13 -94 -11t-91 22q-42 19 -53 65q-4 16 -5 31.5t-3 31.5q-4 48 -2 95t4 95q2 37 4 73.5t7 73.5q-15 1 -30 3t-29 8q-9 5 -17.5 12t-13.5 16q-20 29 -23 66.5t3 72.5q4 23 9.5 47t20.5 43q10 11 22.5 18t26.5 12q40 14 82.5 20t85.5 7.5t86.5 -0.5t85.5 -5
q24 -2 48 -3t47 -9q11 -4 21.5 -10t16.5 -16q9 -13 13.5 -27.5t6.5 -28.5q4 -27 1.5 -54t-10.5 -53q-5 -17 -13.5 -33.5t-22.5 -28.5q-8 -7 -17.5 -10.5t-19.5 -5.5q-15 -3 -30 -3h-30h-8.5t-8.5 -1q-5 -12 -5.5 -25.5t-1.5 -27.5q-2 -42 1 -84.5t6.5 -85t6.5 -85t2 -84.5
q-1 -14 -2 -27t-4 -26q-8 -28 -30 -47q-9 -8 -20.5 -13t-22.5 -8zM478 653q3 -5 8.5 -6t10.5 0.5t9 6t4 10.5q0 4 -4 10q-19 31 -54 44q-19 8 -39 11t-40 4q-17 1 -34 0t-33 -6q-5 -2 -6.5 -7.5t3.5 -7.5q1 -1 4 -3t5 -2q16 -5 33.5 -7t34.5 -3.5t34 -4.5t32 -10
q21 -10 32 -29z" />
    <glyph glyph-name="U" unicode="U" horiz-adv-x="674" 
d="M416 -15q-26 -5 -52 -6.5t-52 -0.5q-28 1 -56 8t-52 21q-31 18 -58.5 42t-48.5 53q-20 27 -34.5 58t-22.5 64q-15 57 -20 115.5t-7 118.5q-1 46 2.5 92.5t17.5 91.5q10 30 26 59.5t42 46.5q19 12 41 15.5t44 2.5q22 0 43.5 -7t39 -20t29 -30.5t12.5 -38.5q2 -32 -2 -63.5
t-9 -63.5q-8 -53 -12.5 -107t6.5 -106q4 -20 14.5 -28.5t23 -8t25.5 8t21 21.5q11 20 13 43.5t0 46.5q-2 30 -6.5 60.5t-8.5 60.5t-5.5 60.5t1.5 60.5q2 20 7.5 39t16.5 35q16 23 43 33q18 7 38 8t40 -2q23 -4 45.5 -15t38.5 -28q12 -13 19.5 -28.5t14.5 -32.5
q13 -32 18.5 -67.5t7.5 -70.5q1 -43 -1.5 -85.5t-4.5 -86.5q-2 -48 -10.5 -95.5t-25.5 -92.5q-14 -38 -37.5 -73t-55.5 -61q-23 -19 -51.5 -30.5t-57.5 -16.5zM245 632q2 -12 14 -11t18 12q2 4 0 13t-4 14q-6 17 -17.5 32t-26.5 25.5t-32 14.5t-35 0q-8 -2 -13.5 -7
t-0.5 -11q3 -2 12 -3.5t13 -2.5q26 -5 47 -27.5t25 -48.5zM572 631q5 -11 17.5 -8.5t13.5 14.5q1 4 -1 7.5t-3 7.5q-8 20 -23 36t-34 27q-15 9 -34 13.5t-36 0.5q-5 -2 -11.5 -5.5t-6.5 -9.5q0 -4 4.5 -6t10 -3t11.5 -1.5t10 -1.5q31 -9 54 -34q8 -8 15.5 -17t12.5 -20z" />
    <glyph glyph-name="V" unicode="V" horiz-adv-x="665" 
d="M385 -8q-28 -7 -57 -5t-56 10q-21 6 -39 18q-11 8 -20 19t-17 22q-27 42 -46.5 86.5t-35.5 91.5q-13 37 -24 73.5t-22 73.5q-1 3 -3 13.5t-4 13.5q-12 25 -26.5 65t-24.5 82t-11 81t13 63q8 13 21.5 23t27.5 16q23 10 48 13.5t51 3.5q22 1 44 -4.5t39 -19.5
q16 -13 25 -32.5t14 -39.5q10 -36 17 -72.5t16 -72.5q8 -32 18 -63l20 -62q8 28 17 55.5t17 55.5q14 47 28 93.5t31 92.5q10 28 27 45q7 7 19.5 11t26.5 6t27.5 2t22.5 -3q20 -6 39 -13t35 -20q17 -14 22.5 -36.5t3.5 -48t-9.5 -51.5t-16.5 -46q-18 -41 -35.5 -81t-31.5 -82
q-17 -48 -31.5 -96.5t-29.5 -96.5q-10 -34 -22 -67.5t-33 -62.5q-14 -19 -33 -34t-42 -20zM202 664q5 -7 12.5 -6.5t13.5 5t8 12t-4 13.5q-20 23 -51 31.5t-60 -0.5q-8 -2 -17 -8t-9 -14q-1 -8 6.5 -10t15.5 2q12 6 27 5t28 -6q17 -8 30 -24zM590 639q3 -16 20 -13
q6 2 11 7.5t4 11.5q-4 20 -18.5 38t-32.5 27q-8 3 -24.5 5.5t-24.5 -0.5q-6 -3 -10 -8t0 -11q2 -3 14 -5.5t16 -4.5q14 -8 28 -19.5t17 -27.5z" />
    <glyph glyph-name="W" unicode="W" horiz-adv-x="885" 
d="M309 -11q-31 -12 -66 -12t-65 14q-10 4 -19 9t-17 12q-18 16 -31.5 36t-22.5 42q-30 69 -44.5 142.5t-22.5 148.5q-4 45 -4.5 90t0.5 90v3q-2 19 -2 38t2 38q1 15 4.5 30t11.5 28q14 21 41 31t53 9q5 0 9 1t9 0q18 -1 36 -3.5t36 -7.5q12 -4 22.5 -12.5t18.5 -18.5
q11 -14 16.5 -29.5t7.5 -31.5q2 -12 1.5 -24.5t-1.5 -24.5q-2 -24 -5 -48t-5 -48q-1 -12 -3.5 -30.5t-5 -38.5t-5 -38.5t-3.5 -30.5q-3 -25 1.5 -39.5t13.5 -16t19 10t17 37.5q3 10 4 23t1 26.5t0.5 27t1.5 23.5q5 38 9 76t14 75q5 18 17 34.5t29 26.5q18 10 40.5 13.5
t44 0.5t41 -12.5t32.5 -25.5q11 -13 17.5 -29.5t9.5 -33.5q3 -21 2 -50t-2.5 -60t-2 -60t2.5 -50q5 -37 15 -53t19 -12.5t15 24.5t3 59q-2 22 -5 50t-5.5 56.5t-3.5 56.5t1 50t4.5 44t10.5 42q13 28 42 41q17 8 36.5 11.5t39.5 3.5q18 0 37 -3t34 -14q14 -10 25.5 -22.5
t17.5 -28.5q12 -31 15.5 -64t4.5 -65q0 -17 1 -32.5t0 -31.5q-2 -29 -4.5 -56.5t-6.5 -55.5q-1 -5 -2 -9t-2 -9q-4 -20 -7.5 -40t-8.5 -40q-12 -53 -32.5 -104.5t-53.5 -95.5q-17 -21 -39.5 -38t-48.5 -27q-24 -10 -50.5 -10t-51.5 7q-29 8 -54 25t-43 40q-31 39 -46 85
q-20 -52 -51 -94q-13 -16 -28.5 -30t-35.5 -21zM210 616q4 -11 16 -8t16 14q2 3 -0.5 9t-3.5 8q-13 27 -41.5 45.5t-57.5 20.5q-6 1 -12.5 1t-10.5 -5q-3 -4 -1 -8t7 -6q14 -5 28 -11t25 -14q12 -9 21 -20.5t14 -25.5zM790 619q2 -2 5.5 -2.5t6.5 -0.5q8 0 14.5 8.5
t1.5 15.5q-14 23 -37 37q-15 10 -33.5 14t-35.5 0q-6 -1 -18 -5.5t-15 -10.5q-2 -5 0 -9t7 -6q5 -1 9 0.5t9 1.5q9 1 18.5 0.5t17.5 -3.5q19 -6 35 -22zM505 561q2 -5 7 -6.5t10 0t9 5t4 9.5t-6.5 16t-9.5 15q-13 17 -33.5 28.5t-40.5 8.5q-5 0 -10.5 -3.5t-6.5 -8.5
q0 -4 3.5 -6t9 -3.5t11.5 -2.5t10 -3q14 -8 24.5 -21.5t18.5 -27.5z" />
    <glyph glyph-name="X" unicode="X" horiz-adv-x="693" 
d="M241 -32q-17 -8 -37.5 -7.5t-39.5 3.5q-38 6 -67 25q-17 11 -31.5 28t-20.5 37q-4 12 -3.5 25.5t3.5 25.5q13 45 33 87q11 25 26 48l30 46q5 8 14 19.5t4 19.5q-11 19 -23 37t-24 37q-26 39 -48 80t-39 85q-7 17 -10.5 35.5t-5.5 36.5q-2 20 6.5 41t22.5 36
q15 17 35.5 28.5t43.5 16.5q22 5 44 4t44 -6q5 -2 10.5 -3.5t10.5 -4.5q7 -4 12 -10t9 -13q14 -23 22 -47.5t16 -49.5q9 -32 20 -63t25 -61q25 51 50.5 100t55.5 97q12 20 28 38t36 29q12 7 29.5 6t35.5 -6t35 -13.5t28 -16.5q14 -9 25 -21t18 -26q14 -30 10 -60
q-6 -48 -36 -89q-12 -17 -26 -31t-27 -30q-21 -24 -38.5 -51t-28.5 -58q-4 -11 1 -23.5t12 -22.5q28 -39 61.5 -72.5t63.5 -71.5q15 -19 26 -42.5t9 -47.5q-2 -20 -14.5 -39.5t-30.5 -35.5t-39 -26.5t-41 -13.5q-35 -6 -67 4q-34 10 -55 35q-13 14 -23.5 29t-21.5 31
q-11 17 -21.5 35.5t-22.5 35.5q-2 -3 -3 -6.5t-3 -6.5q-11 -23 -21 -46.5t-23 -46.5q-11 -22 -26.5 -42t-37.5 -31zM611 615q2 -10 13 -9.5t16 10.5q3 6 2 14.5t-4.5 17t-8.5 16.5t-9 13q-13 16 -30.5 27.5t-36.5 19.5q-7 2 -18 4t-16 -4q-8 -8 2.5 -14t21.5 -11
q32 -16 52 -42q7 -9 10.5 -20t5.5 -22zM198 658q8 -7 18 -4t13 12q2 9 -7 16.5t-17 12.5q-20 11 -42.5 15t-44.5 0q-11 -2 -22 -4.5t-20 -9.5q-4 -2 -6.5 -5.5t0.5 -7.5q3 -3 10 -3q8 0 16.5 1.5t16.5 2.5q23 1 45.5 -5.5t39.5 -20.5z" />
    <glyph glyph-name="Y" unicode="Y" horiz-adv-x="729" 
d="M451 -31q-32 -6 -66 -5t-66 6q-23 3 -46 8t-40 19q-12 10 -18 25t-7 30q-2 34 0 68t5 68q2 17 5 45t10 55q-1 0 -3 2q-10 7 -18.5 15.5l-16.5 16.5q-20 20 -37 41.5t-35 42.5q-26 32 -51 63.5t-47 65.5q-16 25 -22 54t-3 58q2 19 13.5 36.5t25.5 31.5q9 9 19.5 15.5
t21.5 12.5q20 11 41 18t44 8q4 0 11.5 -1t16 -2t16.5 -3t11 -3q12 -5 21 -14t16 -20q14 -19 24.5 -40t19.5 -42.5l18 -43t20 -42.5l24 -42q12 25 23 50.5t24 50.5q19 36 44.5 70t60.5 58q12 8 26.5 13t28.5 4q17 0 33 -5.5t31 -13.5q29 -14 52.5 -35.5t39.5 -47.5
q13 -23 15 -51t-9 -51q-10 -20 -24.5 -38t-30.5 -35q-24 -24 -45 -50.5t-41 -53.5q-23 -30 -47 -59.5t-44 -61.5q-2 -5 -5 -10.5t-5 -10.5q3 -19 6.5 -37t7.5 -37q5 -27 11 -54.5t6 -55.5q0 -14 -2 -28t-10 -26q-8 -13 -22.5 -21.5t-30.5 -10.5zM71 679q3 -4 9 -2.5t10 3.5
q14 7 28 12.5t28 6.5q14 0 28 -9q9 -7 19.5 -4t13.5 14q2 5 -4 10t-11 7q-6 4 -13.5 5t-14.5 2q-22 2 -44 -5.5t-40 -20.5q-5 -4 -9 -9t0 -10zM663 602q2 -5 5.5 -8.5t8.5 -2.5q8 1 13 5.5t3 12.5q-2 7 -4.5 14t-6.5 14q-10 19 -26.5 34t-35.5 26q-14 8 -30.5 13t-32.5 3
q-9 -1 -13.5 -9t2.5 -13q2 -1 7 -2t7 -2q11 -3 22 -7t22 -9q20 -11 36 -29t23 -40z" />
    <glyph glyph-name="Z" unicode="Z" horiz-adv-x="552" 
d="M449 -17q-62 -5 -123 -7.5t-123 -1.5q-35 0 -69.5 8.5t-63.5 25.5q-17 11 -27 25q-9 14 -13.5 29.5t-5.5 31.5q-2 29 -1 58t9 56q5 18 13.5 35t19.5 34q19 30 42.5 56.5t48.5 52.5t50 51.5t46 54.5q-28 -5 -55.5 -9t-55.5 -8q-20 -2 -40 0t-37 11q-12 7 -21.5 17.5
t-15.5 22.5q-12 26 -15.5 55.5t1.5 57.5t20 51t41 37q14 7 29 10t31 4q73 5 145.5 5t144.5 -14q3 0 8 -2t11 -4t11 -4.5l7 -3.5q10 -5 18.5 -11.5t16.5 -14.5q14 -17 19 -42q4 -19 2 -38t-5 -38q-5 -28 -18 -54t-30 -49q-36 -46 -71.5 -91t-59.5 -97q-5 -11 -10 -22.5
t-8 -23.5q-1 -3 -1.5 -9t1.5 -8q4 -4 13.5 -5t14.5 0q12 1 29 3t35.5 3t36 2t28.5 1q26 0 46 -15q8 -8 13.5 -18.5t8.5 -21.5q9 -33 7.5 -69.5t-15.5 -68.5q-8 -18 -23 -30q-12 -10 -28 -13.5t-32 -4.5zM429 630q5 -7 13.5 -8t13.5 7q4 6 4 10q-2 8 -10 17t-18.5 17.5
t-21 15.5t-18.5 10q-25 10 -52 13t-54 1q-12 0 -24 -1t-23 -7q-6 -4 -6 -10q0 -9 9.5 -11t19.5 -3q26 -2 51 -4t51 -8q18 -5 36 -14t29 -25z" />
    <glyph glyph-name="bracketleft" unicode="[" horiz-adv-x="420" 
d="M279 -100q-24 -3 -49 -2t-49 6q-14 3 -28 8t-25 13q-22 15 -37 41q-14 24 -23.5 51t-15.5 55q-11 49 -17.5 97.5t-8.5 98.5q-2 53 -1 104.5t3 104.5q2 58 7 116t13 116q4 21 7.5 42.5t10.5 42.5q7 22 19.5 43.5t32.5 33.5q17 10 36 14t39 6q34 3 68 3.5t67 -7.5
q12 -2 23.5 -9t19.5 -15q8 -9 12 -20.5t6 -22.5q5 -23 3.5 -47t-14.5 -43q-8 -12 -19.5 -20t-24.5 -13q-16 -5 -32 -5t-33 2q-2 0 -4 -4q-10 -14 -14 -30t-7 -32q-5 -36 -6.5 -72t-1.5 -73q0 -51 0.5 -101t4.5 -101q3 -30 6 -59.5t13 -58.5q3 -10 8 -19.5t13 -17.5
q10 -8 23 -11.5t25 -7.5q17 -5 33.5 -12.5t25.5 -22.5q2 -3 4 -7q14 -20 17 -42t-3.5 -42.5t-21 -38t-36.5 -26.5q-17 -7 -34.5 -10.5t-34.5 -5.5zM332 791q3 -6 8.5 -7t10 1t7.5 6.5t0 10.5q-9 23 -27.5 36.5t-42.5 17.5q-26 3 -53 1t-53 -7q-5 -1 -11 -4t-7 -8q0 -5 5 -7
t10 -1q19 2 38 4.5t39 0.5q25 -1 51 -16q15 -9 25 -28z" />
    <glyph glyph-name="backslash" unicode="\" horiz-adv-x="538" 
d="M436 -36q-22 -8 -47.5 -6.5t-43.5 15.5q-11 9 -19.5 20.5t-15.5 25.5q-15 31 -27 63.5t-23 64.5q-40 111 -93 214.5t-112 204.5q-11 20 -21.5 40t-16.5 41q-5 14 -6.5 29.5t1.5 29.5q2 10 6.5 19.5t11.5 17.5q12 13 28 22t33 15q20 7 41.5 8t40.5 -7q11 -5 20.5 -12.5
t17.5 -15.5q21 -23 37.5 -49t32.5 -52q9 -16 18.5 -31t18.5 -30q63 -108 111 -220.5t86 -230.5q5 -17 9 -35.5t4 -36.5q0 -17 -5 -33t-16 -28q-14 -15 -32.5 -25.5t-38.5 -17.5zM173 672q3 -6 8.5 -6.5t10.5 1.5t8 7t1 11q-8 20 -24 36.5t-36 23.5q-16 5 -33 2.5t-31 -9.5
q-8 -4 -11.5 -12t4.5 -10q2 0 7.5 0.5t7.5 1.5q13 5 26.5 3.5t25 -8t21 -17.5t15.5 -24z" />
    <glyph glyph-name="bracketright" unicode="]" horiz-adv-x="420" 
d="M239 -96q-47 -10 -98 -4q-17 2 -34.5 5.5t-33.5 10.5q-22 9 -37 26.5t-21.5 38t-3.5 42.5t17 42q1 4 4 7q9 15 25.5 22.5t33.5 12.5q13 4 25.5 7.5t22.5 11.5q8 8 13 17.5t8 19.5q10 29 13 58.5t6 59.5q4 51 4.5 101t0.5 101q0 37 -1.5 73t-6.5 72q-2 16 -6.5 32
t-13.5 30q-4 4 -5 4q-16 -2 -32.5 -2t-31.5 5q-14 5 -25.5 13t-19.5 20q-12 19 -14 43t3 47q2 11 6 22.5t12 20.5q8 8 20 15t24 9q32 8 66.5 7.5t67.5 -3.5q20 -2 39 -6t36 -14q20 -12 32.5 -33.5t19.5 -43.5q7 -21 11 -42.5t7 -42.5q8 -58 13 -116t7 -116q2 -53 3 -104.5
t-1 -104.5q-2 -50 -8.5 -98.5t-17.5 -97.5q-6 -28 -15 -55t-23 -51q-15 -26 -37 -41q-12 -8 -26 -13t-28 -8zM290 780q2 -8 10 -7.5t13 7.5q2 5 -0.5 12.5t-4.5 12.5q-16 29 -40 47q-17 13 -41 15.5t-45 -2.5q-7 -2 -14 -6t-7 -11q0 -5 2.5 -7.5t7 -3t10 0.5t10.5 1
q8 1 16 -1l16 -4q26 -6 49 -24q13 -10 18 -30z" />
    <glyph glyph-name="asciicircum" unicode="^" horiz-adv-x="451" 
d="M229 563q-10 -26 -23.5 -53t-31 -47.5t-39 -30.5t-47.5 0q-45 17 -66 45.5t-6 74.5q6 19 23.5 47t40 55.5t46 51t41.5 32.5q29 15 65.5 18.5t63.5 -14.5q16 -10 38 -35.5t43.5 -56t38.5 -60.5t22 -48q8 -30 -2.5 -55t-32 -39.5t-49 -16t-54.5 14.5q-17 10 -26.5 23.5
t-16 28.5t-12.5 31.5t-16 33.5zM300 673q5 -10 15 -9t12 12q1 8 -8.5 19.5t-15.5 16.5q-14 11 -32 21q-12 7 -33 7.5t-32 -8.5q-5 -4 -6 -9.5t5 -7.5q5 -2 9 -1t8 1q23 3 45 -9.5t33 -32.5z" />
    <glyph glyph-name="underscore" unicode="_" horiz-adv-x="486" 
d="M348 -94q-57 -2 -113 -1t-113 3q-34 2 -62 15q-24 11 -36 34q-9 18 -12 39.5t0 43.5t12.5 41.5t24.5 31.5q13 12 32 15q81 11 163 11.5t161 -19.5q31 -7 50 -30q8 -11 12.5 -24t6.5 -27q4 -22 1.5 -46t-15.5 -42q-9 -12 -22.5 -20.5t-27.5 -14.5t-30 -7.5t-32 -2.5z
M404 55q5 -6 12 -5.5t12 5.5q9 8 2.5 17.5t-15.5 16.5q-14 10 -31 13.5t-34 5.5q-10 1 -25 1t-20 -8t4 -12t18 -5q14 -2 27.5 -3.5t26.5 -6.5q15 -7 23 -19z" />
    <glyph glyph-name="grave" unicode="`" horiz-adv-x="310" 
d="M234 488q-27 -3 -50 13q-12 8 -22.5 18t-21.5 19q-27 20 -52 42.5t-48 46.5q-8 8 -14.5 17.5t-10.5 20.5q-6 17 -4.5 35.5t9.5 35t21 30t30 21.5q13 7 27.5 9.5t28.5 1.5q17 -1 33 -9t30 -19q14 -10 24 -23t20 -27q17 -26 30.5 -53t24.5 -56q4 -11 7 -22.5t3 -23.5
q-1 -17 -9 -32.5t-21 -26.5q-8 -7 -16.5 -12t-18.5 -6zM161 725q7 -5 15 -1.5t9 11.5q1 7 -7 12.5t-13 9.5q-17 11 -38.5 14.5t-41.5 -2.5q-6 -2 -14 -6.5t-9 -10.5t5 -7.5t12 0.5q8 3 17 5t18 0q11 -2 21 -7t19 -11l3.5 -3.5z" />
    <glyph glyph-name="a" unicode="a" horiz-adv-x="656" 
d="M587 -18q-27 -19 -62 -24t-67 1q-8 2 -17 4t-17 7t-14.5 11.5t-10.5 14.5q-8 17 -8.5 35.5t-0.5 35.5v61q-8 1 -16 1.5t-13 1.5q-22 2 -43.5 4.5t-43.5 3.5h-2q-1 -15 -2 -29.5t-2 -29.5q-2 -19 -5.5 -37.5t-14.5 -34.5q-6 -10 -14.5 -17.5t-18.5 -12.5q-17 -8 -36.5 -11
t-39.5 -3q-14 1 -28 1.5t-28 5.5q-14 4 -27.5 12.5t-21.5 20.5q-11 16 -15.5 35.5t-6.5 39.5q-3 40 -2 80t5 80q2 17 3.5 33t3.5 33q3 42 9.5 83.5t17.5 82.5q14 52 36 101.5t57 91.5q42 50 103 73q25 9 53.5 11.5t57 -0.5t55 -12.5t49.5 -24.5q21 -14 39.5 -33t33.5 -40
q24 -35 42.5 -75t27.5 -82q12 -53 23 -108t16.5 -110.5t3.5 -110.5t-16 -107q-5 -19 -16 -35.5t-27 -27.5zM512 488q13 -2 20.5 6.5t3.5 21.5q-6 21 -14 41t-20 38q-17 22 -36 42q-3 3 -11.5 9t-18 12.5t-18.5 11.5t-13 7q-3 1 -11 4t-17 6t-17 5.5t-12 2.5q-8 1 -14.5 0
t-14.5 -2q-4 -1 -17 -2t-17 -3q-8 -3 -9.5 -10.5t6.5 -11.5q3 -2 10 -2.5t15 -0.5t15.5 -0.5t10.5 -0.5t10 -2.5t15 -5t15 -5.5t10 -4q3 -2 10.5 -6t15.5 -9.5t14.5 -10.5t9.5 -8q13 -14 25 -28.5t22 -31.5q7 -13 11 -27t9 -28q1 -3 5 -5.5t7 -2.5zM327 324h23t31 -2
q-1 7 -1.5 13t-1.5 12q-4 31 -12 54t-17.5 29.5t-21 -6t-22.5 -52.5l-6 -24t-5 -24h33z" />
    <glyph glyph-name="b" unicode="b" horiz-adv-x="673" 
d="M236 -41q-32 -2 -64.5 0t-61.5 13l-12 6t-16.5 8.5t-15.5 9t-10 7.5q-20 23 -24.5 52t-7.5 57q-5 54 -4 107t5 107q-1 23 -1.5 45t0.5 45q0 46 2 91.5t9 91.5q3 20 8 40.5t16 40.5q6 11 15.5 21t20.5 18q23 16 51.5 25t57.5 14q37 7 75 9t76 0q29 -1 57 -3.5t55 -10.5
q24 -7 47.5 -16t43.5 -22q24 -16 41 -40q19 -24 31 -52t13 -57q1 -30 -13 -60t-39 -52q-12 -11 -26.5 -20t-30.5 -17q20 -8 36.5 -18.5t29.5 -24.5q29 -28 46 -64.5t19 -74.5q3 -35 -10 -70q-11 -38 -40.5 -71t-64.5 -60q-26 -20 -56.5 -33t-62.5 -24q-19 -6 -38.5 -9
t-39.5 -4q-29 -2 -58.5 -3t-58.5 -2zM534 626q8 -2 16 3t7 14q-1 4 -8 10.5t-10 9.5q-17 17 -41 25.5t-48 13.5q-18 4 -35.5 8.5t-36.5 5.5q-8 0 -23 -0.5t-31.5 -1.5t-31.5 -3t-21 -5t-6.5 -8.5t4.5 -8.5q8 -4 16 -3.5t16 0.5q17 -1 35 -1h36q5 0 19 -2t18 -3
q19 -6 37.5 -10.5t36.5 -11.5q9 -3 17 -8.5t16 -10.5q2 -2 8.5 -7.5t9.5 -5.5zM281 552q-3 -14 -5 -27t-3 -27q25 -1 49 3.5t47 11.5q5 2 16 6t14 8q2 5 1 13t-3 13q-10 16 -31 21q-6 1 -17 2.5t-22 2t-21 -0.5t-16 -4q-4 -2 -6 -10zM275 311q-5 -5 -7 -17t-2 -25.5v-26
v-19.5q15 0 30 1t29 3q17 2 34 6.5t31 13.5q5 3 12.5 10t8.5 12q2 7 -5 16q-7 10 -21 17t-31 11t-34 5t-30 -1q-11 -2 -15 -6z" />
    <glyph glyph-name="c" unicode="c" horiz-adv-x="602" 
d="M392 -14q-53 -2 -105 9t-100 32q-31 14 -57.5 36t-47.5 49q-23 29 -37 63.5t-22 69.5q-24 92 -12 189q6 42 19 82t33 77q19 34 46 61.5t58 50.5q33 24 73 39t82 17q53 3 104 -14q21 -7 40.5 -18t36.5 -25q4 -3 8 -5t8 -6q20 -21 40 -43q12 -14 22.5 -29.5t14.5 -33.5
q4 -20 0.5 -40.5t-12.5 -38.5q-22 -41 -61 -72q-15 -12 -33 -20t-38 -9q-16 -2 -31.5 3t-29.5 13q-11 7 -20 16t-21 14q-10 5 -21.5 5.5t-22.5 -1.5q-9 -2 -15.5 -9t-10.5 -16.5t-6 -20t-3 -19.5q-2 -18 0 -35.5t7 -34.5q4 -14 11 -26t18 -20q17 -14 38.5 -21.5t43.5 -9.5
q22 -3 43.5 -1t44.5 4q13 1 26.5 0.5t25.5 -5.5q10 -3 18 -11t13 -17q7 -14 9 -29t3 -29q2 -27 -3.5 -55t-19.5 -51q-10 -16 -25 -27.5t-32 -18.5q-24 -9 -49 -13.5t-51 -5.5zM487 594q8 -7 18.5 -4t13.5 13q2 9 -8.5 18t-16.5 15q-14 14 -31 25t-35 17q-38 12 -76 18
q-14 2 -29.5 2t-29.5 -5q-10 -3 -23.5 -7t-13.5 -15q0 -6 4 -8t9.5 -1.5t12.5 2.5t13 3q9 2 18 2t18 -1q22 -3 43.5 -7.5t41.5 -12.5q17 -7 30 -18t27 -22q5 -3 5 -6q1 -3 4 -4.5t5 -3.5z" />
    <glyph glyph-name="d" unicode="d" horiz-adv-x="640" 
d="M252 -52q-35 -1 -70 0.5t-69 9.5q-14 3 -29.5 8t-27.5 12t-18.5 17.5t-2.5 24.5q1 5 1.5 9.5t0.5 9.5q-11 83 -13.5 165.5t-1.5 165.5q1 65 3 129t10 128q2 23 7 46t16 43q8 14 21 24.5t28 16.5q27 11 56 15.5t58 5.5q66 2 132 -17.5t117 -60.5q31 -25 57.5 -54t45.5 -63
q37 -68 51.5 -143.5t4.5 -152.5q-6 -51 -23.5 -100t-45.5 -92q-12 -18 -25.5 -34.5t-30.5 -30.5q-55 -48 -124 -66q-61 -14 -128 -16zM497 528q8 -5 17.5 -0.5t9.5 14.5q0 4 -3 11.5t-7 15t-8 14.5t-6 10q-3 5 -7 9t-8 9q-10 13 -20 25t-23 22q-32 26 -67.5 47t-75.5 27
q-4 1 -18 1.5t-18 -0.5q-8 -1 -11 -7t3 -10q2 -2 8 -3.5t12.5 -3t12 -3t8.5 -2.5q23 -5 45 -16.5t41 -25.5q11 -9 22.5 -16t20.5 -17q20 -20 37.5 -41t28.5 -47q2 -4 2.5 -7.5t3.5 -5.5zM266 233q12 -3 26 0t27.5 9.5t24.5 16t17 19.5q8 13 13 26.5t9 27.5q7 24 10 49.5
t-6 48.5q-6 15 -16 28.5t-24 22.5q-14 10 -34 11t-31 -11q-8 -9 -11.5 -22t-5.5 -26q-7 -50 -5.5 -100t6.5 -100z" />
    <glyph glyph-name="e" unicode="e" horiz-adv-x="576" 
d="M391 -21q-37 -6 -74 -11t-75 -3q-28 1 -55.5 5.5t-52.5 16.5q-35 16 -57 46q-15 20 -23 43.5t-14 47.5q-18 63 -21.5 129.5t-1.5 132.5q2 42 3 83.5t7 83.5q6 40 12.5 80t22.5 78q8 17 18 32t24 25q30 21 65 27.5t72.5 5t75 -7t72.5 -7.5q25 -2 49.5 -3t48.5 -6
q17 -4 32.5 -9t28.5 -16q15 -13 19 -29q3 -13 3.5 -26t-1.5 -26q-2 -18 -5.5 -35.5t-11.5 -34.5q-11 -22 -32 -34q-20 -12 -44.5 -15.5t-48.5 -3.5q-20 1 -39 2.5t-39 4.5q-13 3 -25.5 3.5t-24.5 0.5q-2 0 -3 -3t-2 -5q-2 -8 -3.5 -14.5t-0.5 -14.5q35 -5 71 -3.5t70 -8.5
q12 -4 22.5 -11.5t16.5 -18.5q8 -16 8.5 -34t0.5 -35q0 -30 -11 -58q-6 -17 -21.5 -29t-33.5 -16q-29 -7 -58 -3.5t-58 6.5q-5 2 -7 0q-3 -5 -5 -14.5t-3.5 -19.5t-1.5 -19t2 -15q4 -16 22.5 -17.5t34.5 0.5q27 5 54.5 10.5t54.5 10.5q9 2 18 3t18 0q7 -1 13.5 -1.5
t12.5 -2.5q15 -6 25 -21q11 -19 16.5 -40.5t8.5 -43.5q3 -20 3 -39.5t-8 -37.5q-13 -31 -43 -49q-27 -16 -58 -23.5t-63 -12.5zM382 700l26 -4t27 0q8 2 16.5 2.5t14.5 5.5q5 5 4 11.5t-8 8.5q-4 2 -18 0.5t-19 -1.5q-32 2 -62 9q-11 2 -31 7t-41.5 9t-41 5.5t-29.5 -3.5
q-6 -2 -8 -8t3 -10t11 -4t12 -1q14 -2 28 -5.5t28 -7.5q22 -6 43.5 -9t44.5 -5z" />
    <glyph glyph-name="f" unicode="f" horiz-adv-x="541" 
d="M257 -32q-20 -5 -40.5 -6t-41.5 0q-18 1 -37 3t-36 8q-15 5 -28 15.5t-21 23.5q-15 23 -21 51t-8 56q-2 32 -2.5 65t-0.5 66q2 64 3 127.5t7 127.5v2l-2 56t1 56q1 20 2.5 40.5t6.5 40.5q3 10 8.5 20t13.5 17q12 10 27 14.5t30 8.5q24 6 48.5 8.5t49.5 3.5q53 2 104.5 1
t104.5 -3q14 -1 29.5 -2t29.5 -6q28 -8 42 -32q7 -11 9 -23t4 -25q2 -21 0.5 -42t-4.5 -42q-2 -17 -9 -33t-21 -27t-32.5 -15.5t-36.5 -4.5q-26 -1 -52 2.5t-52 6.5q-5 1 -13 1.5t-11 -2.5q-5 -6 -5.5 -19.5t1.5 -21.5l3 -12t6 -10q6 -3 20.5 -4t31 -1t31.5 0.5t22 0.5
q16 0 33 -3q9 -2 16.5 -9t11.5 -15q7 -16 8.5 -32.5t2.5 -33.5q2 -19 1 -38t-6 -38q-4 -11 -10 -21.5t-16 -17.5q-13 -11 -35 -14q-25 -2 -50 -0.5t-51 -0.5q-2 -8 -1.5 -16t1.5 -16q3 -30 6.5 -60t3.5 -61q0 -19 -3.5 -38.5t-14.5 -36.5q-9 -14 -25 -24.5t-33 -15.5z
M391 680q9 -7 17 -2q5 3 11.5 6t9.5 9q3 8 -2 13.5t-13 5.5q-53 1 -105 4.5t-105 -3.5q-4 0 -10.5 -2t-13.5 -4.5t-13 -5t-9 -5.5q-6 -5 -3.5 -11.5t10.5 -6.5q10 -1 19 2t18 2q8 -1 15 0t15 0q40 0 79.5 -1t79.5 -1z" />
    <glyph glyph-name="g" unicode="g" horiz-adv-x="677" 
d="M666 294q13 -92 -13.5 -159.5t-78 -109t-120 -57.5t-139.5 -6.5t-137 45t-113 97.5q-28 37 -41.5 83t-15.5 93q-3 62 6 124.5t32 119.5q20 50 54.5 93t78.5 75q18 14 37.5 24t39.5 18q38 16 80.5 19.5t84.5 -1.5q43 -6 80 -22q17 -8 33.5 -19.5t32.5 -22.5q6 -5 10 -10.5
t9 -10.5q1 -1 2.5 -4t2.5 -4q13 -14 22 -30.5t13 -34.5q7 -29 -1.5 -58.5t-28.5 -50.5q-23 -24 -56.5 -36t-66.5 -14q-16 -2 -31.5 -1t-29.5 9q-8 4 -13 10.5t-8 14.5q-2 3 -3.5 11t-3 16.5t-4 15.5t-5.5 10q-6 5 -13 6t-15 -1.5t-15 -7t-13 -9.5q-13 -11 -20 -26.5
t-12 -32.5q-7 -24 -10 -48.5t-5 -49.5q-1 -22 0.5 -44t6.5 -44q3 -12 8.5 -23.5t13.5 -20.5q20 -20 47 -26q27 -8 56 -9t55 7q7 2 13.5 5t9.5 9q-5 1 -9 1h-9q-29 -2 -59 -1t-54 16q-9 6 -16.5 14t-12.5 18q-9 19 -11 40.5t3 42t17.5 37.5t30.5 28q16 10 34.5 13.5t36.5 5.5
q35 4 71.5 2.5t71.5 -6.5q17 -2 32 -10.5t25 -22.5q15 -19 22 -43t11 -47zM533 590q5 -4 13 -3.5t13 5.5q6 8 3 15q-19 27 -45.5 48t-55.5 37q-3 1 -11 3.5t-17 5t-17 4.5t-11 3q-7 2 -20 1t-18 -6q-5 -4 -5 -9t5 -8q2 -1 12 -1t12 -1q11 -3 21 -7t21 -7q6 -2 17.5 -9
t23.5 -15t22 -16t15 -13q2 -2 9 -9.5t9 -10.5q2 -2 2 -3.5t2 -3.5z" />
    <glyph glyph-name="h" unicode="h" horiz-adv-x="768" 
d="M716 18q-12 -21 -34 -32t-47.5 -13.5t-52.5 1.5t-49 12q-19 8 -33 25t-22 37q-5 11 -8 22t-5 22q-5 32 -5.5 64t-2.5 64v19q-14 -1 -27 -0.5t-26 -0.5q-36 -2 -72 3q-4 0 -8 0.5t-9 0.5q0 -32 -2 -65t-5 -65q-3 -23 -8 -46.5t-16 -43.5q-12 -22 -33.5 -32.5t-47 -13.5
t-52.5 1.5t-49 12.5q-19 8 -33.5 25t-22.5 37q-4 11 -7 22t-5 22q-5 32 -5.5 64t-2.5 64q-3 64 -3.5 127.5t-0.5 127.5v48.5t2 65.5t7 63.5t15 43.5q17 24 51.5 39t72 17t71 -11.5t50.5 -46.5q11 -24 14 -48q5 -35 5 -71.5t1 -72.5q0 -15 0.5 -30t1.5 -31q4 1 7.5 1h5.5
q32 4 63.5 6.5t63.5 0.5v22q0 17 0.5 48.5t2.5 65.5t7 63.5t14 43.5q17 25 51.5 40t72 16.5t71 -12t50.5 -46.5q11 -24 14 -48q5 -35 5 -71.5t1 -72.5q2 -99 5 -197t-8 -197q-3 -23 -7.5 -46.5t-15.5 -43.5zM245 618q0 -6 4.5 -9t10 -3t10.5 3t7 9q1 4 0.5 7t-1.5 7
q-3 23 -19.5 43t-39.5 28q-6 2 -11.5 4t-11.5 4q-11 5 -23.5 5t-24.5 -1q-8 -2 -11.5 -9.5t4.5 -10.5q3 -2 15.5 -3t15.5 -2q16 -5 30.5 -13.5t25.5 -20.5q5 -5 12 -18t7 -20zM662 617q-6 -10 3.5 -14.5t20.5 0.5q4 2 7.5 6t3.5 9q0 9 -4.5 20t-11 21.5t-14.5 19t-16 12.5
q-16 8 -33 15t-35 6q-4 -1 -14.5 -1.5t-13.5 -2.5q-6 -3 -7.5 -9.5t4.5 -9.5q4 -2 17 -2.5t17 -1.5q11 -3 20.5 -8t19.5 -10q14 -7 22 -21.5t14 -28.5z" />
    <glyph glyph-name="i" unicode="i" horiz-adv-x="371" 
d="M315 19q-13 -22 -37.5 -32.5t-53.5 -13.5t-59 1.5t-54 12.5q-21 8 -38 25t-25 37q-5 11 -8.5 21.5t-5.5 22.5q-5 32 -6 64t-3 64q-3 64 -3.5 127.5t-0.5 127.5v48.5t2.5 65.5t8 63.5t16.5 43.5q13 16 34.5 28.5t48 19.5t55 8t55 -4.5t48 -18.5t33.5 -35q13 -24 16 -48
q6 -36 6 -72t1 -72q2 -99 5 -197.5t-9 -196.5q-3 -23 -8.5 -46.5t-17.5 -43.5zM256 588q0 -7 4 -11.5t9.5 -5t10.5 2t8 9.5q2 5 -0.5 18.5t-3.5 18.5q-5 23 -19.5 42t-35.5 30q-15 8 -33 11.5t-35 0.5q-6 -2 -12.5 -2.5t-11.5 -5.5q-7 -8 1 -14q2 -2 7.5 -2.5t11.5 -1.5
t11 -1h8q18 -2 36 -12t28 -26q7 -11 11.5 -24t4.5 -27z" />
    <glyph glyph-name="j" unicode="j" horiz-adv-x="629" 
d="M350 -28q-39 -3 -78.5 3t-77.5 17q-64 19 -112 65q-40 41 -61 99t-19 115q1 22 9.5 43.5t23.5 38.5q13 14 28 26t32 20q20 8 42.5 10t44.5 0q16 -2 31.5 -6.5t27.5 -15.5q11 -9 15.5 -22.5t7.5 -26.5q1 -8 3 -22t4 -28.5t6 -27.5t10 -17q6 -5 14.5 -7t16.5 -1
q19 1 35.5 13.5t26.5 29.5q12 20 14.5 45.5t0.5 49.5q0 6 -1.5 15.5t-4 20t-6 20t-7.5 13.5t-13 6t-19 3t-19.5 1h-15.5q-35 -1 -70.5 -5t-70.5 -1q-14 1 -27 5t-24 13q-17 13 -25 33.5t-11 41.5q-5 32 -3.5 63.5t4.5 63.5q2 20 11 40t26 32q11 8 24.5 13t27.5 8
q40 9 81 9.5t83 -1.5q25 -2 49.5 -3.5t49.5 -0.5q20 1 39.5 2t39.5 -1q11 -2 19.5 -9t16.5 -15q12 -13 20 -28.5t13 -32.5q11 -39 16.5 -79.5t9.5 -81.5q8 -81 6.5 -161.5t-16.5 -159.5q-6 -34 -18.5 -66.5t-32.5 -59.5q-17 -23 -40 -40.5t-49 -30.5q-25 -12 -52.5 -19
t-55.5 -9zM497 618q1 -8 10 -9t15 5q4 3 7.5 6.5t4.5 8.5q1 3 -1 12.5t-3 12.5q-4 14 -13 26.5t-22 18.5q-14 8 -29 10.5t-30 4.5q-27 3 -55 5.5t-55 -2.5q-13 -2 -25.5 0t-25.5 -2q-7 -2 -10.5 -8t1.5 -11q7 -5 14.5 -7t15.5 -4q4 -1 13.5 -1.5t20.5 -1t21 -1t14 -0.5
q15 -1 30 -2.5t30 -2.5q14 -1 27 -3.5t24 -10.5q10 -8 14.5 -20t6.5 -24z" />
    <glyph glyph-name="k" unicode="k" horiz-adv-x="672" 
d="M228 -30q-26 -4 -51.5 -4.5t-50.5 3.5q-13 2 -25 7t-22 13q-11 9 -18.5 21.5t-12.5 25.5q-8 24 -10.5 49t-4.5 50q-5 100 -9.5 198t-1.5 198q1 28 2 55.5t5 55.5q2 17 6 33t13 30q11 17 29 26t37 15q29 10 60.5 13t62.5 -2q19 -3 37 -12.5t28 -26.5q9 -13 11.5 -29
t1.5 -31q-2 -21 -3.5 -41.5t-5.5 -41.5q27 29 54 57t54 57q16 17 31.5 33t35.5 27q13 8 29 10t29 -5q18 -10 34.5 -21.5t33.5 -24.5q17 -14 32.5 -31.5t23.5 -39.5q5 -14 3.5 -30t-6.5 -30q-5 -15 -13.5 -28t-18.5 -25q-27 -32 -58.5 -58.5t-62.5 -55.5q-14 -12 -27 -24.5
t-24 -26.5q-2 -2 -4.5 -6.5t-1.5 -6.5q2 -8 17 -19t23 -16q38 -27 77.5 -53.5t72.5 -61.5q10 -11 17 -25t9 -28q2 -16 -3.5 -36.5t-15.5 -40.5t-23.5 -37t-26.5 -26q-17 -11 -40 -10.5t-42 9.5q-54 26 -101.5 61.5t-91.5 76.5q1 -28 2 -55.5t-5 -54.5q-3 -13 -11 -24.5
t-19 -18.5q-14 -8 -30 -11.5t-31 -5.5zM225 652q2 -11 11.5 -14.5t19.5 2.5q8 5 9.5 15.5t-4.5 18.5q-8 11 -18.5 20t-23.5 11q-19 5 -38.5 3.5t-39.5 -4.5q-3 0 -12.5 -1t-12.5 -3q-5 -2 -7.5 -7t1.5 -10q2 -2 5 -2.5t6 -1.5q20 -4 40 -3t39 -4q10 -3 19 -12l3.5 -3.5
t2.5 -4.5zM600 608q2 -10 11.5 -11t16.5 5q10 9 4.5 24.5t-12.5 27.5q-5 7 -17 15t-26 15t-28 12.5t-22 8.5q-9 2 -20 3t-19 -4q-5 -3 -7 -8.5t3 -9.5q5 -3 10.5 -3.5t10.5 -2.5q16 -7 28 -13q11 -7 23.5 -12.5t23.5 -12.5q5 -4 11.5 -16t8.5 -18z" />
    <glyph glyph-name="l" unicode="l" horiz-adv-x="517" 
d="M286 -30q-27 -1 -54.5 -1t-53.5 5q-25 4 -49 14.5t-42 27.5q-18 18 -27.5 43t-14.5 50q-17 72 -20.5 145.5t-4.5 148.5q-2 64 -1 127.5t8 126.5q2 15 6 29.5t13 25.5q8 11 19 19t23 13q22 9 49.5 14t55.5 3t52 -11.5t39 -27.5q11 -14 16 -32.5t7 -36.5q2 -15 2 -30
t-1 -30q-4 -91 -12 -180t-11 -180q19 0 37 3t36 7q22 5 43 11t43 4q10 -1 19.5 -4t17.5 -10q6 -5 10 -11.5t7 -13.5q8 -17 11.5 -36t5.5 -39q2 -22 2 -44t-7 -43q-5 -15 -13.5 -28.5t-21.5 -22.5q-16 -11 -34 -16t-36 -9q-29 -6 -59.5 -8t-59.5 -3zM238 626q2 -11 12.5 -11
t17.5 8q6 8 2 21t-9 21q-16 24 -40 37.5t-53 12.5q-12 0 -25 -2t-22 -10q-9 -4 -7.5 -11t10.5 -5q5 2 18 2.5t18 -1.5q17 -4 32.5 -10.5t26.5 -17.5q16 -14 19 -34z" />
    <glyph glyph-name="m" unicode="m" horiz-adv-x="828" 
d="M248 -21q-21 -6 -47.5 -7t-53 3.5t-49 15t-34.5 28.5q-12 17 -17.5 37t-10.5 41q-5 29 -7.5 59t-4.5 60q-2 43 -3 86l-2 86q-1 60 1.5 118.5t13.5 117.5q4 20 10.5 40.5t17.5 38.5q6 11 14 20.5t19 16.5q15 9 33 12t36 3q31 -1 62 -11t53 -33q5 -5 8 -10.5t7 -10.5
q18 -26 32 -54.5t26 -58.5t24.5 -59.5t28.5 -56.5q2 -4 4 -7t4 -7q18 29 32 60.5t26.5 63t27 62.5t34.5 59q4 6 7.5 11.5t8.5 10.5q14 14 32 23.5t38.5 14.5t41.5 6t40 -3q28 -7 46 -26q17 -17 26.5 -39t15.5 -45q8 -32 11.5 -64t5.5 -64q4 -75 2.5 -150.5t-6.5 -150.5
q-2 -34 -4.5 -67.5t-10.5 -66.5q-4 -16 -9 -31.5t-15 -28.5q-16 -23 -41 -32q-41 -17 -82 -16q-23 1 -45.5 4t-41.5 16q-5 4 -9 9.5t-8 10.5q-16 22 -19 50.5t-1 54.5q4 38 10.5 75.5t15.5 74.5q-16 -27 -33 -53t-39 -49q-9 -8 -19.5 -16t-21.5 -12q-15 -7 -30 -2
q-17 5 -30.5 17.5t-24.5 25.5q-17 20 -31.5 42t-27.5 45q14 -57 21 -110q5 -29 6 -59t-7 -59q-6 -20 -21.5 -37.5t-35.5 -22.5zM715 631q2 -6 7.5 -7.5t11 1t9 7.5t2.5 11q-8 25 -28 42q-12 11 -27 18t-31 11q-7 1 -16.5 2t-19.5 0t-18.5 -4t-12.5 -8q-6 -8 -1 -14.5
t15 -5.5q14 1 31 -2t32.5 -9.5t28 -17.5t17.5 -24zM263 601q6 -4 12 -2.5t10 5.5t5 10t-2 12q-18 29 -44 53q-8 7 -19.5 13.5t-25 10.5t-26.5 4t-23 -4q-8 -4 -11 -11t5 -9l4 -2t5 -1q11 -2 23 -4t23 -8q13 -7 24 -17.5t20 -22.5q3 -3 9.5 -14t10.5 -13z" />
    <glyph glyph-name="n" unicode="n" horiz-adv-x="770" 
d="M256 -4q-17 -11 -38 -12t-41 0q-17 0 -33.5 1.5t-32.5 5.5q-18 5 -34.5 14.5t-27.5 25.5q-10 15 -15.5 33t-8.5 36q-10 54 -9 107.5t4 107.5q2 57 6 114t12 114q5 32 10.5 64t17.5 62q8 20 21 37.5t31 27.5q21 12 45 19t48 9q17 2 35.5 1t34.5 -9q17 -9 31 -24t24 -32
q19 -33 32.5 -69t27.5 -72q14 -39 29.5 -78t35.5 -76q7 66 5.5 132t-3.5 132q0 11 0.5 22t4.5 22t13.5 18.5t19.5 11.5q76 31 155 22q18 -2 35.5 -10.5t30.5 -22.5q8 -8 12.5 -17t7.5 -19q7 -21 9 -43l4 -44q7 -100 -4 -200.5t-30 -199.5q-6 -30 -14.5 -60.5t-22.5 -58.5
q-8 -16 -18 -31.5t-23 -26.5q-14 -13 -31.5 -21t-34.5 -12q-24 -5 -49 -5t-48 10q-13 6 -24 16.5t-19 22.5q-11 15 -19.5 31.5t-17.5 33.5q-23 44 -47 85.5t-50 82.5q-8 13 -16 24t-18 22q-2 2 -2 1t1 -3q14 -108 21 -212q1 -16 1.5 -31.5t-2.5 -30.5q-3 -14 -11.5 -27
t-20.5 -21zM672 647q6 -6 13 -6.5t12.5 3t7.5 10t-2 13.5q-11 19 -32 30t-42 14q-9 1 -22.5 1t-27.5 -1.5t-26 -5.5t-18 -11q-7 -8 0.5 -12.5t17.5 -3.5q14 2 28 3.5t28 -0.5q26 -2 45 -16q5 -4 9 -8.5t9 -9.5zM278 637q16 -2 26 9t-1 22q-23 23 -58 29t-66 -2q-7 -2 -22 -8
t-20 -12q-5 -5 -1 -9t11 -2q2 1 8.5 1.5t8.5 0.5q24 4 49.5 1t45.5 -16q3 -2 9.5 -7.5t9.5 -6.5z" />
    <glyph glyph-name="o" unicode="o" horiz-adv-x="678" 
d="M633 160q-18 -48 -50.5 -83t-74.5 -57.5t-90.5 -32t-99 -5.5t-99.5 21t-92 48q-35 24 -58 59t-37 75.5t-19.5 83.5t-4.5 83q1 66 17 132.5t49.5 122t88 95t132.5 51.5q79 12 142.5 -7.5t110 -62t75.5 -103.5t40 -131t3.5 -144.5t-33.5 -144.5zM520 564q3 -6 9 -7.5
t12 0.5t9.5 7t1.5 11q-8 23 -23.5 42.5t-34.5 35.5q-21 17 -46.5 30.5t-52.5 17.5q-9 2 -18 2.5t-18 -1.5q-5 -1 -8.5 -3.5t-8.5 -4.5q-7 -3 -6 -9.5t9 -5.5q1 0 4.5 -1t5.5 -1q7 -1 13.5 -1.5t13.5 -2.5q34 -8 65 -27.5t53 -46.5q6 -8 11.5 -16.5t8.5 -18.5zM277 402
q-3 -33 6 -66.5t26 -56t40 -28.5t49 17q16 14 25 42t10.5 59.5t-5 60.5t-21.5 46q-19 21 -41 22t-41 -11t-32.5 -35t-15.5 -50z" />
    <glyph glyph-name="p" unicode="p" horiz-adv-x="635" 
d="M272 -19q-12 -8 -34 -11.5t-46.5 -3.5t-47.5 2t-36 5q-23 5 -42 19q-11 8 -17 20.5t-8 26.5q-8 43 -12.5 86t-7.5 88v51q-3 64 -3 127q1 51 4 101t13 100q7 32 19 64t34 55q24 26 59 40.5t70 17.5q21 2 42.5 -0.5t42.5 -4.5q24 -2 48.5 -5t47.5 -10q56 -17 105 -52
q34 -26 61.5 -60.5t42.5 -74.5q14 -37 19 -77t5 -81q-1 -30 -7 -60.5t-24 -55.5q-31 -44 -79 -67q-23 -12 -47.5 -22t-50.5 -15q-21 -4 -43 -4.5t-44 -1.5q-5 0 -13.5 -0.5t-16.5 0.5q3 -33 4 -66t-2 -66q-2 -19 -11.5 -36.5t-24.5 -28.5zM503 573q9 -12 21 -5q5 3 8 8.5
t0 10.5q-22 35 -55 64.5t-71 44.5q-19 8 -38.5 12.5t-39.5 5.5q-3 0 -6 -1l-6 -2q-8 -2 -10 -8t5 -8l3 -3q3 -2 14.5 -4t14.5 -3q57 -14 102 -50q17 -13 32 -28t26 -34zM282 406q17 -7 31 -7q7 0 17 4.5t20.5 10.5t19 13t13.5 13q7 9 12 19.5t6 22.5q2 19 -8.5 38.5
t-27.5 30.5t-37 9t-30 -20q-9 -15 -12 -32.5t-5 -34.5t-1.5 -33.5t2.5 -33.5z" />
    <glyph glyph-name="q" unicode="q" horiz-adv-x="679" 
d="M566 -99q-14 -10 -31.5 -15.5t-34.5 -0.5q-6 2 -11.5 3t-11.5 4q-17 8 -32.5 19.5t-29.5 24.5q-7 7 -18 19.5t-20 26.5q-64 -5 -129 11.5t-121 57.5q-35 24 -58 59t-37 75.5t-19.5 83.5t-4.5 83q1 66 17 132.5t49.5 122t88 95t132.5 51.5q79 12 142.5 -7.5t110 -62
t75.5 -103.5t40 -131t3.5 -144.5t-33.5 -144.5q-11 -29 -27.5 -53.5t-37.5 -44.5q9 -5 18 -10.5t17 -11.5q16 -10 23 -25q6 -15 2.5 -31t-13 -31.5t-23 -29t-26.5 -22.5zM532 555q3 -7 9.5 -8t12 2t9 8.5t0.5 11.5q-14 32 -38 59.5t-53 45.5q-49 29 -106 32q-4 0 -10 -0.5
t-13 -1.5t-12.5 -3t-8.5 -4q-2 -2 -5 -3.5t-4 -3.5q-2 -5 0.5 -8t7.5 -2q5 -2 9.5 -2t9.5 -1q17 -1 32.5 -3.5t31.5 -8.5q40 -14 75.5 -42.5t52.5 -67.5zM368 306q7 -11 13 -21t13 -21l4 4q16 14 25 42t10.5 59.5t-5 60.5t-21.5 46q-19 21 -41 22t-41 -11t-32.5 -35
t-15.5 -50q-3 -31 5 -65q7 3 13.5 5.5t14.5 3.5q7 1 13.5 -1t12.5 -5q10 -6 17.5 -15t14.5 -19z" />
    <glyph glyph-name="r" unicode="r" horiz-adv-x="647" 
d="M272 -19q-12 -8 -34 -11.5t-46.5 -3.5t-47.5 2t-36 5q-23 5 -42 19q-11 8 -17 20.5t-8 26.5q-8 43 -12.5 86t-7.5 88v51q-3 64 -3 127q1 51 4 101t13 100q7 32 19 64t34 55q24 26 59 40.5t70 17.5q21 2 42.5 -0.5t42.5 -4.5q24 -2 48.5 -5t47.5 -10q56 -17 105 -52
q34 -26 61.5 -60.5t42.5 -74.5q14 -37 19 -77t5 -81q-1 -30 -7 -60.5t-24 -55.5q-31 -44 -79 -67q-5 -3 -10.5 -5.5t-10.5 -5.5q18 -14 38 -24.5t40 -18.5q12 -5 24 -8.5t21 -11.5q6 -5 9 -12t4 -15q1 -15 -4 -36t-14 -41.5t-20.5 -37.5t-24.5 -26q-11 -7 -26.5 -8t-32 1.5
t-32.5 8t-27 12.5q-82 49 -137 129q-2 3 -4.5 6.5t-4.5 7.5q2 -23 1.5 -45t-2.5 -45q-2 -19 -11.5 -36.5t-24.5 -28.5zM508 555q6 -2 11 -1t9 4t5 8t-2 10q-12 23 -28.5 43t-35.5 37q-23 21 -51.5 37t-59.5 21q-15 2 -31 2.5t-30 -4.5q-5 -2 -6 -7.5t4 -7.5q8 -3 17.5 -3.5
t18.5 -2.5q8 -1 14.5 -4t13.5 -5q15 -5 28.5 -12t26.5 -15q25 -16 46.5 -36.5t37.5 -46.5q2 -2 5.5 -8.5t6.5 -8.5zM282 406q17 -7 31 -7q7 0 17 4.5t20.5 10.5t19 13t13.5 13q7 9 12 19.5t6 22.5q2 19 -8.5 38.5t-27.5 30.5t-37 9t-30 -20q-9 -15 -12 -32.5t-5 -34.5
t-1.5 -33.5t2.5 -33.5z" />
    <glyph glyph-name="s" unicode="s" horiz-adv-x="604" 
d="M380 -11q-37 -4 -73.5 -3.5t-73.5 1.5q-26 0 -50.5 -0.5t-50.5 2.5q-22 2 -43 10.5t-38 22.5q-27 24 -30 58q-3 21 -3 43t8 42q3 10 10 18.5t15 16.5q32 24 76 29q30 4 61 6t61 0q37 -2 54.5 5.5t18 17.5t-14.5 19t-42 9q-42 -2 -83.5 5t-76.5 29q-22 14 -40 33.5
t-29 41.5q-14 26 -20 55t-5 58q1 48 16.5 97.5t53.5 82.5q38 32 98 47.5t123.5 18.5t120.5 -3t90 -18q37 -14 49.5 -43t12.5 -63q0 -18 -4 -36.5t-13 -34.5t-24 -28t-37 -16q-10 -2 -27.5 -2.5t-36.5 0t-36.5 0.5h-27.5q-32 -2 -45.5 -10t-11.5 -17.5t17 -17.5t40 -9
q11 0 27 -1.5t32.5 -3.5t31.5 -5t25 -7q49 -20 74 -61t32 -89.5t-2.5 -98.5t-29.5 -89q-13 -25 -34 -45.5t-46 -35.5q-22 -14 -47.5 -21.5t-51.5 -9.5zM469 660q4 -6 11 -7t12.5 2t8.5 9t0 13q-5 10 -13 17t-17 12q-26 14 -56 17t-59 1q-5 0 -18 -2.5t-17 -4.5
q-8 -4 -12 -11t3 -12q3 -2 9.5 -3t14 -1t15 0.5t11.5 0.5q14 0 29 -0.5t29 -3.5t27.5 -9.5t21.5 -17.5z" />
    <glyph glyph-name="t" unicode="t" horiz-adv-x="577" 
d="M347 -25q-45 -13 -94 -11t-91 22q-42 19 -53 65q-4 16 -5 31.5t-3 31.5q-4 48 -2 95t4 95q2 37 4 73.5t7 73.5q-15 1 -30 3t-29 8q-9 5 -17.5 12t-13.5 16q-20 29 -23 66.5t3 72.5q4 23 9.5 47t20.5 43q10 11 22.5 18t26.5 12q40 14 82.5 20t85.5 7.5t86.5 -0.5t85.5 -5
q24 -2 48 -3t47 -9q11 -4 21.5 -10t16.5 -16q9 -13 13.5 -27.5t6.5 -28.5q4 -27 1.5 -54t-10.5 -53q-5 -17 -13.5 -33.5t-22.5 -28.5q-8 -7 -17.5 -10.5t-19.5 -5.5q-15 -3 -30 -3h-30h-8.5t-8.5 -1q-5 -12 -5.5 -25.5t-1.5 -27.5q-2 -42 1 -84.5t6.5 -85t6.5 -85t2 -84.5
q-1 -14 -2 -27t-4 -26q-8 -28 -30 -47q-9 -8 -20.5 -13t-22.5 -8zM478 653q3 -5 8.5 -6t10.5 0.5t9 6t4 10.5q0 4 -4 10q-19 31 -54 44q-19 8 -39 11t-40 4q-17 1 -34 0t-33 -6q-5 -2 -6.5 -7.5t3.5 -7.5q1 -1 4 -3t5 -2q16 -5 33.5 -7t34.5 -3.5t34 -4.5t32 -10
q21 -10 32 -29z" />
    <glyph glyph-name="u" unicode="u" horiz-adv-x="672" 
d="M415 -15q-26 -5 -52 -6.5t-52 -0.5q-28 1 -56 8t-52 21q-31 18 -58.5 42t-48.5 53q-20 27 -34.5 58t-22.5 64q-15 57 -20 115.5t-7 118.5q-1 46 2.5 92.5t17.5 91.5q10 30 26 59.5t42 46.5q19 12 41 15.5t44 2.5q22 0 43.5 -7t39 -20t29 -30.5t12.5 -38.5q2 -32 -2 -63.5
t-9 -63.5q-8 -53 -12.5 -107t6.5 -106q4 -20 14.5 -28.5t23 -8t25.5 8t21 21.5q11 20 13 43.5t0 46.5q-2 30 -6.5 60.5t-8.5 60.5t-5.5 60.5t1.5 60.5q2 20 7.5 39t16.5 35q16 23 43 33q18 7 38 8t40 -2q23 -4 45.5 -15t38.5 -28q12 -13 19.5 -28.5t14.5 -32.5
q13 -32 18.5 -67.5t7.5 -70.5q1 -43 -1.5 -85.5t-4.5 -86.5q-2 -48 -10.5 -95.5t-25.5 -92.5q-14 -38 -37.5 -73t-55.5 -61q-23 -19 -51.5 -30.5t-57.5 -16.5zM244 632q2 -12 14 -11t18 12q2 4 0 13t-4 14q-6 17 -17.5 32t-26.5 25.5t-32 14.5t-35 0q-8 -2 -13.5 -7
t-0.5 -11q3 -2 12 -3.5t13 -2.5q26 -5 47 -27.5t25 -48.5zM571 631q5 -11 17.5 -8.5t13.5 14.5q1 4 -1 7.5t-3 7.5q-8 20 -23 36t-34 27q-15 9 -34 13.5t-36 0.5q-5 -2 -11.5 -5.5t-6.5 -9.5q0 -4 4.5 -6t10 -3t11.5 -1.5t10 -1.5q31 -9 54 -34q8 -8 15.5 -17t12.5 -20z" />
    <glyph glyph-name="v" unicode="v" horiz-adv-x="671" 
d="M387 -8q-28 -7 -57 -5t-56 10q-21 6 -39 18q-11 8 -20 19t-17 22q-27 42 -46.5 86.5t-35.5 91.5q-13 37 -24 73.5t-22 73.5q-1 3 -3 13.5t-4 13.5q-12 25 -26.5 65t-24.5 82t-11 81t13 63q8 13 21.5 23t27.5 16q23 10 48 13.5t51 3.5q22 1 44 -4.5t39 -19.5
q16 -13 25 -32.5t14 -39.5q10 -36 17 -72.5t16 -72.5q8 -32 18 -63l20 -62q8 28 17 55.5t17 55.5q14 47 28 93.5t31 92.5q10 28 27 45q7 7 19.5 11t26.5 6t27.5 2t22.5 -3q20 -6 39 -13t35 -20q17 -14 22.5 -36.5t3.5 -48t-9.5 -51.5t-16.5 -46q-18 -41 -35.5 -81t-31.5 -82
q-17 -48 -31.5 -96.5t-29.5 -96.5q-10 -34 -22 -67.5t-33 -62.5q-14 -19 -33 -34t-42 -20zM204 664q5 -7 12.5 -6.5t13.5 5t8 12t-4 13.5q-20 23 -51 31.5t-60 -0.5q-8 -2 -17 -8t-9 -14q-1 -8 6.5 -10t15.5 2q12 6 27 5t28 -6q17 -8 30 -24zM592 639q3 -16 20 -13
q6 2 11 7.5t4 11.5q-4 20 -18.5 38t-32.5 27q-8 3 -24.5 5.5t-24.5 -0.5q-6 -3 -10 -8t0 -11q2 -3 14 -5.5t16 -4.5q14 -8 28 -19.5t17 -27.5z" />
    <glyph glyph-name="w" unicode="w" horiz-adv-x="882" 
d="M307 -11q-31 -12 -66 -12t-65 14q-10 4 -19 9t-17 12q-18 16 -31.5 36t-22.5 42q-30 69 -44.5 142.5t-22.5 148.5q-4 45 -4.5 90t0.5 90v3q-2 19 -2 38t2 38q1 15 4.5 30t11.5 28q14 21 41 31t53 9q5 0 9 1t9 0q18 -1 36 -3.5t36 -7.5q12 -4 22.5 -12.5t18.5 -18.5
q11 -14 16.5 -29.5t7.5 -31.5q2 -12 1.5 -24.5t-1.5 -24.5q-2 -24 -5 -48t-5 -48q-1 -12 -3.5 -30.5t-5 -38.5t-5 -38.5t-3.5 -30.5q-3 -25 1.5 -39.5t13.5 -16t19 10t17 37.5q3 10 4 23t1 26.5t0.5 27t1.5 23.5q5 38 9 76t14 75q5 18 17 34.5t29 26.5q18 10 40.5 13.5
t44 0.5t41 -12.5t32.5 -25.5q11 -13 17.5 -29.5t9.5 -33.5q3 -21 2 -50t-2.5 -60t-2 -60t2.5 -50q5 -37 15 -53t19 -12.5t15 24.5t3 59q-2 22 -5 50t-5.5 56.5t-3.5 56.5t1 50t4.5 44t10.5 42q13 28 42 41q17 8 36.5 11.5t39.5 3.5q18 0 37 -3t34 -14q14 -10 25.5 -22.5
t17.5 -28.5q12 -31 15.5 -64t4.5 -65q0 -17 1 -32.5t0 -31.5q-2 -29 -4.5 -56.5t-6.5 -55.5q-1 -5 -2 -9t-2 -9q-4 -20 -7.5 -40t-8.5 -40q-12 -53 -32.5 -104.5t-53.5 -95.5q-17 -21 -39.5 -38t-48.5 -27q-24 -10 -50.5 -10t-51.5 7q-29 8 -54 25t-43 40q-31 39 -46 85
q-20 -52 -51 -94q-13 -16 -28.5 -30t-35.5 -21zM208 616q4 -11 16 -8t16 14q2 3 -0.5 9t-3.5 8q-13 27 -41.5 45.5t-57.5 20.5q-6 1 -12.5 1t-10.5 -5q-3 -4 -1 -8t7 -6q14 -5 28 -11t25 -14q12 -9 21 -20.5t14 -25.5zM788 619q2 -2 5.5 -2.5t6.5 -0.5q8 0 14.5 8.5
t1.5 15.5q-14 23 -37 37q-15 10 -33.5 14t-35.5 0q-6 -1 -18 -5.5t-15 -10.5q-2 -5 0 -9t7 -6q5 -1 9 0.5t9 1.5q9 1 18.5 0.5t17.5 -3.5q19 -6 35 -22zM503 561q2 -5 7 -6.5t10 0t9 5t4 9.5t-6.5 16t-9.5 15q-13 17 -33.5 28.5t-40.5 8.5q-5 0 -10.5 -3.5t-6.5 -8.5
q0 -4 3.5 -6t9 -3.5t11.5 -2.5t10 -3q14 -8 24.5 -21.5t18.5 -27.5z" />
    <glyph glyph-name="x" unicode="x" horiz-adv-x="694" 
d="M241 -32q-17 -8 -37.5 -7.5t-39.5 3.5q-38 6 -67 25q-17 11 -31.5 28t-20.5 37q-4 12 -3.5 25.5t3.5 25.5q13 45 33 87q11 25 26 48l30 46q5 8 14 19.5t4 19.5q-11 19 -23 37t-24 37q-26 39 -48 80t-39 85q-7 17 -10.5 35.5t-5.5 36.5q-2 20 6.5 41t22.5 36
q15 17 35.5 28.5t43.5 16.5q22 5 44 4t44 -6q5 -2 10.5 -3.5t10.5 -4.5q7 -4 12 -10t9 -13q14 -23 22 -47.5t16 -49.5q9 -32 20 -63t25 -61q25 51 50.5 100t55.5 97q12 20 28 38t36 29q12 7 29.5 6t35.5 -6t35 -13.5t28 -16.5q14 -9 25 -21t18 -26q14 -30 10 -60
q-6 -48 -36 -89q-12 -17 -26 -31t-27 -30q-21 -24 -38.5 -51t-28.5 -58q-4 -11 1 -23.5t12 -22.5q28 -39 61.5 -72.5t63.5 -71.5q15 -19 26 -42.5t9 -47.5q-2 -20 -14.5 -39.5t-30.5 -35.5t-39 -26.5t-41 -13.5q-35 -6 -67 4q-34 10 -55 35q-13 14 -23.5 29t-21.5 31
q-11 17 -21.5 35.5t-22.5 35.5q-2 -3 -3 -6.5t-3 -6.5q-11 -23 -21 -46.5t-23 -46.5q-11 -22 -26.5 -42t-37.5 -31zM611 615q2 -10 13 -9.5t16 10.5q3 6 2 14.5t-4.5 17t-8.5 16.5t-9 13q-13 16 -30.5 27.5t-36.5 19.5q-7 2 -18 4t-16 -4q-8 -8 2.5 -14t21.5 -11
q32 -16 52 -42q7 -9 10.5 -20t5.5 -22zM198 658q8 -7 18 -4t13 12q2 9 -7 16.5t-17 12.5q-20 11 -42.5 15t-44.5 0q-11 -2 -22 -4.5t-20 -9.5q-4 -2 -6.5 -5.5t0.5 -7.5q3 -3 10 -3q8 0 16.5 1.5t16.5 2.5q23 1 45.5 -5.5t39.5 -20.5z" />
    <glyph glyph-name="y" unicode="y" horiz-adv-x="739" 
d="M456 -31q-32 -6 -66 -5t-66 6q-23 3 -46 8t-40 19q-12 10 -18 25t-7 30q-2 34 0 68t5 68q2 17 5 45t10 55q-1 0 -3 2q-10 7 -18.5 15.5l-16.5 16.5q-20 20 -37 41.5t-35 42.5q-26 32 -51 63.5t-47 65.5q-16 25 -22 54t-3 58q2 19 13.5 36.5t25.5 31.5q9 9 19.5 15.5
t21.5 12.5q20 11 41 18t44 8q4 0 11.5 -1t16 -2t16.5 -3t11 -3q12 -5 21 -14t16 -20q14 -19 24.5 -40t19.5 -42.5l18 -43t20 -42.5l24 -42q12 25 23 50.5t24 50.5q19 36 44.5 70t60.5 58q12 8 26.5 13t28.5 4q17 0 33 -5.5t31 -13.5q29 -14 52.5 -35.5t39.5 -47.5
q13 -23 15 -51t-9 -51q-10 -20 -24.5 -38t-30.5 -35q-24 -24 -45 -50.5t-41 -53.5q-23 -30 -47 -59.5t-44 -61.5q-2 -5 -5 -10.5t-5 -10.5q3 -19 6.5 -37t7.5 -37q5 -27 11 -54.5t6 -55.5q0 -14 -2 -28t-10 -26q-8 -13 -22.5 -21.5t-30.5 -10.5zM76 679q3 -4 9 -2.5t10 3.5
q14 7 28 12.5t28 6.5q14 0 28 -9q9 -7 19.5 -4t13.5 14q2 5 -4 10t-11 7q-6 4 -13.5 5t-14.5 2q-22 2 -44 -5.5t-40 -20.5q-5 -4 -9 -9t0 -10zM668 602q2 -5 5.5 -8.5t8.5 -2.5q8 1 13 5.5t3 12.5q-2 7 -4.5 14t-6.5 14q-10 19 -26.5 34t-35.5 26q-14 8 -30.5 13t-32.5 3
q-9 -1 -13.5 -9t2.5 -13q2 -1 7 -2t7 -2q11 -3 22 -7t22 -9q20 -11 36 -29t23 -40z" />
    <glyph glyph-name="z" unicode="z" horiz-adv-x="551" 
d="M448 -17q-62 -5 -123 -7.5t-123 -1.5q-35 0 -69.5 8.5t-63.5 25.5q-17 11 -27 25q-9 14 -13.5 29.5t-5.5 31.5q-2 29 -1 58t9 56q5 18 13.5 35t19.5 34q19 30 42.5 56.5t48.5 52.5t50 51.5t46 54.5q-28 -5 -55.5 -9t-55.5 -8q-20 -2 -40 0t-37 11q-12 7 -21.5 17.5
t-15.5 22.5q-12 26 -15.5 55.5t1.5 57.5t20 51t41 37q14 7 29 10t31 4q73 5 145.5 5t144.5 -14q3 0 8 -2t11 -4t11 -4.5l7 -3.5q10 -5 18.5 -11.5t16.5 -14.5q14 -17 19 -42q4 -19 2 -38t-5 -38q-5 -28 -18 -54t-30 -49q-36 -46 -71.5 -91t-59.5 -97q-5 -11 -10 -22.5
t-8 -23.5q-1 -3 -1.5 -9t1.5 -8q4 -4 13.5 -5t14.5 0q12 1 29 3t35.5 3t36 2t28.5 1q26 0 46 -15q8 -8 13.5 -18.5t8.5 -21.5q9 -33 7.5 -69.5t-15.5 -68.5q-8 -18 -23 -30q-12 -10 -28 -13.5t-32 -4.5zM428 630q5 -7 13.5 -8t13.5 7q4 6 4 10q-2 8 -10 17t-18.5 17.5
t-21 15.5t-18.5 10q-25 10 -52 13t-54 1q-12 0 -24 -1t-23 -7q-6 -4 -6 -10q0 -9 9.5 -11t19.5 -3q26 -2 51 -4t51 -8q18 -5 36 -14t29 -25z" />
    <glyph glyph-name="braceleft" unicode="{" horiz-adv-x="487" 
d="M368 -121q-39 -16 -83.5 -15.5t-82.5 16.5q-19 8 -36.5 18.5t-33.5 24.5q-15 14 -26.5 31.5t-16.5 37.5q-9 31 -11 63.5t1 64.5q2 24 6 48t7 49q1 10 1 20.5t-5 19.5q-6 11 -17 18.5t-20 16.5t-17 18.5t-13 20.5q-8 15 -10.5 32.5t2.5 34.5q5 21 19.5 38t31.5 31
q23 18 25 47q4 35 -4.5 70.5t-13.5 70.5q-2 16 -2.5 31.5t0.5 32.5q1 32 8 63.5t24 59.5q23 38 59 60.5t77.5 30.5t85 3.5t80.5 -20.5q20 -9 37.5 -24t26.5 -35q9 -19 10 -40t-2 -41l-4 -18l-4 -18q-4 -20 -17.5 -35.5t-33.5 -22.5t-41.5 -4.5t-41.5 -4.5q-13 -4 -20 -16
t-9 -27t-1.5 -31.5t2.5 -30.5q2 -15 4.5 -30.5t4.5 -31.5q3 -32 -4 -66t-27 -60q-7 -10 -15 -18.5t-16 -16.5q23 -17 38 -39q12 -18 16 -39.5t4 -42.5q1 -20 -0.5 -38.5t-1.5 -38.5q0 -5 1.5 -10.5t6.5 -5.5q18 -1 36 3.5t36 4.5q14 0 27 -4t23 -13q9 -8 15 -19t11 -23
q14 -37 10 -73q-3 -21 -11 -41t-22 -36q-14 -17 -33.5 -30t-39.5 -21zM395 827q8 -2 15 2t10 12q2 4 -1.5 9t-7.5 8q-28 22 -65 28.5t-72 6.5q-3 0 -12.5 -1.5t-12.5 -2.5q-5 -1 -8.5 -4t-1.5 -8t8 -5.5t11 -1.5q19 -3 38 -4t37 -6q14 -3 27 -10t24 -16q6 -6 11 -7z" />
    <glyph glyph-name="bar" unicode="|" horiz-adv-x="352" 
d="M316 -4q2 -35 -14 -60.5t-42 -39.5t-58 -17.5t-61.5 4t-52 27t-30.5 50.5q-16 61 -23.5 130t-9 140t2 141.5t9.5 133.5t13.5 115.5t14.5 89.5q5 25 16 49t29 42q23 23 58 33t67 2q20 -5 38.5 -14.5t30.5 -25.5q10 -12 14.5 -27t6.5 -30q5 -35 3 -71t-4 -71
q-3 -34 -4.5 -68t-3.5 -68q-2 -63 -4 -117t-2.5 -108t1 -112t5.5 -128zM268 711q1 -3 4.5 -4t6.5 -1q6 -1 10 4t3 12q-2 22 -14.5 42t-29.5 34q-14 11 -32.5 14.5t-35.5 -1.5q-6 -1 -12 -9q-6 -6 0 -10.5t15 -4.5q29 2 52.5 -16t29.5 -46q2 -10 3 -14z" />
    <glyph glyph-name="braceright" unicode="}" horiz-adv-x="487" 
d="M285 -120q-38 -16 -82.5 -16.5t-82.5 15.5q-21 8 -40.5 21t-33.5 30q-14 16 -22 36t-10 41q-2 18 0.5 37t8.5 36q5 12 11 23t15 19q10 9 23.5 13t26.5 4q18 0 36 -4.5t36 -3.5q5 0 6.5 5.5t1.5 10.5q1 20 -0.5 38.5t-1.5 38.5q1 21 5 42.5t15 39.5q8 11 17.5 21t20.5 18
q-8 8 -16 16.5t-15 18.5q-20 26 -26.5 60t-3.5 66q2 16 4 31.5t4 30.5q2 14 3 30.5t-1.5 31.5t-9.5 27t-20 16q-20 7 -41.5 4.5t-41.5 4.5q-19 7 -33 22.5t-18 35.5l-4 18l-4 18q-3 20 -1.5 41t9.5 40q9 20 27 35t38 24q37 16 80 20.5t84.5 -3.5t77.5 -30.5t59 -60.5
q17 -28 24 -59.5t9 -63.5q1 -17 0.5 -32.5t-3.5 -31.5q-5 -35 -13.5 -70.5t-4.5 -70.5q2 -14 8 -26.5t17 -20.5q17 -14 31.5 -31t20.5 -38q4 -17 1.5 -34.5t-9.5 -32.5q-5 -11 -13.5 -20.5t-17.5 -18.5t-20 -16.5t-17 -18.5q-5 -9 -5 -19.5t2 -20.5q2 -25 6 -49t6 -48
q3 -32 1 -64.5t-10 -63.5q-13 -41 -44 -69q-16 -14 -33.5 -24.5t-36.5 -18.5zM322 772q3 -11 13 -11t18 8q5 5 1.5 15.5t-6.5 17.5q-9 19 -23.5 35t-32.5 27q-26 16 -56.5 23.5t-59.5 2.5q-8 -2 -15 -8t0 -11q2 -2 8 -3t9 -1q27 -1 54.5 -10t48.5 -26q15 -11 26 -26.5
t15 -32.5z" />
    <glyph glyph-name="asciitilde" unicode="~" horiz-adv-x="703" 
d="M203 239q-12 -9 -28 -12t-32 -1q-28 2 -52.5 13.5t-42.5 30.5t-27.5 43.5t-7.5 52.5q3 28 11 57q6 20 16.5 38t21.5 35q17 26 40.5 48t52.5 33q25 11 53 11.5t54 -7.5q34 -10 61 -36q16 -14 31.5 -28.5t33.5 -25.5q7 -4 14.5 -7t15.5 -3q7 0 13.5 4t11.5 8q16 13 28.5 30
t26 33t29 28.5t38.5 15.5q28 4 56.5 -8t47.5 -33q13 -14 18 -33t4 -38q-2 -56 -27.5 -105.5t-63.5 -87.5q-14 -14 -29 -26t-32 -20q-21 -11 -46 -10.5t-48 7.5q-24 8 -47 19.5t-45 25.5q-14 8 -27 17t-28 16q-10 4 -16 3q-5 -1 -8 -4l-6 -6q-17 -19 -30.5 -41t-34.5 -37z
M643 486q2 -10 11 -11t14 7q2 5 1.5 10t-2.5 10q-4 16 -18 31q-32 32 -76 38q-13 2 -16.5 -6.5t8.5 -12.5q15 -4 29.5 -10t25.5 -17q8 -8 14.5 -18t8.5 -21zM140 506q7 -2 19 6t18 11q16 8 35 8.5t35 -7.5q5 -2 9 -5.5t9 -5.5t12 1t9 8q3 10 -7 16.5t-20 10.5q-27 11 -59 4
t-54 -26q-6 -5 -9.5 -12t3.5 -9z" />
    <glyph glyph-name="nonbreakingspace" unicode="&#xa0;" horiz-adv-x="250" 
 />
    <glyph glyph-name="cent" unicode="&#xa2;" horiz-adv-x="508" 
d="M312 -9q-8 -6 -20 -8.5t-25 -2t-25 3.5t-21 8q-8 5 -13.5 12t-7.5 16q-4 17 -2 35t4 35l1 1q-11 4 -22 7.5t-22 7.5q-26 11 -48 28t-39 37q-19 22 -30 48t-19 53q-10 35 -12.5 71.5t3.5 71.5q9 67 42 122q16 26 38 47t48 38q38 25 82 36q-2 9 -3.5 18t-2.5 17
q-1 10 -0.5 20t5.5 18t14.5 14t20.5 8q24 5 49 0q14 -3 22 -12.5t11 -23t2.5 -29.5t-1.5 -30q4 -1 7.5 -2t7.5 -2q17 -5 33 -13.5t30 -19.5q3 -2 6.5 -4t6.5 -4q18 -15 33 -33q10 -11 19 -22.5t12 -25.5q6 -32 -11 -60q-19 -33 -50 -55q-12 -9 -27 -15t-31 -7
q-13 -1 -26 2.5t-24 9.5q-9 5 -16.5 12t-17.5 11q-8 4 -17.5 4.5t-19.5 -1.5q-7 -1 -12 -6.5t-8.5 -12.5t-5.5 -15t-3 -15q-1 -14 1 -27t6 -27q7 -22 23 -35q14 -11 32 -16t36 -7t36 -0.5t36 2.5q11 1 22 0.5t22 -3.5q17 -6 25 -22q5 -11 7 -22t3 -22q1 -21 -3.5 -42
t-15.5 -38q-17 -25 -47 -36q-39 -13 -78 -14q1 -23 -3 -48t-17 -36zM406 538q7 -5 15.5 -3t10.5 10q2 6 -7 13t-14 12q-11 10 -25 18.5t-29 13.5t-30.5 8t-31.5 5q-12 2 -25 2t-24 -4q-8 -2 -19.5 -5.5t-11.5 -11.5q0 -9 11 -7t21 4q13 3 30 1q18 -2 36 -5.5t35 -10.5
q13 -5 24 -13t22 -17q3 -2 5 -5q0 -2 2.5 -2.5t4.5 -2.5z" />
    <glyph glyph-name="sterling" unicode="&#xa3;" horiz-adv-x="637" 
d="M130 -32q-35 -2 -60.5 8.5t-40 30t-18 44t4.5 49t27.5 46t52.5 35.5q7 3 15.5 11t14.5 16.5t7 15.5t-6 7q-31 1 -52.5 15.5t-33 35.5t-12.5 45t8 44.5t29 34t51 14.5q-9 56 -3.5 112t26.5 102t58.5 78.5t93.5 41.5q30 4 69 4t77.5 -7t70 -22.5t46.5 -41.5q20 -35 22 -73
t-12 -68.5t-41.5 -46.5t-65.5 -5q-15 5 -29.5 11t-30.5 7q-14 1 -22 -6.5t-12.5 -19t-6 -26t-1.5 -27.5q26 2 55.5 3t54.5 -4t43 -18t22 -39q1 -9 1.5 -22t-1.5 -26t-6.5 -24.5t-11.5 -17.5q-11 -9 -34 -14t-49 -7t-50.5 -1.5t-38.5 1.5q-1 0 -1.5 -4.5t-1.5 -9.5
q-1 -6 -1 -15q30 -2 72.5 -1t84 -2.5t74.5 -15.5t45 -40q9 -21 12.5 -48t0.5 -53.5t-13.5 -49t-29.5 -35.5q-10 -6 -22 -8t-25 -1.5t-26 2.5t-25 4q-44 8 -88.5 7t-89 -5.5t-89 -11t-88.5 -9.5zM486 640q3 -4 8.5 -5t10.5 1t8 6t3 10q0 5 -7.5 14t-12.5 13q-35 33 -81 41
q-6 1 -16.5 2.5t-21.5 2t-20.5 -0.5t-14.5 -4t-6.5 -8t2.5 -9q2 -2 9.5 -3t10.5 -2q35 -1 70.5 -16t57.5 -42z" />
    <glyph glyph-name="currency" unicode="&#xa4;" horiz-adv-x="589" 
d="M553 166q8 -22 -3.5 -45t-33 -38.5t-47.5 -21t-46 8.5q-15 11 -25.5 26t-21.5 29q-20 -11 -44 -15.5t-48.5 -4t-49 6.5t-45.5 15l-6 -8t-14.5 -18t-16.5 -19t-13 -10q-18 -5 -39.5 0.5t-40 18.5t-31.5 30.5t-15 36.5q-1 12 5.5 27t16.5 30t22 27.5t22 19.5
q-23 52 -19 113t27 113q-11 10 -21 24t-17 29t-8 29.5t7 27.5q17 28 38 41.5t42.5 13t42 -15t36.5 -42.5q23 15 53.5 23.5t62 8.5t61 -8.5t49.5 -27.5q22 22 49.5 24.5t50 -10t35.5 -36.5t7 -55q-2 -9 -9.5 -19.5t-18 -20.5t-21.5 -18t-19 -12q13 -49 7 -101t-26 -99
q6 -4 16 -14t20 -22t18 -23.5t11 -18.5zM399 556q7 -6 15 1t3 14q-11 14 -28 22.5t-34 10.5q-11 2 -20.5 1.5t-19.5 -2.5q-8 -1 -22 -4.5t-18 -9.5q-2 -3 -1 -6.5t5 -4.5q3 -1 11.5 1t12.5 3q21 5 44.5 2t40.5 -17q3 -2 5.5 -5.5t5.5 -5.5zM259 350q4 -26 17 -34t28.5 -3.5
t30.5 18.5t23.5 31t8 34.5t-16.5 28.5q-23 16 -41 14.5t-30.5 -14.5t-17.5 -33.5t-2 -41.5z" />
    <glyph glyph-name="yen" unicode="&#xa5;" horiz-adv-x="767" 
d="M469 -31q-32 -6 -66 -5t-66 6q-23 3 -46 8t-40 19q-12 10 -18 25t-7 30q-1 11 -1 21v21q-35 0 -64 13q-16 8 -27 22t-14 30t2 30.5t21 24.5q13 8 28.5 11.5t31.5 5.5q14 1 32 -2q1 5 1.5 10t1.5 10h-2q-24 -2 -49.5 -1t-46.5 13q-19 11 -26.5 28.5t-5.5 36t13.5 35
t31.5 25.5q-5 5 -8.5 10t-8.5 10q-26 32 -51 63.5t-47 65.5q-16 25 -22 54t-3 58q2 19 13.5 36.5t25.5 31.5q9 9 19.5 15.5t21.5 12.5q20 11 41 18t44 8q4 0 11.5 -1t16 -2t16.5 -3t11 -3q12 -5 21 -14t16 -20q14 -19 24.5 -40t19.5 -42.5l18 -43t20 -42.5l24 -42
q12 25 23 50.5t24 50.5q19 36 44.5 70t60.5 58q12 8 26.5 13t28.5 4q17 0 33 -5.5t31 -13.5q29 -14 52.5 -35.5t39.5 -47.5q13 -23 15 -51t-9 -51q-10 -20 -24.5 -38t-30.5 -35q-23 -23 -42 -47.5t-39 -49.5q13 -5 24 -13.5t18 -20.5q9 -16 5 -38t-18 -34q-10 -8 -22 -12.5
t-24 -6.5q-16 -3 -31.5 -4.5t-31.5 -5.5q-7 -3 -18 -1h-2q-2 -5 -6 -13q1 -2 1 -6q2 0 4.5 0.5t4.5 0.5q15 2 30.5 3.5t30.5 1.5q14 0 28.5 -3.5t25.5 -11.5q15 -10 21 -24.5t4 -29.5t-11 -29t-25 -22q-20 -10 -42.5 -14t-45.5 -2q2 -12 3.5 -24t1.5 -24q0 -14 -2 -28
t-10 -26q-8 -13 -22.5 -21.5t-30.5 -10.5zM89 679q3 -4 9 -2.5t10 3.5q14 7 28 12.5t28 6.5q14 0 28 -9q9 -7 19.5 -4t13.5 14q2 5 -4 10t-11 7q-6 4 -13.5 5t-14.5 2q-22 2 -44 -5.5t-40 -20.5q-5 -4 -9 -9t0 -10zM681 602q2 -5 5.5 -8.5t8.5 -2.5q8 1 13 5.5t3 12.5
q-2 7 -4.5 14t-6.5 14q-10 19 -26.5 34t-35.5 26q-14 8 -30.5 13t-32.5 3q-9 -1 -13.5 -9t2.5 -13q2 -1 7 -2t7 -2q11 -3 22 -7t22 -9q20 -11 36 -29t23 -40z" />
    <glyph glyph-name="softhyphen" unicode="&#xad;" 
 />
    <glyph glyph-name="plusminus" unicode="&#xb1;" horiz-adv-x="532" 
d="M356 316q-4 -27 -19 -46.5t-35.5 -28.5t-44 -6.5t-44.5 18.5q-11 9 -20 19.5t-14 24.5q-7 22 -5.5 45.5t2.5 46.5q-2 0 -3 -0.5t-3 -0.5q-23 -5 -47.5 -5t-46.5 9q-29 13 -44 39q-6 10 -9.5 24t-3.5 28t4 27.5t12 22.5q19 21 47.5 30t56.5 11q5 0 13.5 -0.5t18.5 -1.5
q-5 45 3 89q5 25 25 46.5t46 26.5q18 3 36.5 0.5t35.5 -10.5q12 -6 21.5 -16.5t14.5 -23.5q2 -7 3 -20t1 -29t-1 -32t-2 -28q19 2 37 3.5t36 1.5t35.5 -6t30.5 -18q16 -17 24.5 -41.5t1.5 -47.5q-6 -23 -22 -44t-39 -26t-47 -5t-47 -1h-10v-1q4 -18 4 -37t-2 -37zM296 634
q-1 -7 2.5 -10.5t8.5 -3.5t9.5 3t5.5 10q3 14 0 28t-12 25q-11 13 -28 19.5t-33 1.5q-6 -2 -11 -5.5t-3 -8.5t13.5 -6t16.5 -3q15 -5 24 -19.5t7 -30.5zM466 503q4 -9 14.5 -7t12.5 12q1 11 -9.5 22t-19.5 16q-13 8 -28.5 10.5t-30.5 2.5q-5 0 -14 -2.5t-12 -7.5
q-4 -8 7 -9.5t21 -2.5q14 -1 28.5 -6t23.5 -16q3 -4 7 -12zM350 -6q-57 -2 -113 -1t-113 3q-16 1 -32 3.5t-30 8.5q-12 5 -21.5 13t-14.5 17q-9 15 -12 34.5t0 38t12.5 35.5t24.5 28t32 13q81 10 163 10.5t161 -16.5q14 -4 27.5 -10.5t22.5 -16.5q8 -9 12.5 -21t6.5 -23
q4 -20 1.5 -40.5t-15.5 -36.5q-9 -11 -22.5 -18.5t-27.5 -12.5t-30 -6.5t-32 -1.5zM406 124q5 -5 12 -4.5t12 4.5q9 6 2.5 14.5t-15.5 14.5q-14 9 -31 12t-34 5q-10 1 -25 1t-20 -7t4 -10.5t18 -4.5q14 -2 27.5 -3t26.5 -6q15 -5 23 -16z" />
    <glyph glyph-name="multiply" unicode="&#xd7;" horiz-adv-x="399" 
d="M305 175q-12 -1 -24.5 0t-23.5 7q-18 11 -31.5 26.5t-27.5 31.5q-1 -2 -1.5 -2.5t-1.5 -2.5q-12 -17 -28 -32t-36 -23q-26 -10 -52 -2q-11 3 -21.5 9.5t-19 16t-14.5 20t-6 21.5q-1 25 12 49t30 42q2 3 8 8t13 10q-30 26 -53 59q-12 19 -12 45.5t13 45.5q9 13 23 23
t29 15q25 8 49 -3q5 -3 13.5 -11t18.5 -18t19 -21t16 -19q11 13 21.5 25t22.5 23q11 11 26.5 18t30.5 6q21 0 41.5 -11t30.5 -29q10 -19 12.5 -42.5t-8.5 -41.5q-11 -17 -26.5 -31.5t-30.5 -29.5l-6 -6v-1q26 -19 47 -46q14 -20 16.5 -42t-5 -40.5t-24 -31t-40.5 -15.5z
M333 448q1 -2 4 -2.5t5 -0.5q6 2 10 6.5t2 10.5q-4 13 -11.5 24.5t-18.5 19.5q-6 5 -14.5 7.5t-16.5 3.5q-5 1 -11.5 -0.5t-8.5 -6.5q-2 -4 0 -6t6 -3.5t8.5 -3t8.5 -3.5q8 -3 14.5 -9t11.5 -13q3 -6 5 -12t6 -12zM46 482q2 -8 9.5 -5.5t14.5 5.5q9 5 22.5 7.5t20.5 -3.5
q12 -11 22 -1q9 11 0 19.5t-23 10.5t-27.5 -2t-24.5 -12q-4 -3 -10 -8.5t-4 -10.5z" />
    <glyph glyph-name="divide" unicode="&#xf7;" horiz-adv-x="428" 
d="M281 440q-9 -19 -29 -27.5t-41.5 -7t-40.5 12.5t-26 31q-11 30 2.5 54.5t37.5 36.5t51.5 7.5t45.5 -31.5q11 -16 9.5 -37.5t-9.5 -38.5zM259 489q4 -1 7.5 1.5t3.5 6.5q1 4 -3 9q-9 16 -27 22q-19 7 -36 1q-4 -1 -6 -4.5t1 -5.5q2 -1 5 -1h5q11 0 22 -5t17 -14
q2 -2 3 -4.5t3 -4.5q1 -1 5 -1zM326 225q-23 -1 -54 -1t-64 0.5t-64 1.5t-53 2q-27 0 -49 9q-19 8 -28 23q-15 23 -9.5 54t29.5 48q12 9 25 10q31 4 72.5 6t84 1.5t83.5 -3.5t72 -10q24 -5 39 -20q7 -7 10 -16t5 -18q2 -14 0.5 -29.5t-11.5 -27.5q-8 -8 -18 -13.5t-21 -9.5
q-12 -5 -24.5 -5.5t-24.5 -1.5zM370 323q3 -4 8.5 -3.5t10.5 3.5q7 5 1.5 11.5t-12.5 10.5q-11 7 -24 9.5t-27 3.5q-8 1 -19.5 1t-15.5 -5t3 -8t14 -4q11 -2 21.5 -2.5t21.5 -3.5q11 -5 18 -13zM276 90q-9 -19 -29 -27.5t-41.5 -7t-40.5 12.5t-26 31q-11 30 2 54.5t37 36.5
t52 7.5t46 -31.5q11 -16 9.5 -37.5t-9.5 -38.5zM254 139q3 -1 6.5 1.5t4.5 6.5q0 2 -1 4.5t-2 4.5q-9 16 -27 22q-19 7 -36 1q-5 -1 -7 -4.5t2 -5.5q1 -2 4.5 -1.5t5.5 0.5q11 0 21.5 -5t17.5 -14l6 -9q1 -1 5 -1z" />
    <glyph glyph-name="quoteleft" unicode="&#x2018;" horiz-adv-x="217" 
d="M177 514q-9 -17 -28 -28t-40 -11q-17 1 -33.5 6t-26.5 17q-12 15 -20 41t-11.5 55.5t-2.5 57t7 45.5q8 24 31 35.5t49.5 12.5t51 -7.5t34.5 -23.5q8 -12 11 -32t2.5 -41.5t-3 -42.5t-5.5 -35q-2 -13 -6.5 -25t-9.5 -24zM153 654q1 -5 4.5 -6.5t7 -0.5t6.5 4t2 8
q-2 26 -22 46.5t-49 18.5q-5 -1 -9 -5t-1 -9q2 -2 7 -2.5t7 -1.5q18 -5 31 -19t16 -33z" />
    <glyph glyph-name="quoteright" unicode="&#x2019;" horiz-adv-x="217" 
d="M177 514q-9 -17 -28 -28t-40 -11q-17 1 -33.5 6t-26.5 17q-12 15 -20 41t-11.5 55.5t-2.5 57t7 45.5q8 24 31 35.5t49.5 12.5t51 -7.5t34.5 -23.5q8 -12 11 -32t2.5 -41.5t-3 -42.5t-5.5 -35q-2 -13 -6.5 -25t-9.5 -24zM153 654q1 -5 4.5 -6.5t7 -0.5t6.5 4t2 8
q-2 26 -22 46.5t-49 18.5q-5 -1 -9 -5t-1 -9q2 -2 7 -2.5t7 -1.5q18 -5 31 -19t16 -33z" />
    <glyph glyph-name="quotedblleft" unicode="&#x201c;" horiz-adv-x="431" 
d="M177 503q-9 -18 -28 -29t-40 -10q-17 1 -33.5 6t-26.5 17q-12 15 -20 41t-11.5 55t-2.5 56.5t7 45.5q8 24 31 36t49.5 13t51 -7.5t34.5 -23.5q8 -12 11 -32t2.5 -41.5t-3 -42.5t-5.5 -35q-2 -13 -6.5 -25.5t-9.5 -23.5zM391 502q-9 -18 -28 -29t-40 -10q-17 0 -33.5 5
t-26.5 18q-12 15 -20 41t-11.5 55t-2.5 56.5t7 45.5q8 24 31 35.5t49.5 13t51 -7t34.5 -23.5q8 -12 11 -32t2.5 -42t-3 -42.5t-5.5 -34.5q-2 -13 -6.5 -25.5t-9.5 -23.5zM153 643q1 -5 4.5 -6.5t7 -1t6.5 3.5t2 8q-2 27 -22 47t-49 18q-5 0 -9 -4t-1 -9q2 -2 7 -3t7 -1
q18 -5 31 -19.5t16 -32.5zM367 642q1 -5 4.5 -7t7 -1t6.5 4t2 8q-2 27 -22 47t-49 18q-5 -1 -9 -4.5t-1 -8.5q2 -2 7 -3t7 -2q18 -5 31 -19t16 -32z" />
    <glyph glyph-name="quotedblright" unicode="&#x201d;" horiz-adv-x="431" 
d="M177 503q-9 -18 -28 -29t-40 -10q-17 1 -33.5 6t-26.5 17q-12 15 -20 41t-11.5 55t-2.5 56.5t7 45.5q8 24 31 36t49.5 13t51 -7.5t34.5 -23.5q8 -12 11 -32t2.5 -41.5t-3 -42.5t-5.5 -35q-2 -13 -6.5 -25.5t-9.5 -23.5zM391 502q-9 -18 -28 -29t-40 -10q-17 0 -33.5 5
t-26.5 18q-12 15 -20 41t-11.5 55t-2.5 56.5t7 45.5q8 24 31 35.5t49.5 13t51 -7t34.5 -23.5q8 -12 11 -32t2.5 -42t-3 -42.5t-5.5 -34.5q-2 -13 -6.5 -25.5t-9.5 -23.5zM153 643q1 -5 4.5 -6.5t7 -1t6.5 3.5t2 8q-2 27 -22 47t-49 18q-5 0 -9 -4t-1 -9q2 -2 7 -3t7 -1
q18 -5 31 -19.5t16 -32.5zM367 642q1 -5 4.5 -7t7 -1t6.5 4t2 8q-2 27 -22 47t-49 18q-5 -1 -9 -4.5t-1 -8.5q2 -2 7 -3t7 -2q18 -5 31 -19t16 -32z" />
    <glyph glyph-name="ellipsis" unicode="&#x2026;" horiz-adv-x="776" 
d="M482 48q-14 -28 -43 -40.5t-61 -10.5t-60 18t-38 46q-11 30 -5 56.5t22.5 46t41 31.5t50.5 13t50.5 -10.5t42.5 -37.5q16 -23 14.5 -54.5t-14.5 -57.5zM221 48q-14 -28 -43.5 -40.5t-61.5 -10.5t-59.5 18t-37.5 46q-11 30 -5 56.5t22.5 46t40.5 31.5t50 13t50.5 -10.5
t42.5 -37.5q16 -23 14.5 -54.5t-13.5 -57.5zM749 44q-14 -28 -43 -40.5t-61 -10.5t-60 18t-38 46t-4.5 56.5t22 46t41 31.5t50.5 13t50.5 -10.5t42.5 -37.5q16 -23 14.5 -54.5t-14.5 -57.5zM450 120q5 -1 10 3t6 9q1 6 -5 14q-6 11 -16.5 19t-22.5 13q-28 10 -53 1
q-6 -2 -9 -7t2 -8q2 -2 7 -2h7q17 0 32.5 -7t25.5 -20q2 -3 4 -6.5t5 -6.5q2 -2 7 -2zM188 120q5 -1 10 3t6 9q1 4 -0.5 7.5t-3.5 6.5q-7 11 -17.5 19t-22.5 13t-26 5.5t-27 -4.5q-6 -2 -9 -7t2 -8q2 -2 7.5 -2h7.5q16 0 31.5 -7t25.5 -20q2 -3 4 -6.5t5 -6.5q2 -2 7 -2z
M717 115q5 0 10 4t6 9q1 3 -1 6.5t-4 7.5q-13 22 -39 32q-26 9 -53 1q-6 -2 -9 -7t2 -8q2 -2 7 -2h7q17 0 32.5 -7t25.5 -20q2 -3 4 -6.5t5 -6.5q1 -2 3 -2t4 -1z" />
    <glyph glyph-name="Euro" unicode="&#x20ac;" horiz-adv-x="688" 
d="M623 58q-47 -43 -100 -62.5t-106 -18t-104 23t-92.5 58.5t-71.5 88t-42 114q-33 -3 -56 10.5t-30.5 31.5t2.5 34.5t43 19.5q-36 3 -47.5 20t-3 35t33 32t60.5 11q15 74 53.5 135.5t93 102t122.5 55t141 -4.5q11 -3 29 -12t36.5 -20.5t34 -24t21.5 -22.5
q25 -37 25.5 -76.5t-17.5 -70.5t-52 -48t-77 -8q-21 4 -45 8.5t-47.5 4.5t-44 -6t-34.5 -22q19 -3 34 -12.5t22 -21.5t4.5 -24.5t-19.5 -21.5q28 -8 35 -23.5t-2.5 -31t-31.5 -26.5t-52 -9q7 -29 21 -39.5t32.5 -8.5t40 12t43.5 21.5t43.5 21.5t39.5 11q44 3 72 -22.5
t37.5 -62.5t-1 -79t-43.5 -72zM567 620q7 -8 18 -5t14 13q2 8 -7 18t-15 16q-25 22 -57.5 33.5t-65.5 13.5q-6 0 -16.5 -1t-21.5 -2.5t-21 -5t-14 -7.5q-6 -6 -3 -11q4 -6 14.5 -5t17.5 2q40 6 80 -6q22 -8 41.5 -22t35.5 -31z" />
    <glyph glyph-name="trademark" unicode="&#x2122;" horiz-adv-x="826" 
d="M209 311q-25 -7 -53 -5.5t-52 12.5t-30 37q-2 9 -3 18l-2 18q-2 27 -1 54t3 54l2 42t4 42q-9 0 -17 1t-16 5q-11 4 -18 16q-11 17 -13 38t1 41q2 14 5.5 27t12.5 24q5 6 12 10t15 7q46 16 95.5 16t98.5 -3q14 -1 27.5 -2t26.5 -5q6 -2 12 -6t10 -9q5 -7 7 -15.5t4 -16.5
q4 -30 -5 -61q-3 -10 -8 -19t-13 -16q-9 -8 -21 -9q-8 -2 -17 -2h-17h-10q-3 -8 -3 -15t-1 -15q-2 -49 4.5 -97t4.5 -97q0 -15 -3 -30q-5 -15 -17 -26q-9 -8 -25 -13zM484 303q-12 -3 -27 -4t-30 2t-28 9t-20 16q-7 9 -10.5 21t-5.5 23q-3 17 -4 34.5t-3 34.5q-2 25 -2 49.5
t-1 48.5q0 35 1 68.5t8 67.5q2 12 5.5 23.5t10.5 22.5q8 13 19 20q8 6 18.5 8t20.5 1q18 0 36 -6t30 -19q3 -3 5 -6l4 -6q21 -30 33.5 -65t29.5 -67q2 -2 2.5 -3.5t2.5 -3.5q10 16 18 34t15.5 36.5t16 36t19.5 33.5q2 3 4.5 6.5t4.5 6.5q17 16 41 22t47 1q16 -4 26 -15
q10 -10 15 -22.5t9 -25.5q5 -18 6.5 -36.5t3.5 -36.5q2 -44 1 -87t-3 -86q-2 -20 -3 -39t-6 -38q-2 -9 -5 -18t-9 -17q-7 -11 -24 -18q-11 -5 -22.5 -7.5t-23.5 -1.5q-13 0 -26 2t-24 9q-3 2 -5.5 5.5t-4.5 6.5q-9 13 -11 29t0 31q2 22 5.5 43.5t8.5 42.5
q-9 -16 -18.5 -30.5t-22.5 -27.5q-12 -12 -24 -16q-6 -4 -17 -2q-10 3 -17.5 10t-14.5 15q-10 11 -17.5 24t-15.5 26q7 -32 12 -63q2 -17 3 -34t-4 -34q-3 -11 -12 -21t-21 -13zM284 698q3 -6 11 -3.5t7 9.5q0 2 -2 6q-11 17 -31 25q-11 4 -22.5 5.5t-22.5 2.5q-9 1 -19 0.5
t-19 -3.5q-3 -2 -4 -4.5t2 -4.5q1 0 3 -1.5t3 -1.5q19 -5 39 -5.5t37 -8.5q12 -5 18 -16zM752 677q3 -7 11.5 -4t6.5 11q-5 14 -16 24q-12 12 -34 17q-8 2 -20.5 1t-17.5 -7q-3 -5 0 -8.5t8 -2.5q8 1 18 -1t19 -6t15.5 -10t9.5 -14zM493 660q7 -5 13 1t1 13q-9 17 -25 31
q-8 8 -25.5 13t-28.5 0q-4 -2 -6 -6t3 -5q1 0 2 -1t3 -1q7 -1 13.5 -2t12.5 -5q15 -7 26 -22q2 -2 5.5 -8.5t5.5 -7.5z" />
    <glyph glyph-name="minus" unicode="&#x2212;" horiz-adv-x="492" 
d="M351 271q-57 -2 -113 -1t-113 3q-16 1 -32 4t-30 11q-25 11 -36 34q-9 18 -12 39.5t0 43.5t12.5 41.5t24.5 31.5q13 12 32 15q81 11 163 11.5t161 -19.5q14 -4 27.5 -11.5t22.5 -18.5q8 -11 12.5 -24t6.5 -27q4 -22 1.5 -46t-15.5 -42q-9 -12 -22.5 -21t-27.5 -14
q-14 -6 -30 -7.5t-32 -2.5zM407 420q5 -6 12 -5.5t12 5.5q9 8 2.5 17.5t-15.5 16.5q-14 10 -31 13.5t-34 5.5q-10 1 -25 1t-20 -8t4 -12t18 -5q14 -2 27.5 -3.5t26.5 -6.5q15 -7 23 -19z" />
    <glyph glyph-name="NULL" 
 />
    <glyph glyph-name="controlCR" 
 />
    </font>
</defs>
</svg>
